{
.appVersion = "3525";
.formatVersion = 3;
axes = (
{
name = Weight;
tag = wght;
}
);
classes = (
{
automatic = 1;

glyphs = (
{
glyphname = A;
kernLeft = A;
kernRight = A;
lastChange = "2025-02-26 16:35:17 +0000";
layers = (
{
anchors = (
{
name = bottom;
pos = (289,0);
},
{
name = ogonek;
pos = (623,0);
},
{
name = top;
pos = (315,660);
}
);
hints = (
{
horizontal = 1;
place = (660,-20);
target = down;
type = TopGhost;
},
{
horizontal = 1;
options = 4;
place = (0,53);
stem = -1;
type = TTStem;
},
{
horizontal = 1;
options = 4;
place = (211,77);
stem = -1;
type = TTStem;
},
{
horizontal = 1;
options = 4;
type = TTSnap;
},
{
horizontal = 1;
options = 4;
place = (660,115);
stem = -1;
type = TTStem;
}
);
layerId = "6AD408C6-91F3-4F0B-A103-73D10F5280D9";
shapes = (
{
closed = 1;
nodes = (
(360,649,ls),
(357,656,o),
(352,660,o),
(345,660,cs),
(289,660,ls),
(281,660,o),
(276,656,o),
(274,649,cs),
(68,91,ls),
(55,55,o),
(44,33,o),
(18,33,cs),
(6,33,o),
(5,28,o),
(5,20,cs),
(5,13,ls),
(5,4,o),
(10,0,o),
(18,0,cs),
(168,0,ls),
(176,0,o),
(181,4,o),
(181,13,cs),
(181,20,ls),
(181,28,o),
(180,33,o),
(168,33,cs),
(121,33,o),
(85,51,o),
(101,94,cs),
(159,251,l),
(136,231,l),
(453,231,l),
(427,249,l),
(479,102,ls),
(496,54,o),
(477,33,o),
(423,33,cs),
(411,33,o),
(410,28,o),
(410,20,cs),
(410,13,ls),
(410,4,o),
(415,0,o),
(423,0,cs),
(623,0,ls),
(632,0,o),
(636,4,o),
(636,13,cs),
(636,20,ls),
(636,28,o),
(635,33,o),
(623,33,cs),
(591,33,o),
(587,58,o),
(577,85,cs)
);
},
{
closed = 1;
nodes = (
(299,633,l),
(284,633,l),
(424,256,l),
(425,268,l),
(163,268,l),
(162,261,l)
);
}
);
width = 642;
},
{
anchors = (
{
name = bottom;
pos = (320,0);
},
{
name = ogonek;
pos = (673,0);
},
{
name = top;
pos = (341,660);
}
);
hints = (
{
horizontal = 1;
place = (660,-20);
target = down;
type = TopGhost;
},
{
horizontal = 1;
options = 4;
origin = (0,18);
stem = -1;
target = (0,11);
type = TTStem;
},
{
horizontal = 1;
options = 4;
origin = (0,30,0,32);
stem = 1000;
target = (1,4);
type = TTStem;
},
{
horizontal = 1;
options = 4;
origin = (0,4);
type = TTSnap;
},
{
horizontal = 1;
options = 4;
origin = (0,4);
stem = -1;
target = (1,0);
type = TTStem;
}
);
layerId = m002;
shapes = (
{
closed = 1;
nodes = (
(410,649,ls),
(407,656,o),
(402,660,o),
(395,660,cs),
(289,660,ls),
(281,660,o),
(276,656,o),
(274,649,cs),
(84,136,ls),
(68,91,o),
(54,53,o),
(18,53,cs),
(6,53,o),
(5,48,o),
(5,40,cs),
(5,13,ls),
(5,4,o),
(10,0,o),
(18,0,cs),
(238,0,ls),
(246,0,o),
(251,4,o),
(251,13,cs),
(251,40,ls),
(251,48,o),
(250,53,o),
(238,53,cs),
(184,53,o),
(157,95,o),
(172,136,cs),
(202,220,l),
(186,211,l),
(453,211,l),
(436,223,l),
(467,136,ls),
(483,91,o),
(457,53,o),
(403,53,cs),
(391,53,o),
(390,48,o),
(390,40,cs),
(390,13,ls),
(390,4,o),
(395,0,o),
(403,0,cs),
(673,0,ls),
(682,0,o),
(686,4,o),
(686,13,cs),
(686,40,ls),
(686,48,o),
(685,53,o),
(673,53,cs),
(641,53,o),
(627,88,o),
(608,136,cs)
);
},
{
closed = 1;
nodes = (
(324,564,l),
(310,564,l),
(424,256,l),
(425,288,l),
(213,288,l),
(216,261,l)
);
}
);
width = 692;
}
);
note = A;
unicode = 65;
},
{
glyphname = AE;
kernLeft = AE;
kernRight = E;
lastChange = "2025-02-26 16:37:54 +0000";
layers = (
{
anchors = (
{
name = bottom;
pos = (620.288,0);
},
{
name = ogonek;
pos = (812.288,0);
},
{
name = top;
pos = (575.31,660);
}
);
background = {
shapes = (
{
closed = 1;
nodes = (
(818.31,0,ls),
(828.31,0,o),
(832.31,-1,o),
(836.31,-4,cs),
(840.31,-9,ls),
(843.31,-11,o),
(845.31,-12,o),
(848.31,-12,cs),
(852.31,-12,o),
(856.31,-10,o),
(858.31,-4,cs),
(941.31,170,ls),
(943.31,173,o),
(944.31,176,o),
(944.31,179,cs),
(944.31,183,o),
(940.31,186,o),
(936.31,188,cs),
(908.31,205,ls),
(905.31,207,o),
(903.31,207,o),
(901.31,207,cs),
(895.31,207,o),
(892.31,204,o),
(889.31,200,cs),
(887.31,194,ls),
(837.31,96,o),
(789.31,62,o),
(660.31,62,cs),
(602.31,62,ls),
(563.31,62,o),
(542.31,92,o),
(542.31,146,cs),
(542.31,320,l),
(619.31,320,ls),
(673.31,320,o),
(703.31,301,o),
(703.31,261,cs),
(703.31,256,ls),
(703.31,247,o),
(707.31,243,o),
(716.31,243,cs),
(742.31,243,ls),
(751.31,243,o),
(755.31,247,o),
(755.31,256,cs),
(755.31,456,ls),
(755.31,465,o),
(751.31,469,o),
(742.31,469,cs),
(716.31,469,ls),
(707.31,469,o),
(703.31,465,o),
(703.31,456,cs),
(703.31,450,ls),
(703.31,411,o),
(672.31,391,o),
(619.31,391,cs),
(542.31,391,l),
(542.31,598,l),
(684.31,598,ls),
(752.31,598,o),
(789.31,576,o),
(825.31,516,cs),
(828.31,511,ls),
(830.31,506,o),
(834.31,503,o),
(838.31,503,cs),
(841.31,503,o),
(843.31,504,o),
(848.31,507,cs),
(883.31,526,ls),
(887.31,529,o),
(890.31,532,o),
(890.31,537,cs),
(890.31,539,o),
(889.31,542,o),
(887.31,545,cs),
(818.31,664,ls),
(815.31,669,o),
(811.31,671,o),
(806.31,671,cs),
(804.31,671,o),
(801.31,671,o),
(799.31,669,cs),
(794.31,664,ls),
(790.31,661,o),
(786.31,660,o),
(777.31,660,cs),
(271.31,660,ls),
(262.31,660,o),
(257.31,655,o),
(257.31,646,cs),
(257.31,620,ls),
(257.31,612,o),
(262.31,606,o),
(271.31,606,cs),
(300.31,606,o),
(311.31,601,o),
(311.31,589,cs),
(311.31,580,o),
(306.31,567,o),
(298.31,553,cs),
(58.31,136,ls),
(33.31,94,o),
(-1.69,57,o),
(-51.69,57,cs),
(-62.69,57,o),
(-65.69,52,o),
(-65.69,44,cs),
(-65.69,13,ls),
(-65.69,4,o),
(-60.69,0,o),
(-51.69,0,cs),
(167.31,0,ls),
(175.31,0,o),
(180.31,4,o),
(180.31,13,cs),
(180.31,44,ls),
(180.31,52,o),
(180.31,57,o),
(167.31,57,cs),
(146.31,57,o),
(130.31,69,o),
(130.31,88,cs),
(130.31,100,o),
(136.31,119,o),
(146.31,136,cs),
(187.31,210,l),
(396.31,210,l),
(396.31,136,ls),
(396.31,86,o),
(367.31,60,o),
(332.31,60,cs),
(322.31,60,o),
(319.31,55,o),
(319.31,47,cs),
(319.31,13,ls),
(319.31,4,o),
(324.31,0,o),
(332.31,0,cs)
);
},
{
closed = 1;
nodes = (
(396.31,582,l),
(396.31,287,l),
(230.31,287,l)
);
}
);
};
hints = (
{
horizontal = 1;
options = 4;
place = (0,53);
stem = -1;
type = TTStem;
},
{
horizontal = 1;
options = 4;
place = (211,77);
stem = -1;
type = TTStem;
},
{
horizontal = 1;
options = 4;
type = TTSnap;
},
{
horizontal = 1;
options = 4;
place = (660,115);
stem = -1;
type = TTStem;
}
);
layerId = "6AD408C6-91F3-4F0B-A103-73D10F5280D9";
shapes = (
{
closed = 1;
nodes = (
(828.965,-11.799,o),
(832.242,-9.507,o),
(834.965,-3.799,cs),
(917.965,170.201,ls),
(921.965,179.201,o),
(921.965,184.201,o),
(912.965,188.201,cs),
(898.965,195.201,ls),
(889.965,200.201,o),
(882.965,197.201,o),
(879.965,190.201,cs),
(876.965,184.201,ls),
(818.965,67.201,o),
(775.965,42.201,o),
(646.965,42.201,cs),
(571.965,42.201,ls),
(532.965,42.201,o),
(501.965,72.201,o),
(501.965,126.201,cs),
(501.965,330.201,l),
(615.965,330.201,ls),
(659.965,330.201,o),
(679.965,311.201,o),
(679.965,271.201,cs),
(679.965,266.201,ls),
(679.965,257.201,o),
(683.965,253.201,o),
(692.965,253.201,cs),
(698.965,253.201,ls),
(707.965,253.201,o),
(711.965,257.201,o),
(711.965,266.201,cs),
(711.965,436.201,ls),
(711.965,445.201,o),
(707.965,449.201,o),
(698.965,449.201,cs),
(692.965,449.201,ls),
(683.965,449.201,o),
(679.965,445.201,o),
(679.965,436.201,cs),
(679.965,430.201,ls),
(679.965,391.201,o),
(658.965,371.201,o),
(615.965,371.201,cs),
(501.965,371.201,l),
(501.965,618.201,l),
(680.965,618.201,ls),
(748.965,618.201,o),
(776.965,600.201,o),
(821.965,526.201,cs),
(824.965,521.201,ls),
(827.965,516.201,o),
(830.965,513.201,o),
(834.965,513.201,cs),
(837.965,513.201,o),
(839.965,514.201,o),
(844.965,517.201,cs),
(859.965,526.201,ls),
(863.965,529.201,o),
(866.965,532.201,o),
(866.965,537.201,cs),
(866.965,539.201,o),
(865.965,542.201,o),
(863.965,545.201,cs),
(794.965,664.201,ls),
(791.965,669.201,o),
(787.965,671.201,o),
(783.965,671.201,cs),
(780.965,671.201,o),
(777.965,671.201,o),
(775.965,669.201,cs),
(770.965,664.201,ls),
(766.965,661.201,o),
(762.965,660.201,o),
(753.965,660.201,cs),
(353.965,660.201,ls),
(344.965,660.201,o),
(339.965,655.201,o),
(339.965,646.201,cs),
(339.965,640.201,ls),
(339.965,632.201,o),
(345.965,626.201,o),
(353.965,626.201,cs),
(371.257,626.201,o),
(393.916,622.182,o),
(376.689,590.998,cs),
(100.486,91,ls),
(70.982,37.59,o),
(43.998,33,o),
(17.998,33,cs),
(5.998,33,o),
(4.998,28,o),
(4.998,20,cs),
(4.998,13,ls),
(4.998,4,o),
(9.998,0,o),
(17.998,0,cs),
(167.998,0,ls),
(175.998,0,o),
(180.998,4,o),
(180.998,13,cs),
(180.998,20,ls),
(180.998,28,o),
(179.998,33,o),
(167.998,33,cs),
(120.998,33,o),
(113.306,34.155,o),
(146.071,94,cs),
(221.081,231,l),
(418.965,231,l),
(418.965,116.201,ls),
(418.965,60.201,o),
(397.965,33.201,o),
(353.965,33.201,cs),
(345.965,33.201,o),
(339.965,28.201,o),
(339.965,20.201,cs),
(339.965,13.201,ls),
(339.965,4.201,o),
(344.965,0.201,o),
(353.965,0.201,cs),
(794.965,0.201,ls),
(805.965,0.201,o),
(809.841,0.106,o),
(812.965,-3.799,cs),
(816.965,-8.799,ls),
(819.217,-11.614,o),
(821.965,-11.799,o),
(824.965,-11.799,cs)
);
},
{
closed = 1;
nodes = (
(418.965,589.811,l),
(418.965,268,l),
(241.883,268,l)
);
}
);
width = 937.96;
},
{
anchors = (
{
name = bottom;
pos = (690.978,0);
},
{
name = ogonek;
pos = (882.978,0);
},
{
name = top;
pos = (646,660);
}
);
layerId = m002;
shapes = (
{
closed = 1;
nodes = (
(916.978,-12,o),
(920.255,-9.708,o),
(922.978,-4,cs),
(1005.978,170,ls),
(1010.04,178.515,o),
(1009.917,183.892,o),
(1000.978,189,cs),
(972.978,205,ls),
(965.978,209,o),
(957.978,206,o),
(954.978,200,cs),
(951.978,194,ls),
(902.978,96,o),
(853.978,62,o),
(724.978,62,cs),
(666.978,62,ls),
(627.978,62,o),
(606.978,92,o),
(606.978,146,cs),
(606.978,320,l),
(683.978,320,ls),
(737.978,320,o),
(767.978,301,o),
(767.978,261,cs),
(767.978,256,ls),
(767.978,247,o),
(771.978,243,o),
(780.978,243,cs),
(806.978,243,ls),
(815.978,243,o),
(819.978,247,o),
(819.978,256,cs),
(819.978,456,ls),
(819.978,465,o),
(815.978,469,o),
(806.978,469,cs),
(780.978,469,ls),
(771.978,469,o),
(767.978,465,o),
(767.978,456,cs),
(767.978,450,ls),
(767.978,411,o),
(736.978,391,o),
(683.978,391,cs),
(606.978,391,l),
(606.978,598,l),
(748.978,598,ls),
(816.978,598,o),
(853.978,576,o),
(889.978,516,cs),
(892.978,511,ls),
(895.749,506.382,o),
(898.978,503,o),
(902.978,503,cs),
(905.978,503,o),
(907.854,504.218,o),
(912.978,507,cs),
(947.978,526,ls),
(952.373,528.385,o),
(954.978,532,o),
(954.978,537,cs),
(954.978,539,o),
(953.787,541.881,o),
(951.978,545,cs),
(882.978,664,ls),
(880.053,669.044,o),
(875.978,671,o),
(871.978,671,cs),
(868.978,671,o),
(865.978,671,o),
(863.978,669,cs),
(858.978,664,ls),
(855.443,660.464,o),
(850.978,660,o),
(841.978,660,cs),
(342,660,ls),
(333,660,o),
(328,655,o),
(328,646,cs),
(328,620,ls),
(328,612,o),
(333,606,o),
(342,606,cs),
(387.075,606,o),
(391.363,592.136,o),
(369,553,cs),
(129,136,ls),
(104,94,o),
(69,57,o),
(19,57,cs),
(8,57,o),
(5,52,o),
(5,44,cs),
(5,13,ls),
(5,4,o),
(10,0,o),
(19,0,cs),
(238,0,ls),
(246,0,o),
(251,4,o),
(251,13,cs),
(251,44,ls),
(251,52,o),
(251,57,o),
(238,57,cs),
(193.366,57,o),
(193.964,96.839,o),
(217,136,cs),
(258,210,l),
(467,210,l),
(467,136,ls),
(467,86,o),
(438,60,o),
(403,60,cs),
(393,60,o),
(390,55,o),
(390,47,cs),
(390,13,ls),
(390,4,o),
(395,0,o),
(403,0,cs),
(882.978,0,ls),
(893.978,0,o),
(897.855,-0.096,o),
(900.978,-4,cs),
(904.978,-9,ls),
(907.231,-11.815,o),
(909.978,-12,o),
(912.978,-12,cs)
);
},
{
closed = 1;
nodes = (
(467,582,l),
(467,287,l),
(301,287,l)
);
}
);
width = 1025.99;
}
);
metricLeft = A;
metricRight = E;
note = AE;
unicode = 198;
},
{
glyphname = B;
kernLeft = B;
kernRight = B;
lastChange = "2025-02-27 13:23:27 +0000";
layers = (
{
anchors = (
{
name = bottom;
pos = (317,0);
},
{
name = center;
pos = (158,165);
},
{
name = top;
pos = (317,660);
}
);
hints = (
{
horizontal = 1;
options = 4;
origin = (0,34);
stem = -1;
target = (0,27);
type = TTStem;
},
{
horizontal = 1;
options = 4;
origin = (0,20);
stem = -1;
target = (2,6);
type = TTStem;
},
{
horizontal = 1;
options = 4;
origin = (0,13);
stem = -1;
target = (0,20);
type = TTStem;
}
);
layerId = "6AD408C6-91F3-4F0B-A103-73D10F5280D9";
shapes = (
{
closed = 1;
nodes = (
(363,0,ls),
(501,0,o),
(598,80,o),
(598,194,cs),
(598,282,o),
(543,351,o),
(451,378,c),
(509,407,o),
(540,450,o),
(540,501,cs),
(540,590,o),
(445,660,o),
(323,660,cs),
(70,660,ls),
(61,660,o),
(56,656,o),
(56,647,cs),
(56,640,ls),
(56,632,o),
(61,627,o),
(70,627,cs),
(113,627,o),
(135,599,o),
(135,544,cs),
(135,116,ls),
(135,61,o),
(113,33,o),
(70,33,cs),
(61,33,o),
(56,28,o),
(56,20,cs),
(56,13,ls),
(56,4,o),
(61,0,o),
(70,0,cs)
);
},
{
attr = {
strokePos = 1;
};
closed = 1;
nodes = (
(258.939,26,o),
(218,58.68,o),
(218,121.907,cs),
(218,345,l),
(296,345,ls),
(440,345,o),
(507,290,o),
(507,187,cs),
(507,88,o),
(443,26,o),
(325,26,cs),
(303,26,ls)
);
},
{
attr = {
strokePos = 1;
};
closed = 1;
nodes = (
(218,634,l),
(298,634,ls),
(397,634,o),
(449,585,o),
(449,506,cs),
(449,428,o),
(396,378,o),
(295,378,cs),
(218,378,l)
);
}
);
width = 633;
},
{
anchors = (
{
name = bottom;
pos = (317,0);
},
{
name = center;
pos = (158,165);
},
{
name = top;
pos = (317,660);
}
);
hints = (
{
horizontal = 1;
options = 4;
origin = (0,21);
stem = -1;
target = (0,14);
type = TTStem;
},
{
horizontal = 1;
options = 4;
origin = (1,3);
stem = -1;
target = (2,8);
type = TTStem;
},
{
horizontal = 1;
options = 4;
origin = (0,0);
stem = -1;
target = (0,7);
type = TTStem;
}
);
layerId = m002;
shapes = (
{
closed = 1;
nodes = (
(363,0,ls),
(501,0,o),
(598,80,o),
(598,194,cs),
(598,282,o),
(543,351,o),
(451,378,c),
(509,407,o),
(540,450,o),
(540,501,cs),
(540,590,o),
(445,660,o),
(323,660,cs),
(40,660,ls),
(31,660,o),
(26,656,o),
(26,647,cs),
(26,620,ls),
(26,612,o),
(31,607,o),
(40,607,cs),
(83,607,o),
(105,579,o),
(105,524,cs),
(105,136,ls),
(105,81,o),
(83,53,o),
(40,53,cs),
(31,53,o),
(26,48,o),
(26,40,cs),
(26,13,ls),
(26,4,o),
(31,0,o),
(40,0,cs)
);
},
{
closed = 1;
nodes = (
(265,53,o),
(245,73.417,o),
(245,126.417,cs),
(245,332,l),
(296,332,ls),
(410,332,o),
(466,287,o),
(466,194,cs),
(466,106,o),
(414,53,o),
(325,53,cs),
(303,53,ls)
);
},
{
closed = 1;
nodes = (
(245,607,l),
(298,607,ls),
(368,607,o),
(408,568,o),
(408,501,cs),
(408,434,o),
(367,394,o),
(295,394,cs),
(245,394,l)
);
}
);
width = 633;
}
);
note = B;
unicode = 66;
},
{
glyphname = C;
kernLeft = C;
kernRight = C;
lastChange = "2025-02-27 13:23:44 +0000";
layers = (
{
anchors = (
{
name = bottom;
pos = (348,0);
},
{
name = top;
pos = (343,660);
}
);
background = {
shapes = (
{
closed = 1;
nodes = (
(162,671,o),
(21,517,o),
(21,334,cs),
(21,147,o),
(170,-11,o),
(356,-11,cs),
(534,-11,o),
(683,137,o),
(683,325,cs),
(683,512,o),
(532,671,o),
(346,671,cs)
);
},
{
closed = 1;
nodes = (
(516,641,o),
(587,406,o),
(587,270,cs),
(587,122,o),
(509,19,o),
(367,19,cs),
(191,19,o),
(116,239,o),
(116,389,cs),
(116,540,o),
(196,641,o),
(334,641,cs)
);
}
);
};
layerId = "6AD408C6-91F3-4F0B-A103-73D10F5280D9";
shapes = (
{
closed = 1;
nodes = (
(608,212,ls),
(605,213,o),
(602,212,o),
(600,206,cs),
(570,111,o),
(501,19,o),
(358,19,cs),
(213,19,o),
(132,157,o),
(132,359,cs),
(132,474,o),
(202,641,o),
(356,641,cs),
(475,641,o),
(525,558,o),
(525,480,cs),
(525,467,o),
(523,457,o),
(523,453,cs),
(523,447,o),
(526,442,o),
(542,447,cs),
(596,465,ls),
(603,467,o),
(605,470,o),
(605,480,cs),
(605,519,o),
(541,671,o),
(356,671,cs),
(112,671,o),
(31,470,o),
(31,323,cs),
(31,134,o),
(147,-11,o),
(348,-11,cs),
(508,-11,o),
(591,94,o),
(625,199,cs),
(627,204,o),
(626,207,o),
(622,208,cs)
);
}
);
width = 639;
},
{
anchors = (
{
name = bottom;
pos = (358,0);
},
{
name = top;
pos = (353,660);
}
);
layerId = m002;
shapes = (
{
closed = 1;
nodes = (
(612,225,ls),
(598,232,o),
(592,231,o),
(585,217,cs),
(557,154,o),
(502,74,o),
(372,74,cs),
(241,74,o),
(181,191,o),
(181,362,cs),
(181,460,o),
(223,601,o),
(348,601,cs),
(449,601,o),
(478,522,o),
(478,471,cs),
(478,453,o),
(476,440,o),
(476,430,cs),
(476,419,o),
(484,419,o),
(496,423,cs),
(610,463,ls),
(620,466,o),
(625,470,o),
(625,480,cs),
(625,519,o),
(566,671,o),
(356,671,cs),
(102,671,o),
(31,470,o),
(31,323,cs),
(31,134,o),
(147,-11,o),
(358,-11,cs),
(528,-11,o),
(615,101,o),
(653,193,cs),
(658,203,o),
(653,206,o),
(642,211,cs)
);
}
);
width = 659;
}
);
note = C;
unicode = 67;
},
{
glyphname = D;
kernLeft = B;
kernRight = D;
lastChange = "2025-02-26 16:27:39 +0000";
layers = (
{
anchors = (
{
name = bottom;
pos = (281,0);
},
{
name = top;
pos = (269,660);
}
);
layerId = "6AD408C6-91F3-4F0B-A103-73D10F5280D9";
shapes = (
{
closed = 1;
nodes = (
(40,660,ls),
(31,660,o),
(26,656,o),
(26,647,cs),
(26,640,ls),
(26,632,o),
(31,627,o),
(40,627,cs),
(83,627,o),
(105,599,o),
(105,544,cs),
(105,116,ls),
(105,64,o),
(84,33,o),
(46,33,cs),
(40,33,ls),
(31,33,o),
(26,28,o),
(26,20,cs),
(26,13,ls),
(26,4,o),
(31,0,o),
(40,0,cs),
(265,0,ls),
(466,0,o),
(594,121,o),
(594,331,cs),
(594,535,o),
(451,660,o),
(241,660,cs)
);
},
{
closed = 1;
nodes = (
(188,627,l),
(229,627,ls),
(405,627,o),
(501,501,o),
(501,331,cs),
(501,140,o),
(403,37,o),
(253,37,cs),
(196,37,o),
(188,66,o),
(188,112,cs)
);
}
);
width = 625;
},
{
anchors = (
{
name = bottom;
pos = (321,0);
},
{
name = top;
pos = (309,660);
}
);
layerId = m002;
shapes = (
{
closed = 1;
nodes = (
(40,660,ls),
(31,660,o),
(26,656,o),
(26,647,cs),
(26,620,ls),
(26,612,o),
(31,607,o),
(40,607,cs),
(83,607,o),
(105,579,o),
(105,524,cs),
(105,136,ls),
(105,84,o),
(84,53,o),
(46,53,cs),
(40,53,ls),
(31,53,o),
(26,48,o),
(26,40,cs),
(26,13,ls),
(26,4,o),
(31,0,o),
(40,0,cs),
(335,0,ls),
(536,0,o),
(664,121,o),
(664,331,cs),
(664,535,o),
(521,660,o),
(311,660,cs)
);
},
{
closed = 1;
nodes = (
(245,607,l),
(286,607,ls),
(452,607,o),
(531,501,o),
(531,331,cs),
(531,140,o),
(450,57,o),
(310,57,cs),
(253,57,o),
(245,86,o),
(245,132,cs)
);
}
);
width = 695;
}
);
note = D;
unicode = 68;
},
{
glyphname = Eth;
kernLeft = B;
kernRight = D;
lastChange = "2025-02-26 16:18:05 +0000";
layers = (
{
layerId = "6AD408C6-91F3-4F0B-A103-73D10F5280D9";
shapes = (
{
closed = 1;
nodes = (
(391,307,ls),
(400,307,o),
(404,312,o),
(404,320,cs),
(404,336,ls),
(404,345,o),
(400,350,o),
(391,350,cs),
(40,350,ls),
(31,350,o),
(26,345,o),
(26,336,cs),
(26,320,ls),
(26,312,o),
(31,307,o),
(40,307,cs)
);
},
{
ref = D;
}
);
width = 695;
},
{
layerId = m002;
shapes = (
{
closed = 1;
nodes = (
(411,267,ls),
(420,267,o),
(424,272,o),
(424,280,cs),
(424,356,ls),
(424,365,o),
(420,370,o),
(411,370,cs),
(40,370,ls),
(31,370,o),
(26,365,o),
(26,356,cs),
(26,280,ls),
(26,272,o),
(31,267,o),
(40,267,cs)
);
},
{
ref = D;
}
);
width = 695;
}
);
note = Eth;
unicode = 208;
},
{
glyphname = E;
kernLeft = B;
kernRight = E;
lastChange = "2026-05-05 11:06:34 +0000";
layers = (
{
anchors = (
{
name = bottom;
pos = (309,0);
},
{
name = ogonek;
pos = (501,0);
},
{
name = top;
pos = (301,660);
}
);
layerId = "6AD408C6-91F3-4F0B-A103-73D10F5280D9";
shapes = (
{
closed = 1;
nodes = (
(585,195,ls),
(576,200,o),
(569,197,o),
(566,190,cs),
(563,184,ls),
(505,67,o),
(462,42,o),
(333,42,cs),
(258,42,ls),
(219,42,o),
(188,72,o),
(188,126,cs),
(188,330,l),
(302,330,ls),
(346,330,o),
(366,311,o),
(366,271,cs),
(366,266,ls),
(366,257,o),
(370,253,o),
(379,253,cs),
(385,253,ls),
(394,253,o),
(398,257,o),
(398,266,cs),
(398,436,ls),
(398,445,o),
(394,449,o),
(385,449,cs),
(379,449,ls),
(370,449,o),
(366,445,o),
(366,436,cs),
(366,430,ls),
(366,391,o),
(345,371,o),
(302,371,cs),
(188,371,l),
(188,618,l),
(367,618,ls),
(435,618,o),
(463,600,o),
(508,526,cs),
(511,521,ls),
(514,516,o),
(517,513,o),
(521,513,cs),
(524,513,o),
(526,514,o),
(531,517,cs),
(546,526,ls),
(550,529,o),
(553,532,o),
(553,537,cs),
(553,539,o),
(552,542,o),
(550,545,cs),
(481,664,ls),
(478,669,o),
(474,671,o),
(470,671,cs),
(467,671,o),
(464,671,o),
(462,669,cs),
(457,664,ls),
(453,661,o),
(449,660,o),
(440,660,cs),
(40,660,ls),
(31,660,o),
(26,655,o),
(26,646,cs),
(26,640,ls),
(26,632,o),
(32,626,o),
(40,626,cs),
(84,626,o),
(105,598,o),
(105,543,cs),
(105,116,ls),
(105,60,o),
(84,33,o),
(41,33,cs),
(40,33,ls),
(32,33,o),
(26,28,o),
(26,20,cs),
(26,13,ls),
(26,4,o),
(31,0,o),
(40,0,cs),
(481,0,ls),
(492,0,o),
(495,-1,o),
(499,-4,cs),
(503,-9,ls),
(506,-11,o),
(508,-12,o),
(511,-12,cs),
(515,-12,o),
(519,-10,o),
(521,-4,cs),
(604,170,ls),
(608,179,o),
(608,184,o),
(599,188,cs)
);
}
);
width = 624;
},
{
anchors = (
{
name = bottom;
pos = (329,0);
},
{
name = ogonek;
pos = (521,0);
},
{
name = top;
pos = (321,660);
}
);
layerId = m002;
shapes = (
{
closed = 1;
nodes = (
(611,205,ls),
(604,209,o),
(596,206,o),
(593,200,cs),
(590,194,ls),
(541,96,o),
(492,62,o),
(363,62,cs),
(305,62,ls),
(266,62,o),
(245,92,o),
(245,146,cs),
(245,320,l),
(322,320,ls),
(376,320,o),
(406,301,o),
(406,261,cs),
(406,256,ls),
(406,247,o),
(410,243,o),
(419,243,cs),
(445,243,ls),
(454,243,o),
(458,247,o),
(458,256,cs),
(458,456,ls),
(458,465,o),
(454,469,o),
(445,469,cs),
(419,469,ls),
(410,469,o),
(406,465,o),
(406,456,cs),
(406,450,ls),
(406,411,o),
(375,391,o),
(322,391,cs),
(245,391,l),
(245,598,l),
(387,598,ls),
(455,598,o),
(492,576,o),
(528,516,cs),
(531,511,ls),
(534,506,o),
(537,503,o),
(541,503,cs),
(544,503,o),
(546,504,o),
(551,507,cs),
(586,526,ls),
(590,528,o),
(593,532,o),
(593,537,cs),
(593,539,o),
(592,542,o),
(590,545,cs),
(521,664,ls),
(518,669,o),
(514,671,o),
(510,671,cs),
(507,671,o),
(504,671,o),
(502,669,cs),
(497,664,ls),
(493,660,o),
(489,660,o),
(480,660,cs),
(40,660,ls),
(31,660,o),
(26,655,o),
(26,646,cs),
(26,620,ls),
(26,612,o),
(32,606,o),
(40,606,cs),
(84,606,o),
(105,578,o),
(105,523,cs),
(105,136,ls),
(105,80,o),
(84,53,o),
(41,53,cs),
(40,53,ls),
(32,53,o),
(26,48,o),
(26,40,cs),
(26,13,ls),
(26,4,o),
(31,0,o),
(40,0,cs),
(521,0,ls),
(532,0,o),
(536,0,o),
(539,-4,cs),
(543,-9,ls),
(545,-12,o),
(548,-12,o),
(551,-12,cs),
(555,-12,o),
(558,-10,o),
(561,-4,cs),
(644,170,ls),
(648,179,o),
(648,184,o),
(639,189,cs)
);
}
);
width = 664;
}
);
note = E;
unicode = 69;
},
{
glyphname = Schwa;
kernLeft = C;
kernRight = D;
lastChange = "2025-02-27 09:03:58 +0000";
layers = (
{
background = {
anchors = (
{
name = bottom;
pos = (327.943,0);
},
{
name = top;
pos = (322.943,660);
}
);
};
layerId = "6AD408C6-91F3-4F0B-A103-73D10F5280D9";
shapes = (
{
closed = 1;
nodes = (
(558.943,-11,o),
(639.943,190,o),
(639.943,337,cs),
(639.943,526,o),
(523.943,671,o),
(322.943,671,cs),
(162.943,671,o),
(80.288,565.888,o),
(45.661,461.249,cs),
(43.988,456.195,o),
(44.978,453.133,o),
(48.943,452,cs),
(62.943,448,ls),
(65.983,447.131,o),
(69.263,447.868,o),
(71.188,453.977,cs),
(101.118,548.945,o),
(169.943,641,o),
(312.943,641,cs),
(419.46,641,o),
(491.44,566.53,o),
(522.144,446.926,c),
(78.545,218.397,ls),
(67.804,212.863,o),
(65.943,205.3,o),
(65.943,190,cs),
(65.943,141,o),
(129.943,-11,o),
(314.943,-11,cs)
);
},
{
closed = 1;
nodes = (
(196.099,19,o),
(145.943,112,o),
(145.943,190,cs),
(145.943,197.298,o),
(146.573,205.603,o),
(147.126,212.176,c),
(529.251,414.514,l),
(535.666,379.666,o),
(538.943,341.628,o),
(538.943,301,cs),
(538.943,186,o),
(468.943,19,o),
(314.943,19,cs)
);
}
);
width = 686;
},
{
layerId = m002;
shapes = (
{
closed = 1;
nodes = (
(583,-11,o),
(655,192,o),
(655,339,cs),
(655,528,o),
(539,671,o),
(327,671,cs),
(158,671,o),
(70,561,o),
(33,469,cs),
(29.113,457.339,o),
(31.935,456.354,o),
(43,451,cs),
(74,436,ls),
(86.384,430.008,o),
(94.806,432.129,o),
(100,444,cs),
(128,508,o),
(183,588,o),
(313,588,cs),
(404,588,o),
(460,532,o),
(487,442,c),
(66,255,ls),
(55,250,o),
(53,244,o),
(53,235,cs),
(53,161,o),
(111,-11,o),
(330,-11,cs)
);
},
{
closed = 1;
nodes = (
(237,61,o),
(208,140,o),
(208,202,cs),
(208,205.667,o),
(208,209.333,o),
(208,213,c),
(502,359,l),
(503,340,o),
(504,320,o),
(504,300,cs),
(504,202,o),
(463,61,o),
(337,61,cs)
);
}
);
width = 686;
}
);
unicode = 399;
},
{
glyphname = F;
kernLeft = B;
kernRight = F;
lastChange = "2026-05-05 11:06:54 +0000";
layers = (
{
layerId = "6AD408C6-91F3-4F0B-A103-73D10F5280D9";
shapes = (
{
closed = 1;
nodes = (
(188,322,l),
(295,322,ls),
(361,322,o),
(379,302,o),
(379,263,cs),
(379,257,ls),
(379,248,o),
(383,244,o),
(392,244,cs),
(398,244,ls),
(407,244,o),
(411,248,o),
(411,257,cs),
(411,427,ls),
(411,436,o),
(407,440,o),
(398,440,cs),
(392,440,ls),
(383,440,o),
(379,436,o),
(379,427,cs),
(379,421,ls),
(379,382,o),
(360,362,o),
(295,362,cs),
(188,362,l),
(188,618,l),
(323,618,ls),
(410,618,o),
(456,600,o),
(501,526,cs),
(504,521,ls),
(506,516,o),
(510,513,o),
(514,513,cs),
(517,513,o),
(519,514,o),
(524,517,cs),
(539,526,ls),
(543,529,o),
(546,532,o),
(546,537,cs),
(546,539,o),
(545,542,o),
(543,545,cs),
(474,664,ls),
(471,669,o),
(467,671,o),
(463,671,cs),
(460,671,o),
(457,671,o),
(455,669,cs),
(450,664,ls),
(446,661,o),
(442,660,o),
(433,660,cs),
(40,660,ls),
(31,660,o),
(26,655,o),
(26,646,cs),
(26,640,ls),
(26,632,o),
(32,626,o),
(40,626,cs),
(84,626,o),
(105,598,o),
(105,543,cs),
(105,116,ls),
(105,60,o),
(84,33,o),
(41,33,cs),
(40,33,ls),
(32,33,o),
(26,28,o),
(26,20,cs),
(26,13,ls),
(26,4,o),
(31,0,o),
(40,0,cs),
(254,0,ls),
(262,0,o),
(267,5,o),
(267,13,cs),
(267,20,ls),
(267,28,o),
(262,33,o),
(254,33,cs),
(247,33,ls),
(208,33,o),
(188,64,o),
(188,116,cs)
);
}
);
width = 564;
},
{
associatedMasterId = "6AD408C6-91F3-4F0B-A103-73D10F5280D9";
background = {
shapes = (
{
closed = 1;
nodes = (
(521,664,ls),
(518,670,o),
(514,672,o),
(510,672,cs),
(507,672,o),
(504,671,o),
(502,669,c),
(497,664,ls),
(492,660,o),
(487,660,o),
(480,660,cs),
(40,660,ls),
(31,660,o),
(26,656,o),
(26,647,cs),
(26,620,ls),
(26,612,o),
(31,607,o),
(40,607,cs),
(40,607,ls),
(89,607,o),
(105,571,o),
(105,524,cs),
(105,136,ls),
(105,90,o),
(90,55,o),
(45,53,c),
(40,53,ls),
(31,53,o),
(26,48,o),
(26,40,cs),
(26,13,ls),
(26,4,o),
(31,0,o),
(40,0,cs),
(311,0,ls),
(319,0,o),
(324,4,o),
(324,13,cs),
(324,40,ls),
(324,48,o),
(319,53,o),
(311,53,cs),
(304,53,l),
(260,55,o),
(245,90,o),
(245,136,cs),
(245,312,l),
(322,312,ls),
(368,312,o),
(403,297,o),
(406,253,c),
(406,247,ls),
(406,238,o),
(410,234,o),
(419,234,cs),
(445,234,ls),
(454,234,o),
(458,238,o),
(458,247,cs),
(458,448,ls),
(458,456,o),
(454,461,o),
(445,461,cs),
(419,461,ls),
(410,461,o),
(406,456,o),
(406,448,cs),
(406,442,l),
(403,397,o),
(368,382,o),
(322,382,cs),
(239,382,l),
(239,598,l),
(370,598,ls),
(441,598,o),
(495,573,o),
(528,517,cs),
(531,511,ls),
(533,507,o),
(537,504,o),
(541,504,cs),
(544,504,o),
(546,505,o),
(549,506,cs),
(586,526,ls),
(590,529,o),
(593,532,o),
(593,537,cs),
(593,539,o),
(592,542,o),
(590,545,cs)
);
}
);
};
hints = (
{
horizontal = 1;
place = (0,53);
type = Stem;
},
{
horizontal = 1;
place = (312,70);
type = Stem;
},
{
horizontal = 1;
place = (597,63);
type = Stem;
},
{
place = (104,141);
type = Stem;
},
{
place = (406,53);
type = Stem;
},
{
horizontal = 1;
place = (607,53);
type = Stem;
}
);
layerId = "76796360-02C8-48BF-BFC2-95DDAF482AA0";
name = "23 mars 23 à 14:56";
shapes = (
{
closed = 1;
nodes = (
(521,664,ls),
(517,671,o),
(515,672,o),
(510,672,cs),
(508,672,o),
(505,671,o),
(503,670,cs),
(497,664,ls),
(493,660,o),
(489,660,o),
(480,660,cs),
(40,660,ls),
(31,660,o),
(26,656,o),
(26,647,cs),
(26,620,ls),
(26,612,o),
(31,607,o),
(40,607,cs),
(40,607,ls),
(83,607,o),
(105,579,o),
(105,524,cs),
(105,136,ls),
(105,84,o),
(84,55,o),
(45,53,c),
(40,53,ls),
(31,53,o),
(26,48,o),
(26,40,cs),
(26,13,ls),
(26,4,o),
(31,0,o),
(40,0,cs),
(311,0,ls),
(319,0,o),
(324,5,o),
(324,13,cs),
(324,40,ls),
(324,48,o),
(319,53,o),
(311,53,cs),
(304,53,l),
(265,55,o),
(245,84,o),
(245,136,cs),
(245,312,l),
(322,312,ls),
(375,312,o),
(403,292,o),
(406,253,c),
(406,247,ls),
(406,238,o),
(410,234,o),
(419,234,cs),
(445,234,ls),
(454,234,o),
(458,238,o),
(458,247,cs),
(458,448,ls),
(458,457,o),
(454,461,o),
(445,461,cs),
(419,461,ls),
(411,461,o),
(406,457,o),
(406,448,cs),
(406,442,l),
(403,402,o),
(375,382,o),
(322,382,cs),
(239,382,l),
(239,598,l),
(370,598,ls),
(444,598,o),
(500,574,o),
(528,517,cs),
(531,511,ls),
(533,507,o),
(538,504,o),
(541,504,cs),
(545,504,o),
(548,505,o),
(551,507,cs),
(586,526,ls),
(590,529,o),
(593,532,o),
(593,537,cs),
(593,539,o),
(592,542,o),
(590,545,cs)
);
}
);
width = 611;
},
{
layerId = m002;
shapes = (
{
closed = 1;
nodes = (
(245,312,l),
(322,312,ls),
(376,312,o),
(406,292,o),
(406,253,cs),
(406,247,ls),
(406,238,o),
(410,234,o),
(419,234,cs),
(445,234,ls),
(454,234,o),
(458,238,o),
(458,247,cs),
(458,447,ls),
(458,456,o),
(454,460,o),
(445,460,cs),
(419,460,ls),
(410,460,o),
(406,456,o),
(406,447,cs),
(406,441,ls),
(406,402,o),
(375,382,o),
(322,382,cs),
(245,382,l),
(245,598,l),
(370,598,ls),
(437,598,o),
(492,576,o),
(528,516,cs),
(531,511,ls),
(533,506,o),
(537,503,o),
(541,503,cs),
(544,503,o),
(546,504,o),
(551,507,cs),
(586,526,ls),
(590,529,o),
(593,532,o),
(593,537,cs),
(593,539,o),
(592,542,o),
(590,545,cs),
(521,664,ls),
(518,669,o),
(514,671,o),
(510,671,cs),
(507,671,o),
(504,671,o),
(502,669,cs),
(497,664,ls),
(493,661,o),
(489,660,o),
(480,660,cs),
(40,660,ls),
(31,660,o),
(26,655,o),
(26,646,cs),
(26,620,ls),
(26,612,o),
(32,606,o),
(40,606,cs),
(84,606,o),
(105,578,o),
(105,523,cs),
(105,136,ls),
(105,80,o),
(84,53,o),
(41,53,cs),
(40,53,ls),
(32,53,o),
(26,48,o),
(26,40,cs),
(26,13,ls),
(26,4,o),
(31,0,o),
(40,0,cs),
(311,0,ls),
(319,0,o),
(324,5,o),
(324,13,cs),
(324,40,ls),
(324,48,o),
(319,53,o),
(311,53,cs),
(304,53,ls),
(265,53,o),
(245,84,o),
(245,136,cs)
);
}
);
width = 611;
},
{
associatedMasterId = m002;
background = {
shapes = (
{
closed = 1;
nodes = (
(521,664,ls),
(518,670,o),
(514,672,o),
(510,672,cs),
(507,672,o),
(504,671,o),
(502,669,c),
(497,664,ls),
(492,660,o),
(487,660,o),
(480,660,cs),
(40,660,ls),
(31,660,o),
(26,656,o),
(26,647,cs),
(26,620,ls),
(26,612,o),
(31,607,o),
(40,607,cs),
(40,607,ls),
(89,607,o),
(105,571,o),
(105,524,cs),
(105,136,ls),
(105,90,o),
(90,55,o),
(45,53,c),
(40,53,ls),
(31,53,o),
(26,48,o),
(26,40,cs),
(26,13,ls),
(26,4,o),
(31,0,o),
(40,0,cs),
(311,0,ls),
(319,0,o),
(324,4,o),
(324,13,cs),
(324,40,ls),
(324,48,o),
(319,53,o),
(311,53,cs),
(304,53,l),
(260,55,o),
(245,90,o),
(245,136,cs),
(245,312,l),
(322,312,ls),
(368,312,o),
(403,297,o),
(406,253,c),
(406,247,ls),
(406,238,o),
(410,234,o),
(419,234,cs),
(445,234,ls),
(454,234,o),
(458,238,o),
(458,247,cs),
(458,448,ls),
(458,456,o),
(454,461,o),
(445,461,cs),
(419,461,ls),
(410,461,o),
(406,456,o),
(406,448,cs),
(406,442,l),
(403,397,o),
(368,382,o),
(322,382,cs),
(239,382,l),
(239,598,l),
(370,598,ls),
(441,598,o),
(495,573,o),
(528,517,cs),
(531,511,ls),
(533,507,o),
(537,504,o),
(541,504,cs),
(544,504,o),
(546,505,o),
(549,506,cs),
(586,526,ls),
(590,529,o),
(593,532,o),
(593,537,cs),
(593,539,o),
(592,542,o),
(590,545,cs)
);
}
);
};
hints = (
{
horizontal = 1;
place = (0,53);
type = Stem;
},
{
horizontal = 1;
place = (312,70);
type = Stem;
},
{
horizontal = 1;
place = (597,63);
type = Stem;
},
{
place = (104,141);
type = Stem;
},
{
place = (406,53);
type = Stem;
},
{
horizontal = 1;
place = (607,53);
type = Stem;
}
);
layerId = "AA87C9A6-1058-4B5B-B476-97419F19B0A7";
name = "23 mars 23 à 14:56";
shapes = (
{
closed = 1;
nodes = (
(521,664,ls),
(517,671,o),
(515,672,o),
(510,672,cs),
(508,672,o),
(505,671,o),
(503,670,cs),
(497,664,ls),
(493,660,o),
(489,660,o),
(480,660,cs),
(40,660,ls),
(31,660,o),
(26,656,o),
(26,647,cs),
(26,620,ls),
(26,612,o),
(31,607,o),
(40,607,cs),
(40,607,ls),
(83,607,o),
(105,579,o),
(105,524,cs),
(105,136,ls),
(105,84,o),
(84,55,o),
(45,53,c),
(40,53,ls),
(31,53,o),
(26,48,o),
(26,40,cs),
(26,13,ls),
(26,4,o),
(31,0,o),
(40,0,cs),
(311,0,ls),
(319,0,o),
(324,5,o),
(324,13,cs),
(324,40,ls),
(324,48,o),
(319,53,o),
(311,53,cs),
(304,53,l),
(265,55,o),
(245,84,o),
(245,136,cs),
(245,312,l),
(322,312,ls),
(375,312,o),
(403,292,o),
(406,253,c),
(406,247,ls),
(406,238,o),
(410,234,o),
(419,234,cs),
(445,234,ls),
(454,234,o),
(458,238,o),
(458,247,cs),
(458,448,ls),
(458,457,o),
(454,461,o),
(445,461,cs),
(419,461,ls),
(411,461,o),
(406,457,o),
(406,448,cs),
(406,442,l),
(403,402,o),
(375,382,o),
(322,382,cs),
(239,382,l),
(239,598,l),
(370,598,ls),
(444,598,o),
(500,574,o),
(528,517,cs),
(531,511,ls),
(533,507,o),
(538,504,o),
(541,504,cs),
(545,504,o),
(548,505,o),
(551,507,cs),
(586,526,ls),
(590,529,o),
(593,532,o),
(593,537,cs),
(593,539,o),
(592,542,o),
(590,545,cs)
);
}
);
width = 611;
}
);
note = F;
unicode = 70;
},
{
glyphname = G;
kernLeft = C;
kernRight = G;
lastChange = "2025-02-26 16:27:39 +0000";
layers = (
{
anchors = (
{
name = bottom;
pos = (348,0);
},
{
name = top;
pos = (356,660);
}
);
background = {
shapes = (
{
ref = C;
}
);
};
layerId = "6AD408C6-91F3-4F0B-A103-73D10F5280D9";
shapes = (
{
closed = 1;
nodes = (
(132,474,o),
(202,641,o),
(356,641,cs),
(469,641,o),
(525,565,o),
(525,484,cs),
(525,469,o),
(523,461,o),
(523,455,cs),
(523,447,o),
(528,447,o),
(534,447,cs),
(539,447,o),
(544,449,o),
(549,450,cs),
(590,460,ls),
(600,462,o),
(605,467,o),
(605,477,cs),
(605,514,o),
(568,671,o),
(356,671,cs),
(103,671,o),
(31,471,o),
(31,323,cs),
(31,135,o),
(152,-11,o),
(349,-11,cs),
(483,-11,o),
(578,56,o),
(619,150,c),
(619,266,ls),
(619,286,o),
(625,295,o),
(642,295,cs),
(649,295,ls),
(657,295,o),
(662,299,o),
(662,308,cs),
(662,314,ls),
(662,322,o),
(657,327,o),
(649,327,cs),
(431,327,ls),
(423,327,o),
(418,323,o),
(418,314,cs),
(418,308,ls),
(418,299,o),
(423,295,o),
(431,295,cs),
(438,295,ls),
(483,295,o),
(532,293,o),
(532,193,cs),
(532,126,ls),
(532,54,o),
(424,19,o),
(357,19,cs),
(213,19,o),
(132,157,o),
(132,360,cs)
);
}
);
width = 679;
},
{
anchors = (
{
name = bottom;
pos = (348,0);
},
{
name = top;
pos = (340,660);
}
);
background = {
shapes = (
{
ref = C;
}
);
};
layerId = m002;
shapes = (
{
closed = 1;
nodes = (
(181,503,o),
(247,601,o),
(348,601,cs),
(435,601,o),
(478,540,o),
(478,459,cs),
(478,444,o),
(476,436,o),
(476,430,cs),
(476,422,o),
(481,422,o),
(487,422,cs),
(492,422,o),
(497,423,o),
(502,425,cs),
(610,463,ls),
(620,466,o),
(625,470,o),
(625,480,cs),
(625,517,o),
(568,671,o),
(356,671,cs),
(103,671,o),
(31,471,o),
(31,323,cs),
(31,135,o),
(152,-11,o),
(349,-11,cs),
(483,-11,o),
(578,56,o),
(619,150,c),
(619,246,ls),
(619,266,o),
(625,275,o),
(642,275,cs),
(649,275,ls),
(657,275,o),
(662,279,o),
(662,288,cs),
(662,314,ls),
(662,322,o),
(657,327,o),
(649,327,cs),
(371,327,ls),
(363,327,o),
(358,323,o),
(358,314,cs),
(358,288,ls),
(358,279,o),
(363,275,o),
(371,275,cs),
(378,275,ls),
(423,275,o),
(472,273,o),
(472,173,cs),
(472,128,ls),
(472,86,o),
(410,74,o),
(371,74,cs),
(235,74,o),
(181,231,o),
(181,362,cs)
);
}
);
width = 679;
}
);
note = G;
unicode = 71;
},
{
glyphname = H;
kernLeft = B;
kernRight = H;
lastChange = "2025-02-26 16:27:39 +0000";
layers = (
{
anchors = (
{
name = bottom;
pos = (353,0);
},
{
name = top;
pos = (353,660);
}
);
layerId = "6AD408C6-91F3-4F0B-A103-73D10F5280D9";
shapes = (
{
closed = 1;
nodes = (
(601,544,ls),
(601,590,o),
(615,627,o),
(660,627,cs),
(666,627,ls),
(674,627,o),
(679,632,o),
(679,640,cs),
(679,647,ls),
(679,656,o),
(674,660,o),
(666,660,cs),
(452,660,ls),
(444,660,o),
(439,656,o),
(439,647,cs),
(439,640,ls),
(439,632,o),
(444,627,o),
(452,627,cs),
(458,627,ls),
(503,627,o),
(518,590,o),
(518,544,cs),
(518,361,l),
(187,361,l),
(187,544,ls),
(187,590,o),
(202,627,o),
(246,627,cs),
(252,627,ls),
(261,627,o),
(265,632,o),
(265,640,cs),
(265,647,ls),
(265,656,o),
(261,660,o),
(252,660,cs),
(40,660,ls),
(31,660,o),
(26,656,o),
(26,647,cs),
(26,640,ls),
(26,632,o),
(31,627,o),
(40,627,cs),
(45,627,ls),
(90,627,o),
(104,590,o),
(104,544,cs),
(104,116,ls),
(104,70,o),
(90,33,o),
(45,33,cs),
(40,33,ls),
(31,33,o),
(26,28,o),
(26,20,cs),
(26,13,ls),
(26,4,o),
(31,0,o),
(40,0,cs),
(252,0,ls),
(261,0,o),
(265,4,o),
(265,13,cs),
(265,20,ls),
(265,28,o),
(261,33,o),
(252,33,cs),
(246,33,ls),
(202,33,o),
(187,70,o),
(187,116,cs),
(187,324,l),
(518,324,l),
(518,116,ls),
(518,70,o),
(503,33,o),
(458,33,cs),
(452,33,ls),
(444,33,o),
(439,28,o),
(439,20,cs),
(439,13,ls),
(439,4,o),
(444,0,o),
(452,0,cs),
(666,0,ls),
(674,0,o),
(679,4,o),
(679,13,cs),
(679,20,ls),
(679,28,o),
(674,33,o),
(666,33,cs),
(660,33,ls),
(615,33,o),
(601,70,o),
(601,116,cs)
);
}
);
width = 705;
},
{
anchors = (
{
name = bottom;
pos = (395,0);
},
{
name = top;
pos = (395,660);
}
);
layerId = m002;
shapes = (
{
closed = 1;
nodes = (
(686,524,ls),
(686,570,o),
(700,607,o),
(745,607,cs),
(751,607,ls),
(759,607,o),
(764,612,o),
(764,620,cs),
(764,647,ls),
(764,656,o),
(759,660,o),
(751,660,cs),
(480,660,ls),
(472,660,o),
(467,656,o),
(467,647,cs),
(467,620,ls),
(467,612,o),
(472,607,o),
(480,607,cs),
(486,607,ls),
(531,607,o),
(546,570,o),
(546,524,cs),
(546,373,l),
(245,373,l),
(245,524,ls),
(245,570,o),
(260,607,o),
(304,607,cs),
(310,607,ls),
(319,607,o),
(323,612,o),
(323,620,cs),
(323,647,ls),
(323,656,o),
(319,660,o),
(310,660,cs),
(40,660,ls),
(31,660,o),
(26,656,o),
(26,647,cs),
(26,620,ls),
(26,612,o),
(31,607,o),
(40,607,cs),
(45,607,ls),
(90,607,o),
(104,570,o),
(104,524,cs),
(104,136,ls),
(104,90,o),
(90,53,o),
(45,53,cs),
(40,53,ls),
(31,53,o),
(26,48,o),
(26,40,cs),
(26,13,ls),
(26,4,o),
(31,0,o),
(40,0,cs),
(310,0,ls),
(319,0,o),
(323,4,o),
(323,13,cs),
(323,40,ls),
(323,48,o),
(319,53,o),
(310,53,cs),
(304,53,ls),
(260,53,o),
(245,90,o),
(245,136,cs),
(245,304,l),
(546,304,l),
(546,136,ls),
(546,90,o),
(531,53,o),
(486,53,cs),
(480,53,ls),
(472,53,o),
(467,48,o),
(467,40,cs),
(467,13,ls),
(467,4,o),
(472,0,o),
(480,0,cs),
(751,0,ls),
(759,0,o),
(764,4,o),
(764,13,cs),
(764,40,ls),
(764,48,o),
(759,53,o),
(751,53,cs),
(745,53,ls),
(700,53,o),
(686,90,o),
(686,136,cs)
);
}
);
width = 790;
}
);
note = H;
unicode = 72;
},
{
glyphname = Hbar;
kernLeft = B;
kernRight = H;
lastChange = "2025-02-27 12:05:54 +0000";
layers = (
{
layerId = "6AD408C6-91F3-4F0B-A103-73D10F5280D9";
shapes = (
{
ref = H;
},
{
closed = 1;
nodes = (
(653.5,440,ls),
(662.5,440,o),
(666.5,444,o),
(666.5,453,cs),
(666.5,467,ls),
(666.5,476,o),
(662.5,480,o),
(653.5,480,cs),
(51.5,480,ls),
(43.5,480,o),
(38.5,476,o),
(38.5,467,cs),
(38.5,453,ls),
(38.5,444,o),
(43.5,440,o),
(51.5,440,cs)
);
}
);
width = 705;
},
{
layerId = m002;
shapes = (
{
ref = H;
},
{
closed = 1;
nodes = (
(756,440,ls),
(765,440,o),
(769,444,o),
(769,453,cs),
(769,497,ls),
(769,506,o),
(765,510,o),
(756,510,cs),
(34,510,ls),
(26,510,o),
(21,506,o),
(21,497,cs),
(21,453,ls),
(21,444,o),
(26,440,o),
(34,440,cs)
);
}
);
width = 790;
}
);
note = Hbar;
unicode = 294;
},
{
glyphname = I;
kernLeft = I;
kernRight = I;
lastChange = "2025-02-26 16:27:39 +0000";
layers = (
{
anchors = (
{
name = bottom;
pos = (149,0);
},
{
name = ogonek;
pos = (255,0);
},
{
name = top;
pos = (149,660);
}
);
layerId = "6AD408C6-91F3-4F0B-A103-73D10F5280D9";
shapes = (
{
closed = 1;
nodes = (
(191,544,ls),
(191,590,o),
(206,627,o),
(250,627,cs),
(255,627,ls),
(264,627,o),
(268,632,o),
(268,640,cs),
(268,647,ls),
(268,656,o),
(264,660,o),
(255,660,cs),
(43,660,ls),
(34,660,o),
(30,656,o),
(30,647,cs),
(30,640,ls),
(30,632,o),
(34,627,o),
(43,627,cs),
(49,627,ls),
(94,627,o),
(108,590,o),
(108,544,cs),
(108,116,ls),
(108,70,o),
(94,33,o),
(49,33,cs),
(43,33,ls),
(34,33,o),
(30,28,o),
(30,20,cs),
(30,13,ls),
(30,4,o),
(34,0,o),
(43,0,cs),
(255,0,ls),
(264,0,o),
(268,4,o),
(268,13,cs),
(268,20,ls),
(268,28,o),
(264,33,o),
(255,33,cs),
(250,33,ls),
(206,33,o),
(191,70,o),
(191,116,cs)
);
}
);
width = 298;
},
{
anchors = (
{
name = bottom;
pos = (180,0);
},
{
name = ogonek;
pos = (314,0);
},
{
name = top;
pos = (180,660);
}
);
layerId = m002;
shapes = (
{
closed = 1;
nodes = (
(250,524,ls),
(250,570,o),
(265,607,o),
(309,607,cs),
(314,607,ls),
(323,607,o),
(327,612,o),
(327,620,cs),
(327,647,ls),
(327,656,o),
(323,660,o),
(314,660,cs),
(44,660,ls),
(35,660,o),
(31,656,o),
(31,647,cs),
(31,620,ls),
(31,612,o),
(35,607,o),
(44,607,cs),
(50,607,ls),
(95,607,o),
(109,570,o),
(109,524,cs),
(109,136,ls),
(109,90,o),
(95,53,o),
(50,53,cs),
(44,53,ls),
(35,53,o),
(31,48,o),
(31,40,cs),
(31,13,ls),
(31,4,o),
(35,0,o),
(44,0,cs),
(314,0,ls),
(323,0,o),
(327,4,o),
(327,13,cs),
(327,40,ls),
(327,48,o),
(323,53,o),
(314,53,cs),
(309,53,ls),
(265,53,o),
(250,90,o),
(250,136,cs)
);
}
);
width = 358;
}
);
note = I;
unicode = 73;
},
{
glyphname = J;
kernLeft = J;
kernRight = IJ;
lastChange = "2025-02-26 16:27:39 +0000";
layers = (
{
anchors = (
{
name = top;
pos = (256,660);
}
);
layerId = "6AD408C6-91F3-4F0B-A103-73D10F5280D9";
shapes = (
{
closed = 1;
nodes = (
(154,660,ls),
(146,660,o),
(141,656,o),
(141,647,cs),
(141,640,ls),
(141,632,o),
(146,627,o),
(154,627,cs),
(160,627,ls),
(205,627,o),
(220,590,o),
(220,544,cs),
(220,133,ls),
(220,46,o),
(191,18,o),
(156,18,cs),
(103,18,o),
(97,67,o),
(97,98,cs),
(97,119,o),
(99,157,o),
(99,166,cs),
(99,174,o),
(96,178,o),
(91,178,cs),
(87,178,o),
(84,177,o),
(78,173,cs),
(18,135,ls),
(9,129,o),
(4,123,o),
(4,114,cs),
(4,89,o),
(35,-11,o),
(156,-11,cs),
(267,-11,o),
(303,61,o),
(303,162,cs),
(303,544,ls),
(303,589,o),
(318,627,o),
(363,627,cs),
(368,627,ls),
(377,627,o),
(381,632,o),
(381,640,cs),
(381,647,ls),
(381,656,o),
(377,660,o),
(368,660,cs)
);
}
);
width = 403;
},
{
anchors = (
{
name = top;
pos = (291,660);
}
);
layerId = m002;
shapes = (
{
closed = 1;
nodes = (
(156,660,ls),
(148,660,o),
(143,656,o),
(143,647,cs),
(143,620,ls),
(143,612,o),
(148,607,o),
(156,607,cs),
(162,607,ls),
(207,607,o),
(222,570,o),
(222,524,cs),
(222,113,ls),
(222,76,o),
(203,48,o),
(168,48,cs),
(125,48,o),
(119,97,o),
(119,128,cs),
(119,149,o),
(121,157,o),
(121,166,cs),
(121,174,o),
(118,178,o),
(113,178,cs),
(109,178,o),
(106,177,o),
(100,173,cs),
(18,129,ls),
(9,124,o),
(4,117,o),
(4,108,cs),
(4,83,o),
(47,-11,o),
(168,-11,cs),
(319,-11,o),
(362,91,o),
(362,192,cs),
(362,524,ls),
(362,569,o),
(377,607,o),
(422,607,cs),
(427,607,ls),
(436,607,o),
(440,612,o),
(440,620,cs),
(440,647,ls),
(440,656,o),
(436,660,o),
(427,660,cs)
);
}
);
width = 462;
}
);
note = J;
unicode = 74;
},
{
glyphname = K;
kernLeft = B;
kernRight = K;
lastChange = "2025-02-27 13:11:43 +0000";
layers = (
{
anchors = (
{
name = bottom;
pos = (330,0);
}
);
background = {
anchors = (
{
name = bottom;
pos = (330,0);
}
);
shapes = (
{
closed = 1;
nodes = (
(649,53,ls),
(618,53,o),
(616,55,o),
(562,136,cs),
(379,410,l),
(508,549,ls),
(551,596,o),
(570,607,o),
(606,607,cs),
(616,607,ls),
(623,607,o),
(628,612,o),
(628,620,cs),
(628,647,ls),
(628,656,o),
(622,660,o),
(614,660,cs),
(392,660,ls),
(384,660,o),
(379,655,o),
(379,647,cs),
(379,620,ls),
(379,612,o),
(383,607,o),
(390,607,cs),
(408,607,ls),
(419,607,o),
(426,601,o),
(426,591,cs),
(426,585,o),
(424,577,o),
(417,570,cs),
(176,302,l),
(218,286,l),
(218,523,ls),
(218,578,o),
(238,607,o),
(276,607,cs),
(283,607,ls),
(291,607,o),
(296,612,o),
(296,620,cs),
(296,647,ls),
(296,656,o),
(291,660,o),
(283,660,cs),
(12,660,ls),
(3,660,o),
(-2,656,o),
(-2,647,cs),
(-2,620,ls),
(-2,612,o),
(3,607,o),
(12,607,cs),
(19,607,ls),
(56,607,o),
(77,578,o),
(77,524,cs),
(77,136,ls),
(77,81,o),
(56,53,o),
(18,53,cs),
(12,53,ls),
(3,53,o),
(-2,48,o),
(-2,40,cs),
(-2,13,ls),
(-2,4,o),
(3,0,o),
(12,0,cs),
(282,0,ls),
(291,0,o),
(295,4,o),
(295,13,cs),
(295,40,ls),
(295,48,o),
(291,53,o),
(282,53,cs),
(276,53,ls),
(238,53,o),
(218,82,o),
(218,136,cs),
(218,300,l),
(176,190,l),
(292,318,l),
(421,136,ls),
(431,121,o),
(437,107,o),
(437,94,cs),
(437,70,o),
(417,53,o),
(389,53,cs),
(384,53,ls),
(375,53,o),
(371,48,o),
(371,40,cs),
(371,13,ls),
(371,4,o),
(375,0,o),
(384,0,cs),
(654,0,ls),
(663,0,o),
(667,4,o),
(667,13,cs),
(667,40,ls),
(667,48,o),
(663,53,o),
(654,53,cs)
);
}
);
};
layerId = "6AD408C6-91F3-4F0B-A103-73D10F5280D9";
shapes = (
{
closed = 1;
nodes = (
(252,0,ls),
(261,0,o),
(265,4,o),
(265,13,cs),
(265,20,ls),
(265,28,o),
(261,33,o),
(252,33,cs),
(246,33,ls),
(208,33,o),
(188,62,o),
(188,116,cs),
(188,265.689,l),
(146,190,l),
(304,365,l),
(281,369,l),
(467,103,ls),
(494,65,o),
(481,33,o),
(427,33,cs),
(422,33,ls),
(413,33,o),
(409,28,o),
(409,20,cs),
(409,13,ls),
(409,4,o),
(413,0,o),
(422,0,cs),
(637,0,ls),
(646,0,o),
(650,4,o),
(650,13,cs),
(650,20,ls),
(650,28,o),
(646,33,o),
(637,33,cs),
(632,33,ls),
(601,33,o),
(601,37,o),
(545,116,cs),
(342,403,l),
(478,549,ls),
(532,607,o),
(540,627,o),
(576,627,cs),
(586,627,ls),
(593,627,o),
(598,632,o),
(598,640,cs),
(598,647,ls),
(598,656,o),
(592,660,o),
(584,660,cs),
(402,660,ls),
(394,660,o),
(389,655,o),
(389,647,cs),
(389,640,ls),
(389,632,o),
(393,627,o),
(400,627,cs),
(428,627,ls),
(460,627,o),
(462.372,607.672,o),
(450,594,cs),
(164.957,278.998,l),
(188,278.998,l),
(188,543,ls),
(188,598,o),
(208,627,o),
(246,627,cs),
(253,627,ls),
(261,627,o),
(266,632,o),
(266,640,cs),
(266,647,ls),
(266,656,o),
(261,660,o),
(253,660,cs),
(40,660,ls),
(31,660,o),
(26,656,o),
(26,647,cs),
(26,640,ls),
(26,632,o),
(31,627,o),
(40,627,cs),
(47,627,ls),
(84,627,o),
(105,598,o),
(105,544,cs),
(105,116,ls),
(105,61,o),
(84,33,o),
(46,33,cs),
(40,33,ls),
(31,33,o),
(26,28,o),
(26,20,cs),
(26,13,ls),
(26,4,o),
(31,0,o),
(40,0,cs)
);
}
);
width = 657;
},
{
anchors = (
{
name = bottom;
pos = (358,0);
}
);
layerId = m002;
shapes = (
{
closed = 1;
nodes = (
(310,0,ls),
(319,0,o),
(323,4,o),
(323,13,cs),
(323,40,ls),
(323,48,o),
(319,53,o),
(310,53,cs),
(304,53,ls),
(266,53,o),
(246,82,o),
(246,136,cs),
(246,268.617,l),
(204,190,l),
(362,365,l),
(284,369,l),
(471,102,ls),
(486,80,o),
(471,53,o),
(417,53,cs),
(412,53,ls),
(403,53,o),
(399,48,o),
(399,40,cs),
(399,13,ls),
(399,4,o),
(403,0,o),
(412,0,cs),
(682,0,ls),
(691,0,o),
(695,4,o),
(695,13,cs),
(695,40,ls),
(695,48,o),
(691,53,o),
(682,53,cs),
(677,53,ls),
(646,53,o),
(644,55,o),
(590,136,cs),
(407,410,l),
(536,549,ls),
(579,596,o),
(598,607,o),
(634,607,cs),
(644,607,ls),
(651,607,o),
(656,612,o),
(656,620,cs),
(656,647,ls),
(656,656,o),
(650,660,o),
(642,660,cs),
(420,660,ls),
(412,660,o),
(407,655,o),
(407,647,cs),
(407,620,ls),
(407,612,o),
(411,607,o),
(418,607,cs),
(436,607,ls),
(458,607,o),
(459,584,o),
(445,570,cs),
(204,302,l),
(246,299.93,l),
(246,523,ls),
(246,578,o),
(266,607,o),
(304,607,cs),
(311,607,ls),
(319,607,o),
(324,612,o),
(324,620,cs),
(324,647,ls),
(324,656,o),
(319,660,o),
(311,660,cs),
(40,660,ls),
(31,660,o),
(26,656,o),
(26,647,cs),
(26,620,ls),
(26,612,o),
(31,607,o),
(40,607,cs),
(47,607,ls),
(84,607,o),
(105,578,o),
(105,524,cs),
(105,136,ls),
(105,81,o),
(84,53,o),
(46,53,cs),
(40,53,ls),
(31,53,o),
(26,48,o),
(26,40,cs),
(26,13,ls),
(26,4,o),
(31,0,o),
(40,0,cs)
);
}
);
width = 702;
}
);
note = K;
unicode = 75;
},
{
glyphname = L;
kernLeft = B;
kernRight = E;
lastChange = "2026-05-05 11:05:53 +0000";
layers = (
{
anchors = (
{
name = bottom;
pos = (282,0);
},
{
name = middle;
pos = (325,314);
},
{
name = top;
pos = (146,660);
}
);
layerId = "6AD408C6-91F3-4F0B-A103-73D10F5280D9";
shapes = (
{
closed = 1;
nodes = (
(550,192,ls),
(548,193,o),
(545,195,o),
(542,195,cs),
(537,195,o),
(534,192,o),
(532,187,cs),
(529,181,ls),
(470,63,o),
(368,32,o),
(283,32,cs),
(248,32,ls),
(209,32,o),
(188,62,o),
(188,116,cs),
(188,626,l),
(250,626,ls),
(260,626,o),
(266,632,o),
(266,640,cs),
(266,646,ls),
(266,654,o),
(259,660,o),
(249,660,cs),
(40,660,ls),
(31,660,o),
(26,655,o),
(26,646,cs),
(26,640,ls),
(26,632,o),
(32,626,o),
(40,626,cs),
(84,626,o),
(105,598,o),
(105,543,cs),
(105,116,ls),
(105,61,o),
(84,33,o),
(40,33,cs),
(32,33,o),
(26,28,o),
(26,20,cs),
(26,13,ls),
(26,4,o),
(31,0,o),
(40,0,cs),
(440,0,ls),
(451,0,o),
(455,-1,o),
(458,-4,cs),
(465,-11,o),
(468,-12,o),
(470,-12,cs),
(475,-12,o),
(478,-10,o),
(481,-4,cs),
(564,170,ls),
(566,175,o),
(566,177,o),
(566,178,cs),
(566,184,o),
(563,185,o),
(558,188,cs)
);
}
);
width = 575;
},
{
anchors = (
{
name = bottom;
pos = (316,0);
},
{
name = middle;
pos = (411,279);
},
{
name = top;
pos = (174,660);
}
);
layerId = m002;
shapes = (
{
closed = 1;
nodes = (
(570,205,ls),
(568,207,o),
(565,208,o),
(562,208,cs),
(557,208,o),
(554,205,o),
(552,200,cs),
(549,194,ls),
(498,92,o),
(425,62,o),
(340,62,cs),
(305,62,ls),
(266,62,o),
(245,92,o),
(245,146,cs),
(245,606,l),
(307,606,ls),
(317,606,o),
(323,612,o),
(323,620,cs),
(323,646,ls),
(323,654,o),
(316,660,o),
(306,660,cs),
(40,660,ls),
(31,660,o),
(26,655,o),
(26,646,cs),
(26,620,ls),
(26,612,o),
(32,606,o),
(40,606,cs),
(84,606,o),
(105,578,o),
(105,523,cs),
(105,136,ls),
(105,81,o),
(84,53,o),
(40,53,cs),
(32,53,o),
(26,48,o),
(26,40,cs),
(26,13,ls),
(26,4,o),
(31,0,o),
(40,0,cs),
(480,0,ls),
(491,0,o),
(495,-1,o),
(498,-4,cs),
(505,-11,o),
(508,-12,o),
(510,-12,cs),
(515,-12,o),
(518,-10,o),
(521,-4,cs),
(604,170,ls),
(606,175,o),
(606,177,o),
(606,178,cs),
(606,184,o),
(604,186,o),
(598,188,cs)
);
}
);
width = 615;
}
);
note = L;
unicode = 76;
},
{
glyphname = Lslash;
kernLeft = B;
kernRight = E;
lastChange = "2025-02-26 16:18:05 +0000";
layers = (
{
layerId = "6AD408C6-91F3-4F0B-A103-73D10F5280D9";
shapes = (
{
closed = 1;
nodes = (
(20,330,ls),
(13.188,327.431,o),
(11,323,o),
(11,315,cs),
(11,295,ls),
(11,287,o),
(13,283,o),
(18,283,cs),
(21,283,o),
(23.907,283.214,o),
(26,284,cs),
(323.918,396,ls),
(331.047,398.68,o),
(332.918,403,o),
(332.918,411,cs),
(332.918,432,ls),
(332.918,440,o),
(330.918,444,o),
(324.918,444,cs),
(322.918,444,o),
(319.877,443.116,o),
(316.918,442,cs)
);
},
{
ref = L;
}
);
width = 624;
},
{
layerId = m002;
shapes = (
{
closed = 1;
nodes = (
(20,350,ls),
(13,348,o),
(11,343,o),
(11,335,cs),
(11,265,ls),
(11,257,o),
(13,253,o),
(18,253,cs),
(21,253,o),
(24,253,o),
(26,254,cs),
(355,378,ls),
(362,381,o),
(364,385,o),
(364,393,cs),
(364,464,ls),
(364,472,o),
(362,476,o),
(356,476,cs),
(354,476,o),
(351,475,o),
(348,474,cs)
);
},
{
ref = L;
}
);
width = 624;
}
);
note = Lslash;
unicode = 321;
},
{
glyphname = M;
kernLeft = B;
kernRight = H;
lastChange = "2026-05-05 07:53:04 +0000";
layers = (
{
anchors = (
{
name = bottom;
pos = (431,0);
},
{
name = top;
pos = (431,660);
}
);
layerId = "6AD408C6-91F3-4F0B-A103-73D10F5280D9";
shapes = (
{
closed = 1;
nodes = (
(757,614,l),
(774,624,o),
(792,627,o),
(812,627,cs),
(820,627,o),
(825,632,o),
(825,640,cs),
(825,647,ls),
(825,656,o),
(820,660,o),
(812,660,cs),
(701,660,ls),
(694,660,o),
(688,658,o),
(685,652,cs),
(413,102,l),
(429,102,l),
(178,652,ls),
(175,658,o),
(170,660,o),
(163,660,cs),
(50,660,ls),
(41,660,o),
(37,656,o),
(37,647,cs),
(37,640,ls),
(37,632,o),
(41,627,o),
(50,627,cs),
(70,627,o),
(88,624,o),
(105,614,c),
(105,116,ls),
(105,69,o),
(83,33,o),
(40,33,cs),
(31,33,o),
(26,28,o),
(26,20,cs),
(26,13,ls),
(26,4,o),
(31,0,o),
(40,0,cs),
(217,0,ls),
(225,0,o),
(230,4,o),
(230,13,cs),
(230,20,ls),
(230,28,o),
(225,33,o),
(217,33,cs),
(174,33,o),
(153,69,o),
(153,116,cs),
(153,586,l),
(128,602,l),
(380,49,ls),
(383,43,o),
(388,40,o),
(395,40,cs),
(446,40,ls),
(453,40,o),
(458,43,o),
(461,49,cs),
(734,601,l),
(709,586,l),
(709,116,ls),
(709,69,o),
(688,33,o),
(645,33,cs),
(637,33,o),
(632,28,o),
(632,20,cs),
(632,13,ls),
(632,4,o),
(637,0,o),
(645,0,cs),
(822,0,ls),
(831,0,o),
(835,4,o),
(835,13,cs),
(835,20,ls),
(835,28,o),
(831,33,o),
(822,33,cs),
(779,33,o),
(757,69,o),
(757,116,cs)
);
}
);
width = 861;
},
{
anchors = (
{
name = bottom;
pos = (456,0);
},
{
name = top;
pos = (456,660);
}
);
layerId = m002;
shapes = (
{
closed = 1;
nodes = (
(807,594,l),
(824,604,o),
(842,607,o),
(862,607,cs),
(870,607,o),
(875,612,o),
(875,620,cs),
(875,647,ls),
(875,656,o),
(870,660,o),
(862,660,cs),
(696,660,ls),
(689,660,o),
(683,658,o),
(680,652,cs),
(428,142,l),
(484,142,l),
(231,652,ls),
(229,658,o),
(223,660,o),
(216,660,cs),
(50,660,ls),
(41,660,o),
(37,656,o),
(37,647,cs),
(37,620,ls),
(37,612,o),
(41,607,o),
(50,607,cs),
(70,607,o),
(88,604,o),
(105,594,c),
(105,136,ls),
(105,89,o),
(83,53,o),
(40,53,cs),
(31,53,o),
(26,48,o),
(26,40,cs),
(26,13,ls),
(26,4,o),
(31,0,o),
(40,0,cs),
(257,0,ls),
(265,0,o),
(270,4,o),
(270,13,cs),
(270,40,ls),
(270,48,o),
(265,53,o),
(257,53,cs),
(214,53,o),
(193,89,o),
(193,136,cs),
(193,533,l),
(165,527,l),
(400,49,ls),
(403,43,o),
(408,40,o),
(415,40,cs),
(496,40,ls),
(503,40,o),
(509,43,o),
(511,49,cs),
(747,526,l),
(719,533,l),
(719,136,ls),
(719,89,o),
(698,53,o),
(655,53,cs),
(647,53,o),
(642,48,o),
(642,40,cs),
(642,13,ls),
(642,4,o),
(647,0,o),
(655,0,cs),
(872,0,ls),
(881,0,o),
(885,4,o),
(885,13,cs),
(885,40,ls),
(885,48,o),
(881,53,o),
(872,53,cs),
(829,53,o),
(807,89,o),
(807,136,cs)
);
}
);
width = 912;
}
);
note = M;
unicode = 77;
},
{
glyphname = N;
kernLeft = B;
kernRight = N;
lastChange = "2026-05-05 11:07:38 +0000";
layers = (
{
anchors = (
{
name = bottom;
pos = (371,0);
},
{
name = top;
pos = (371,660);
}
);
layerId = "6AD408C6-91F3-4F0B-A103-73D10F5280D9";
shapes = (
{
closed = 1;
nodes = (
(496.644,660,ls),
(487.644,660,o),
(483.644,656,o),
(483.644,647,cs),
(483.644,640,ls),
(483.644,632,o),
(487.644,627,o),
(496.644,627,cs),
(539.644,627,o),
(561.644,592,o),
(561.644,544,cs),
(561.644,54,l),
(604,54,l),
(166,652,ls),
(162,657,o),
(158,660,o),
(151,660,cs),
(48,660,ls),
(40,660,o),
(35,656,o),
(35,647,cs),
(35,640,ls),
(35,632,o),
(40,627,o),
(48,627,cs),
(70,627,o),
(86,620,o),
(104,605,c),
(104,116,ls),
(104,69,o),
(83,33,o),
(40,33,cs),
(31,33,o),
(26,28,o),
(26,20,cs),
(26,13,ls),
(26,4,o),
(31,0,o),
(40,0,cs),
(217,0,ls),
(225,0,o),
(230,4,o),
(230,13,cs),
(230,20,ls),
(230,28,o),
(225,33,o),
(217,33,cs),
(174,33,o),
(152,69,o),
(152,116,cs),
(152,610,l),
(128,582,l),
(548,8,ls),
(552,3,o),
(557,0,o),
(564,0,cs),
(596.644,0,ls),
(604.644,0,o),
(609.644,4,o),
(609.644,13,cs),
(609.644,544,ls),
(609.644,592,o),
(630.644,627,o),
(673.644,627,cs),
(682.644,627,o),
(686.644,632,o),
(686.644,640,cs),
(686.644,647,ls),
(686.644,656,o),
(682.644,660,o),
(673.644,660,cs)
);
}
);
width = 695.64;
},
{
anchors = (
{
name = bottom;
pos = (401,0);
},
{
name = top;
pos = (401,660);
}
);
layerId = m002;
shapes = (
{
closed = 1;
nodes = (
(545,660,ls),
(536,660,o),
(532,656,o),
(532,647,cs),
(532,620,ls),
(532,612,o),
(536,607,o),
(545,607,cs),
(588,607,o),
(610,572,o),
(610,524,cs),
(610,140,l),
(652,156,l),
(216,652,ls),
(212,657,o),
(208,660,o),
(201,660,cs),
(48,660,ls),
(40,660,o),
(35,656,o),
(35,647,cs),
(35,620,ls),
(35,612,o),
(40,607,o),
(48,607,cs),
(70,607,o),
(86,600,o),
(104,585,c),
(104,136,ls),
(104,89,o),
(83,53,o),
(40,53,cs),
(31,53,o),
(26,48,o),
(26,40,cs),
(26,13,ls),
(26,4,o),
(31,0,o),
(40,0,cs),
(257,0,ls),
(265,0,o),
(270,4,o),
(270,13,cs),
(270,40,ls),
(270,48,o),
(265,53,o),
(257,53,cs),
(214,53,o),
(192,89,o),
(192,136,cs),
(192,550,l),
(151,535,l),
(608,8,ls),
(612,3,o),
(617,0,o),
(624,0,cs),
(685,0,ls),
(693,0,o),
(698,4,o),
(698,13,cs),
(698,524,ls),
(698,572,o),
(719,607,o),
(762,607,cs),
(771,607,o),
(775,612,o),
(775,620,cs),
(775,647,ls),
(775,656,o),
(771,660,o),
(762,660,cs)
);
}
);
width = 784;
}
);
note = N;
unicode = 78;
},
{
glyphname = Nhookleft;
kernLeft = B;
kernRight = N;
lastChange = "2025-02-26 16:38:09 +0000";
layers = (
{
anchors = (
{
name = bottom;
pos = (405,0);
},
{
name = top;
pos = (400,660);
}
);
layerId = "6AD408C6-91F3-4F0B-A103-73D10F5280D9";
shapes = (
{
closed = 1;
nodes = (
(145,-188,o),
(152,-100,o),
(152,0,cs),
(152,610,l),
(128,582,l),
(548,8,ls),
(552,3,o),
(557,0,o),
(564,0,cs),
(625,0,ls),
(633,0,o),
(638,4,o),
(638,13,cs),
(638,544,ls),
(638,592,o),
(659,627,o),
(702,627,cs),
(711,627,o),
(715,632,o),
(715,640,cs),
(715,647,ls),
(715,656,o),
(711,660,o),
(702,660,cs),
(525,660,ls),
(516,660,o),
(512,656,o),
(512,647,cs),
(512,640,ls),
(512,632,o),
(516,627,o),
(525,627,cs),
(568,627,o),
(590,592,o),
(590,544,cs),
(590,54,l),
(604,54,l),
(166,652,ls),
(162,657,o),
(158,660,o),
(151,660,cs),
(48,660,ls),
(40,660,o),
(35,656,o),
(35,647,cs),
(35,640,ls),
(35,632,o),
(40,627,o),
(48,627,cs),
(70,627,o),
(86,620,o),
(104,605,c),
(104,0,ls),
(104,-72,o),
(103.904,-161.76,o),
(46.953,-161.76,cs),
(18.819,-161.76,o),
(7.335,-151.792,o),
(3.811,-163.422,cs),
(1.585,-170.768,ls),
(-0.976,-179.22,o),
(0.762,-180.847,o),
(6.999,-182.829,cs),
(16.107,-185.723,o),
(37.984,-188,o),
(51.35,-188,cs)
);
}
);
width = 724;
},
{
anchors = (
{
name = bottom;
pos = (405,0);
},
{
name = top;
pos = (400,660);
}
);
layerId = m002;
shapes = (
{
closed = 1;
nodes = (
(185,-188,o),
(192,-100,o),
(192,0,cs),
(192,550,l),
(150.69,534.566,l),
(608,8,ls),
(612,3,o),
(617,0,o),
(624,0,cs),
(685,0,ls),
(693,0,o),
(698,4,o),
(698,13,cs),
(698,524,ls),
(698,572,o),
(719,607,o),
(762,607,cs),
(771,607,o),
(775,612,o),
(775,620,cs),
(775,647,ls),
(775,656,o),
(771,660,o),
(762,660,cs),
(545,660,ls),
(536,660,o),
(532,656,o),
(532,647,cs),
(532,620,ls),
(532,612,o),
(536,607,o),
(545,607,cs),
(588,607,o),
(610,572,o),
(610,524,cs),
(610,140,l),
(651.553,155.647,l),
(216,652,ls),
(212,657,o),
(208,660,o),
(201,660,cs),
(48,660,ls),
(40,660,o),
(35,656,o),
(35,647,cs),
(35,620,ls),
(35,612,o),
(40,607,o),
(48,607,cs),
(70,607,o),
(86,600,o),
(104,585,c),
(104,0,ls),
(104,-72,o),
(97,-136.364,o),
(40,-136.364,cs),
(22.726,-136.364,o),
(10.509,-128.473,o),
(8,-140.364,cs),
(1.585,-170.768,ls),
(-0.238,-179.409,o),
(0.762,-180.847,o),
(7,-182.829,cs),
(16.107,-185.723,o),
(37.984,-188,o),
(51.35,-188,cs)
);
}
);
width = 784;
}
);
metricRight = N;
unicode = 413;
},
{
glyphname = Eng;
kernLeft = B;
kernRight = N;
lastChange = "2025-02-26 16:38:20 +0000";
layers = (
{
layerId = "6AD408C6-91F3-4F0B-A103-73D10F5280D9";
shapes = (
{
pos = (0,-0.009);
ref = N;
},
{
closed = 1;
nodes = (
(541.604,17,l),
(541.604,-4,ls),
(541.604,-77,o),
(542.604,-159,o),
(469.604,-159,cs),
(420.604,-159,o),
(398.604,-116.397,o),
(398.604,-73.397,cs),
(398.604,-64.397,o),
(394.604,-60.397,o),
(389.604,-60.397,cs),
(387.604,-60.397,o),
(386.267,-61.256,o),
(382.604,-63.397,cs),
(355.835,-79.051,ls),
(348.41,-83.394,o),
(346.835,-91.051,o),
(346.835,-97.051,cs),
(346.835,-114.051,o),
(391.604,-188,o),
(469.604,-188,cs),
(594.604,-188,o),
(609.604,-84,o),
(609.604,17,c)
);
}
);
width = 695.64;
},
{
layerId = m002;
shapes = (
{
ref = N;
},
{
closed = 1;
nodes = (
(601,17,l),
(601,-4,ls),
(601,-77,o),
(572,-139,o),
(519,-139,cs),
(470,-139,o),
(458,-92,o),
(458,-49,cs),
(458,-40,o),
(454,-36,o),
(449,-36,cs),
(447,-36,o),
(445.452,-36.534,o),
(442,-39,cs),
(379,-84,ls),
(372,-89,o),
(370,-96,o),
(370,-102,cs),
(370,-119,o),
(411,-188,o),
(519,-188,cs),
(674,-188,o),
(698,-84,o),
(698,17,c)
);
}
);
width = 784;
}
);
note = Eng;
unicode = 330;
},
{
glyphname = O;
kernLeft = C;
kernRight = D;
lastChange = "2025-02-26 16:28:05 +0000";
layers = (
{
anchors = (
{
name = bottom;
pos = (364,0);
},
{
name = top;
pos = (352,660);
},
{
name = topright;
pos = (357,660);
}
);
layerId = "6AD408C6-91F3-4F0B-A103-73D10F5280D9";
shapes = (
{
closed = 1;
nodes = (
(161,671,o),
(30,517,o),
(30,334,cs),
(30,147,o),
(169,-11,o),
(355,-11,cs),
(533,-11,o),
(672,137,o),
(672,325,cs),
(672,512,o),
(531,671,o),
(345,671,cs)
);
},
{
closed = 1;
nodes = (
(515,641,o),
(576,406,o),
(576,270,cs),
(576,122,o),
(508,19,o),
(366,19,cs),
(190,19,o),
(125,239,o),
(125,389,cs),
(125,540,o),
(195,641,o),
(333,641,cs)
);
}
);
width = 702;
},
{
anchors = (
{
name = bottom;
pos = (375,0);
},
{
name = top;
pos = (363,660);
},
{
name = topright;
pos = (367,660);
}
);
layerId = m002;
shapes = (
{
closed = 1;
nodes = (
(172,671,o),
(31,517,o),
(31,334,cs),
(31,147,o),
(180,-11,o),
(366,-11,cs),
(544,-11,o),
(693,137,o),
(693,325,cs),
(693,512,o),
(542,671,o),
(356,671,cs)
);
},
{
closed = 1;
nodes = (
(501,593,o),
(561,394,o),
(561,279,cs),
(561,154,o),
(495,67,o),
(375,67,cs),
(226,67,o),
(162,253,o),
(162,380,cs),
(162,508,o),
(230,593,o),
(347,593,cs)
);
}
);
width = 723;
}
);
note = O;
unicode = 79;
},
{
glyphname = Oslash;
kernLeft = C;
kernRight = D;
lastChange = "2025-02-26 16:18:05 +0000";
layers = (
{
hints = (
{
horizontal = 1;
place = (664,-20);
target = down;
type = TopGhost;
}
);
layerId = "6AD408C6-91F3-4F0B-A103-73D10F5280D9";
shapes = (
{
closed = 1;
nodes = (
(207,-45,ls),
(204,-55,o),
(208,-60,o),
(218,-60,cs),
(230,-60,ls),
(238,-60,o),
(242,-57,o),
(245,-49,cs),
(526,733,ls),
(530,742,o),
(526,748,o),
(516,748,cs),
(504,748,ls),
(496,748,o),
(491,744,o),
(489,737,cs)
);
},
{
ref = O;
}
);
width = 723;
},
{
hints = (
{
horizontal = 1;
place = (664,-20);
target = down;
type = TopGhost;
},
{
horizontal = 1;
place = (-1,21);
target = up;
type = BottomGhost;
}
);
layerId = m002;
shapes = (
{
closed = 1;
nodes = (
(167,-45,ls),
(164,-55,o),
(168,-60,o),
(178,-60,cs),
(250,-60,ls),
(258,-60,o),
(262,-57,o),
(265,-49,cs),
(546,733,ls),
(550,742,o),
(546,748,o),
(536,748,cs),
(464,748,ls),
(456,748,o),
(451,744,o),
(449,737,cs)
);
},
{
ref = O;
}
);
width = 723;
}
);
note = Oslash;
unicode = 216;
},
{
glyphname = OE;
kernLeft = C;
kernRight = E;
lastChange = "2025-02-26 16:38:38 +0000";
layers = (
{
layerId = "6AD408C6-91F3-4F0B-A103-73D10F5280D9";
shapes = (
{
closed = 1;
nodes = (
(971.269,-12,o),
(974.546,-9.708,o),
(977.269,-4,cs),
(1060.269,170,ls),
(1064.269,179,o),
(1064.269,184,o),
(1055.269,188,cs),
(1041.269,195,ls),
(1032.269,200,o),
(1025.269,197,o),
(1022.269,190,cs),
(1019.269,184,ls),
(961.269,67,o),
(918.269,42,o),
(789.269,42,cs),
(714.269,42,ls),
(675.269,42,o),
(644.269,72,o),
(644.269,126,cs),
(644.269,330,l),
(758.269,330,ls),
(802.269,330,o),
(822.269,311,o),
(822.269,271,cs),
(822.269,266,ls),
(822.269,257,o),
(826.269,253,o),
(835.269,253,cs),
(841.269,253,ls),
(850.269,253,o),
(854.269,257,o),
(854.269,266,cs),
(854.269,436,ls),
(854.269,445,o),
(850.269,449,o),
(841.269,449,cs),
(835.269,449,ls),
(826.269,449,o),
(822.269,445,o),
(822.269,436,cs),
(822.269,430,ls),
(822.269,391,o),
(801.269,371,o),
(758.269,371,cs),
(644.269,371,l),
(644.269,618,l),
(823.269,618,ls),
(891.269,618,o),
(919.709,600.266,o),
(964.269,526,cs),
(967.269,521,ls),
(970.269,516,o),
(973.269,513,o),
(977.269,513,cs),
(980.269,513,o),
(982.269,514,o),
(987.269,517,cs),
(1002.269,526,ls),
(1006.556,528.572,o),
(1009.269,532,o),
(1009.269,537,cs),
(1009.269,539,o),
(1008.078,541.881,o),
(1006.269,545,cs),
(937.269,664,ls),
(934.344,669.044,o),
(930.269,671,o),
(926.269,671,cs),
(923.269,671,o),
(920.269,671,o),
(918.269,669,cs),
(913.269,664,ls),
(909.733,660.464,o),
(905.269,660,o),
(896.269,660,cs),
(427.992,660,l),
(401.651,667.17,o),
(373.867,671,o),
(345,671,cs),
(161,671,o),
(30,517,o),
(30,334,cs),
(30,147,o),
(169,-11,o),
(355,-11,cs),
(383.581,-11,o),
(411.156,-7.184,o),
(437.312,0,c),
(937.269,0,l),
(948.269,0,o),
(952.145,-0.096,o),
(955.269,-4,cs),
(959.269,-9,ls),
(961.521,-11.815,o),
(964.269,-12,o),
(967.269,-12,c)
);
},
{
closed = 1;
nodes = (
(190,19,o),
(125,239,o),
(125,389,cs),
(125,540,o),
(195,641,o),
(333,641,cs),
(515,641,o),
(576,406,o),
(576,270,cs),
(576,122,o),
(508,19,o),
(366,19,cs)
);
}
);
width = 1080.27;
},
{
layerId = m002;
shapes = (
{
closed = 1;
nodes = (
(962,-12,o),
(965.277,-9.708,o),
(968,-4,cs),
(1051,170,ls),
(1055.153,178.707,o),
(1054.246,182.994,o),
(1046,188,cs),
(1018,205,ls),
(1011.706,208.821,o),
(1003.098,208.196,o),
(999,200,cs),
(996,194,ls),
(947,96,o),
(899,62,o),
(769,62,cs),
(712,62,ls),
(673,62,o),
(651,92,o),
(651,146,cs),
(651,320,l),
(729,320,ls),
(783,320,o),
(812,301,o),
(812,261,cs),
(812,256,ls),
(812,247,o),
(817,243,o),
(826,243,cs),
(852,243,ls),
(861,243,o),
(865,247,o),
(865,256,cs),
(865,456,ls),
(865,465,o),
(861,469,o),
(852,469,cs),
(826,469,ls),
(817,469,o),
(812,465,o),
(812,456,cs),
(812,450,ls),
(812,411,o),
(782,391,o),
(729,391,cs),
(651,391,l),
(651,598,l),
(794,598,ls),
(862,598,o),
(898,576,o),
(934,516,cs),
(937,511,ls),
(940,506,o),
(944,503,o),
(948,503,cs),
(951,503,o),
(952.875,504.218,o),
(958,507,cs),
(993,526,ls),
(997,529,o),
(1000,532,o),
(1000,537,cs),
(1000,539,o),
(999,542,o),
(997,545,cs),
(928,664,ls),
(925.075,669.044,o),
(921,671,o),
(916,671,cs),
(914,671,o),
(911,671,o),
(909,669,cs),
(904,664,ls),
(900.464,660.464,o),
(896,660,o),
(887,660,cs),
(438,660,l),
(412,667,o),
(385,671,o),
(356,671,cs),
(172,671,o),
(31,517,o),
(31,334,cs),
(31,147,o),
(180,-11,o),
(366,-11,cs),
(395,-11,o),
(423,-7,o),
(451,0,c),
(928,0,ls),
(938,0,o),
(942,-1,o),
(945,-4,cs),
(950,-9,ls),
(952,-11,o),
(955,-12,o),
(958,-12,cs)
);
},
{
closed = 1;
nodes = (
(226,67,o),
(162,253,o),
(162,380,cs),
(162,508,o),
(230,593,o),
(347,593,cs),
(501,593,o),
(561,394,o),
(561,279,cs),
(561,154,o),
(495,67,o),
(375,67,cs)
);
}
);
width = 1070.86;
}
);
metricLeft = O;
metricRight = E;
note = OE;
unicode = 338;
},
{
glyphname = P;
kernLeft = B;
kernRight = P;
lastChange = "2026-05-05 11:06:44 +0000";
layers = (
{
anchors = (
{
name = bottom;
pos = (280,0);
},
{
name = top;
pos = (280,660);
}
);
layerId = "6AD408C6-91F3-4F0B-A103-73D10F5280D9";
shapes = (
{
closed = 1;
nodes = (
(188,286,l),
(274,286,ls),
(453,286,o),
(526,373,o),
(526,486,cs),
(526,586,o),
(434,660,o),
(331,660,cs),
(40,660,ls),
(32,660,o),
(27,656,o),
(27,647,cs),
(27,640,ls),
(27,632,o),
(32,627,o),
(40,627,cs),
(41,627,ls),
(90,627,o),
(105,591,o),
(105,544,cs),
(105,116,ls),
(105,70,o),
(91,33,o),
(46,33,cs),
(40,33,ls),
(31,33,o),
(26,28,o),
(26,20,cs),
(26,13,ls),
(26,4,o),
(31,0,o),
(40,0,cs),
(252,0,ls),
(261,0,o),
(265,4,o),
(265,13,cs),
(265,20,ls),
(265,28,o),
(261,33,o),
(252,33,cs),
(246,33,ls),
(202,33,o),
(188,70,o),
(188,116,cs)
);
},
{
closed = 1;
nodes = (
(188,328,l),
(188,627,l),
(293,627,ls),
(381,627,o),
(434,566,o),
(434,486,cs),
(434,388,o),
(382,328,o),
(265,328,cs)
);
}
);
width = 576;
},
{
anchors = (
{
name = bottom;
pos = (312,0);
},
{
name = top;
pos = (312,660);
}
);
layerId = m002;
shapes = (
{
closed = 1;
nodes = (
(240,266,l),
(306,266,ls),
(525,266,o),
(598,353,o),
(598,466,cs),
(598,566,o),
(506,660,o),
(363,660,cs),
(40,660,ls),
(32,660,o),
(27,656,o),
(27,647,cs),
(27,620,ls),
(27,612,o),
(32,607,o),
(40,607,cs),
(41,607,ls),
(90,607,o),
(105,571,o),
(105,524,cs),
(105,136,ls),
(105,90,o),
(91,53,o),
(46,53,cs),
(40,53,ls),
(31,53,o),
(26,48,o),
(26,40,cs),
(26,13,ls),
(26,4,o),
(31,0,o),
(40,0,cs),
(304,0,ls),
(313,0,o),
(317,4,o),
(317,13,cs),
(317,40,ls),
(317,48,o),
(313,53,o),
(304,53,cs),
(298,53,ls),
(254,53,o),
(240,90,o),
(240,136,cs)
);
},
{
closed = 1;
nodes = (
(240,328,l),
(240,607,l),
(325,607,ls),
(413,607,o),
(466,546,o),
(466,466,cs),
(466,368,o),
(414,328,o),
(297,328,cs)
);
}
);
width = 648;
}
);
note = P;
unicode = 80;
},
{
glyphname = Thorn;
kernLeft = B;
kernRight = P;
lastChange = "2025-02-26 16:38:49 +0000";
layers = (
{
layerId = "6AD408C6-91F3-4F0B-A103-73D10F5280D9";
shapes = (
{
closed = 1;
nodes = (
(252,0,ls),
(261,0,o),
(265,4,o),
(265,13,cs),
(265,20,ls),
(265,28,o),
(261,33,o),
(252,33,cs),
(246,33,ls),
(202,33,o),
(188,70,o),
(188,116,cs),
(188,176,l),
(274,176,ls),
(453,176,o),
(526,263,o),
(526,376,cs),
(526,476,o),
(434,550,o),
(331,550,cs),
(187.065,550,l),
(187,627,l),
(244,627,ls),
(252,627,o),
(257,632,o),
(257,640,cs),
(257,647,ls),
(257,656,o),
(252,660,o),
(244,660,cs),
(40,660,ls),
(32,660,o),
(27,656,o),
(27,647,cs),
(27,640,ls),
(27,632,o),
(32,627,o),
(40,627,cs),
(41,627,ls),
(90,627,o),
(105,591,o),
(105,544,cs),
(105,116,ls),
(105,70,o),
(91,33,o),
(46,33,cs),
(40,33,ls),
(31,33,o),
(26,28,o),
(26,20,cs),
(26,13,ls),
(26,4,o),
(31,0,o),
(40,0,cs)
);
},
{
closed = 1;
nodes = (
(188,517,l),
(293,517,ls),
(381,517,o),
(434,456,o),
(434,376,cs),
(434,278,o),
(382,218,o),
(265,218,cs),
(188,218,l)
);
}
);
width = 544;
},
{
layerId = m002;
shapes = (
{
closed = 1;
nodes = (
(310,0,ls),
(319,0,o),
(323,4,o),
(323,13,cs),
(323,40,ls),
(323,48,o),
(319,53,o),
(310,53,cs),
(299,53,ls),
(255,53,o),
(240,90,o),
(240,136,cs),
(240,162,l),
(312,162,ls),
(525,162,o),
(598,250,o),
(598,362,cs),
(598,463,o),
(506,557,o),
(363,557,cs),
(240,557,l),
(240,607,l),
(297,607,ls),
(305,607,o),
(310,612,o),
(310,620,cs),
(310,647,ls),
(310,656,o),
(305,660,o),
(297,660,cs),
(40,660,ls),
(32,660,o),
(27,656,o),
(27,647,cs),
(27,620,ls),
(27,612,o),
(32,607,o),
(40,607,cs),
(41,607,ls),
(90,607,o),
(105,571,o),
(105,524,cs),
(105,136,ls),
(105,90,o),
(91,53,o),
(46,53,cs),
(40,53,ls),
(31,53,o),
(26,48,o),
(26,40,cs),
(26,13,ls),
(26,4,o),
(31,0,o),
(40,0,cs)
);
},
{
closed = 1;
nodes = (
(240,503,l),
(325,503,ls),
(413,503,o),
(466,444,o),
(466,362,cs),
(466,265,o),
(414,224,o),
(297,224,cs),
(240,224,l)
);
}
);
width = 616;
}
);
note = Thorn;
unicode = 222;
},
{
glyphname = Q;
kernLeft = C;
kernRight = D;
lastChange = "2025-02-26 16:27:40 +0000";
layers = (
{
anchors = (
{
name = bottom;
pos = (375,0);
},
{
name = top;
pos = (356,660);
}
);
hints = (
{
horizontal = 1;
place = (-8,21);
target = up;
type = BottomGhost;
}
);
layerId = "6AD408C6-91F3-4F0B-A103-73D10F5280D9";
shapes = (
{
ref = O;
},
{
closed = 1;
nodes = (
(316,-8,l),
(294,-27,o),
(281,-53,o),
(281,-83,cs),
(281,-137,o),
(320,-200,o),
(458,-200,cs),
(531,-200,o),
(591,-174,o),
(651,-144,cs),
(657,-142,o),
(659,-138,o),
(659,-134,cs),
(659,-131,o),
(657,-128,o),
(656,-126,cs),
(652,-118,ls),
(649,-113,o),
(646,-110,o),
(642,-110,cs),
(640,-110,o),
(637,-111,o),
(635,-112,cs),
(585,-136,o),
(537,-158,o),
(462,-158,cs),
(377,-158,o),
(353,-119,o),
(353,-82,cs),
(353,-43,o),
(385,-13,o),
(437,0,c)
);
}
);
width = 702;
},
{
anchors = (
{
name = bottom;
pos = (375,0);
},
{
name = top;
pos = (356,660);
}
);
associatedMasterId = "6AD408C6-91F3-4F0B-A103-73D10F5280D9";
background = {
shapes = (
{
closed = 1;
nodes = (
(637,-88,ls),
(634,-83,o),
(631,-80,o),
(627,-80,cs),
(625,-80,o),
(622,-81,o),
(620,-82,c),
(570,-99,o),
(522,-116,o),
(475,-116,cs),
(423,-116,o),
(394,-99,o),
(394,-62,cs),
(394,-18,o),
(434,-7,o),
(466,4,cs),
(602,49,o),
(693,180,o),
(693,325,cs),
(693,348,o),
(690,373,o),
(685,398,cs),
(650,558,o),
(510,671,o),
(356,671,cs),
(334,671,o),
(312,668,o),
(290,664,cs),
(136,631,o),
(31,490,o),
(31,334,cs),
(31,309,o),
(33,285,o),
(39,260,cs),
(69,116,o),
(183,12,o),
(317,-8,c),
(294,-27,o),
(281,-53,o),
(281,-83,cs),
(281,-137,o),
(320,-200,o),
(458,-200,cs),
(531,-200,o),
(592,-173,o),
(651,-144,c),
(656,-142,o),
(658,-138,o),
(658,-134,cs),
(658,-131,o),
(658,-128,o),
(656,-126,cs)
);
},
{
closed = 1;
nodes = (
(165,318,o),
(162,349,o),
(162,380,cs),
(162,475,o),
(198,565,o),
(306,588,cs),
(320,591,o),
(334,593,o),
(347,593,cs),
(464,593,o),
(528,478,o),
(551,369,cs),
(557,340,o),
(561,309,o),
(561,279,cs),
(561,184,o),
(524,94,o),
(416,71,cs),
(401,68,o),
(388,67,o),
(375,67,cs),
(259,67,o),
(195,180,o),
(172,289,cs)
);
}
);
};
hints = (
{
horizontal = 1;
place = (-200,84);
type = Stem;
},
{
horizontal = 1;
place = (-8,21);
target = up;
type = BottomGhost;
},
{
horizontal = 1;
place = (593,78);
type = Stem;
},
{
place = (31,131);
type = Stem;
},
{
place = (281,113);
type = Stem;
},
{
place = (561,131);
type = Stem;
},
{
horizontal = 1;
place = (-11,78);
type = Stem;
},
{
horizontal = 1;
place = (593,78);
type = Stem;
},
{
place = (31,131);
type = Stem;
},
{
place = (561,131);
type = Stem;
}
);
layerId = "64ED735C-43FD-46D3-BF27-AD304EC357F2";
name = "24 mars 23 à 12:38";
shapes = (
{
closed = 1;
nodes = (
(317,-7,l),
(294,-26,o),
(281,-53,o),
(281,-83,cs),
(281,-137,o),
(320,-200,o),
(458,-200,cs),
(531,-200,o),
(591,-174,o),
(651,-144,cs),
(657,-142,o),
(659,-138,o),
(659,-134,cs),
(659,-131,o),
(657,-128,o),
(656,-126,cs),
(637,-88,ls),
(634,-83,o),
(631,-80,o),
(627,-80,cs),
(625,-80,o),
(622,-81,o),
(620,-82,cs),
(570,-99,o),
(522,-116,o),
(475,-116,cs),
(423,-116,o),
(394,-99,o),
(394,-62,cs),
(394,-18,o),
(434,-6,o),
(466,5,c)
);
},
{
closed = 1;
nodes = (
(31,517,o),
(31,334,cs),
(31,147,o),
(180,-11,o),
(366,-11,cs),
(544,-11,o),
(693,137,o),
(693,325,cs),
(693,512,o),
(542,671,o),
(356,671,cs),
(172,671,o)
);
},
{
closed = 1;
nodes = (
(230,593,o),
(347,593,cs),
(501,593,o),
(561,394,o),
(561,279,cs),
(561,154,o),
(495,67,o),
(375,67,cs),
(226,67,o),
(162,253,o),
(162,380,cs),
(162,508,o)
);
}
);
width = 723;
},
{
anchors = (
{
name = bottom;
pos = (375,0);
},
{
name = top;
pos = (356,660);
}
);
hints = (
{
horizontal = 1;
place = (-8,21);
target = up;
type = BottomGhost;
}
);
layerId = m002;
shapes = (
{
ref = O;
},
{
closed = 1;
nodes = (
(316,-8,l),
(294,-27,o),
(281,-53,o),
(281,-83,cs),
(281,-137,o),
(320,-200,o),
(458,-200,cs),
(531,-200,o),
(591,-174,o),
(651,-144,cs),
(657,-142,o),
(659,-138,o),
(659,-134,cs),
(659,-131,o),
(657,-128,o),
(656,-126,cs),
(637,-88,ls),
(634,-83,o),
(631,-80,o),
(627,-80,cs),
(625,-80,o),
(622,-81,o),
(620,-82,cs),
(570,-102,o),
(522,-116,o),
(475,-116,cs),
(423,-116,o),
(394,-99,o),
(394,-62,cs),
(394,-23,o),
(424,-7,o),
(455,2,c)
);
}
);
width = 723;
},
{
anchors = (
{
name = bottom;
pos = (375,0);
},
{
name = top;
pos = (356,660);
}
);
associatedMasterId = m002;
background = {
shapes = (
{
closed = 1;
nodes = (
(637,-88,ls),
(634,-83,o),
(631,-80,o),
(627,-80,cs),
(625,-80,o),
(622,-81,o),
(620,-82,c),
(570,-99,o),
(522,-116,o),
(475,-116,cs),
(423,-116,o),
(394,-99,o),
(394,-62,cs),
(394,-18,o),
(434,-7,o),
(466,4,cs),
(602,49,o),
(693,180,o),
(693,325,cs),
(693,348,o),
(690,373,o),
(685,398,cs),
(650,558,o),
(510,671,o),
(356,671,cs),
(334,671,o),
(312,668,o),
(290,664,cs),
(136,631,o),
(31,490,o),
(31,334,cs),
(31,309,o),
(33,285,o),
(39,260,cs),
(69,116,o),
(183,12,o),
(317,-8,c),
(294,-27,o),
(281,-53,o),
(281,-83,cs),
(281,-137,o),
(320,-200,o),
(458,-200,cs),
(531,-200,o),
(592,-173,o),
(651,-144,c),
(656,-142,o),
(658,-138,o),
(658,-134,cs),
(658,-131,o),
(658,-128,o),
(656,-126,cs)
);
},
{
closed = 1;
nodes = (
(165,318,o),
(162,349,o),
(162,380,cs),
(162,475,o),
(198,565,o),
(306,588,cs),
(320,591,o),
(334,593,o),
(347,593,cs),
(464,593,o),
(528,478,o),
(551,369,cs),
(557,340,o),
(561,309,o),
(561,279,cs),
(561,184,o),
(524,94,o),
(416,71,cs),
(401,68,o),
(388,67,o),
(375,67,cs),
(259,67,o),
(195,180,o),
(172,289,cs)
);
}
);
};
hints = (
{
horizontal = 1;
place = (-200,84);
type = Stem;
},
{
horizontal = 1;
place = (-8,21);
target = up;
type = BottomGhost;
},
{
horizontal = 1;
place = (593,78);
type = Stem;
},
{
place = (31,131);
type = Stem;
},
{
place = (281,113);
type = Stem;
},
{
place = (561,131);
type = Stem;
},
{
horizontal = 1;
place = (-11,78);
type = Stem;
},
{
horizontal = 1;
place = (593,78);
type = Stem;
},
{
place = (31,131);
type = Stem;
},
{
place = (561,131);
type = Stem;
}
);
layerId = "60566FB9-6CE6-45FE-A3F0-A6575770B3C0";
name = "24 mars 23 à 12:38";
shapes = (
{
closed = 1;
nodes = (
(317,-7,l),
(294,-26,o),
(281,-53,o),
(281,-83,cs),
(281,-137,o),
(320,-200,o),
(458,-200,cs),
(531,-200,o),
(591,-174,o),
(651,-144,cs),
(657,-142,o),
(659,-138,o),
(659,-134,cs),
(659,-131,o),
(657,-128,o),
(656,-126,cs),
(637,-88,ls),
(634,-83,o),
(631,-80,o),
(627,-80,cs),
(625,-80,o),
(622,-81,o),
(620,-82,cs),
(570,-99,o),
(522,-116,o),
(475,-116,cs),
(423,-116,o),
(394,-99,o),
(394,-62,cs),
(394,-18,o),
(434,-6,o),
(466,5,c)
);
},
{
closed = 1;
nodes = (
(31,517,o),
(31,334,cs),
(31,147,o),
(180,-11,o),
(366,-11,cs),
(544,-11,o),
(693,137,o),
(693,325,cs),
(693,512,o),
(542,671,o),
(356,671,cs),
(172,671,o)
);
},
{
closed = 1;
nodes = (
(230,593,o),
(347,593,cs),
(501,593,o),
(561,394,o),
(561,279,cs),
(561,154,o),
(495,67,o),
(375,67,cs),
(226,67,o),
(162,253,o),
(162,380,cs),
(162,508,o)
);
}
);
width = 723;
}
);
note = Q;
unicode = 81;
},
{
glyphname = R;
kernLeft = B;
kernRight = R;
lastChange = "2025-02-26 16:27:39 +0000";
layers = (
{
anchors = (
{
name = bottom;
pos = (323,0);
},
{
name = top;
pos = (264,660);
}
);
layerId = "6AD408C6-91F3-4F0B-A103-73D10F5280D9";
shapes = (
{
closed = 1;
nodes = (
(550,334,o),
(550,474,cs),
(550,575,o),
(458,660,o),
(315,660,cs),
(40,660,ls),
(32,660,o),
(27,656,o),
(27,647,cs),
(27,640,ls),
(27,632,o),
(32,627,o),
(40,627,cs),
(90,627,o),
(105,591,o),
(105,544,cs),
(105,116,ls),
(105,70,o),
(91,33,o),
(46,33,cs),
(40,33,ls),
(31,33,o),
(26,28,o),
(26,20,cs),
(26,13,ls),
(26,4,o),
(31,0,o),
(40,0,cs),
(252,0,ls),
(261,0,o),
(265,4,o),
(265,13,cs),
(265,20,ls),
(265,28,o),
(261,33,o),
(252,33,cs),
(246,33,ls),
(202,33,o),
(188,70,o),
(188,116,cs),
(188,293,l),
(274,293,ls),
(397,293,o)
);
},
{
closed = 1;
nodes = (
(188,326,l),
(188,627,l),
(297,627,ls),
(385,627,o),
(458,575,o),
(458,474,cs),
(458,374,o),
(386,326,o),
(269,326,cs)
);
},
{
closed = 1;
nodes = (
(333,300,l),
(459,86,ls),
(478,54,o),
(454,33,o),
(409,33,cs),
(404,33,ls),
(395,33,o),
(391,28,o),
(391,20,cs),
(391,13,ls),
(391,4,o),
(395,0,o),
(404,0,cs),
(624,0,ls),
(633,0,o),
(637,4,o),
(637,13,cs),
(637,20,ls),
(637,28,o),
(633,33,o),
(624,33,cs),
(620,33,ls),
(576,33,o),
(556.518,74.3,o),
(532,116,cs),
(405,332,l)
);
}
);
width = 644;
},
{
anchors = (
{
name = bottom;
pos = (361,0);
},
{
name = top;
pos = (302,660);
}
);
layerId = m002;
shapes = (
{
closed = 1;
nodes = (
(598,324,o),
(598,474,cs),
(598,575,o),
(506,660,o),
(363,660,cs),
(40,660,ls),
(32,660,o),
(27,656,o),
(27,647,cs),
(27,620,ls),
(27,612,o),
(32,607,o),
(40,607,cs),
(90,607,o),
(105,571,o),
(105,524,cs),
(105,136,ls),
(105,90,o),
(91,53,o),
(46,53,cs),
(40,53,ls),
(31,53,o),
(26,48,o),
(26,40,cs),
(26,13,ls),
(26,4,o),
(31,0,o),
(40,0,cs),
(310,0,ls),
(319,0,o),
(323,4,o),
(323,13,cs),
(323,40,ls),
(323,48,o),
(319,53,o),
(310,53,cs),
(304,53,ls),
(260,53,o),
(246,90,o),
(246,136,cs),
(246,283,l),
(312,283,ls),
(435,283,o)
);
},
{
closed = 1;
nodes = (
(246,346,l),
(246,607,l),
(325,607,ls),
(413,607,o),
(466,555,o),
(466,474,cs),
(466,394,o),
(414,346,o),
(297,346,cs)
);
},
{
closed = 1;
nodes = (
(361,300,l),
(466,106,ls),
(482,76,o),
(462,53,o),
(417,53,cs),
(412,53,ls),
(403,53,o),
(399,48,o),
(399,40,cs),
(399,13,ls),
(399,4,o),
(403,0,o),
(412,0,cs),
(682,0,ls),
(691,0,o),
(695,4,o),
(695,13,cs),
(695,40,ls),
(695,48,o),
(691,53,o),
(682,53,cs),
(678,53,ls),
(634,53,o),
(612,93,o),
(590,136,cs),
(487,332,l)
);
}
);
width = 702;
}
);
note = R;
unicode = 82;
},
{
glyphname = S;
kernLeft = S;
kernRight = S;
lastChange = "2025-02-26 16:27:39 +0000";
layers = (
{
anchors = (
{
name = bottom;
pos = (346,0);
},
{
name = top;
pos = (290,660);
}
);
background = {
shapes = (
{
closed = 1;
nodes = (
(558,476,ls),
(565,480,o),
(567,484,o),
(567,489,cs),
(567,493,o),
(566,497,o),
(564,502,cs),
(502,659,ls),
(498,670,o),
(492,674,o),
(480,674,cs),
(449,674,ls),
(438,674,o),
(433,670,o),
(433,661,cs),
(433,649,o),
(437,638,o),
(437,632,cs),
(437,628,o),
(436,627,o),
(433,627,cs),
(429,627,o),
(423,629,o),
(412,635,cs),
(388,649,o),
(341,671,o),
(276,671,cs),
(149,671,o),
(53,617,o),
(53,501,cs),
(53,374,o),
(176,319,o),
(291,286,cs),
(418,249,o),
(474,232,o),
(474,155,cs),
(474,102,o),
(432,63,o),
(355,63,cs),
(254,63,o),
(154,121,o),
(75,242,cs),
(70,249,o),
(66,253,o),
(60,253,cs),
(56,253,o),
(53,251,o),
(49,249,cs),
(10,227,ls),
(4,224,o),
(1,218,o),
(1,212,cs),
(1,209,o),
(2,205,o),
(4,202,cs),
(111,2,ls),
(115,-7,o),
(122,-11,o),
(133,-11,cs),
(177,-11,ls),
(187,-11,o),
(192,-8,o),
(192,-1,cs),
(192,3,o),
(191,5,o),
(189,10,cs),
(188,13,o),
(187,17,o),
(187,19,cs),
(187,26,o),
(190,28,o),
(195,28,cs),
(199,28,o),
(203,27,o),
(208,25,cs),
(251,4,o),
(297,-11,o),
(350,-11,cs),
(512,-11,o),
(606,74,o),
(606,194,cs),
(606,326,o),
(466,372,o),
(331,411,cs),
(264,430,o),
(193,458,o),
(193,523,cs),
(193,576,o),
(231,599,o),
(279,599,cs),
(356,599,o),
(427,561,o),
(502,467,cs),
(507,461,o),
(512,457,o),
(517,457,cs),
(521,457,o),
(524,458,o),
(528,460,cs)
);
}
);
};
layerId = "6AD408C6-91F3-4F0B-A103-73D10F5280D9";
shapes = (
{
closed = 1;
nodes = (
(544,468,ls),
(552,472,o),
(553,476,o),
(553,481,cs),
(553,485,o),
(552,489,o),
(550,494,cs),
(482,659,ls),
(477,670,o),
(472,674,o),
(460,674,cs),
(449,674,ls),
(438,674,o),
(433,670,o),
(433,661,cs),
(433,649,o),
(437,638,o),
(437,632,cs),
(437,628,o),
(436,627,o),
(433,627,cs),
(429,627,o),
(423,629,o),
(412,635,cs),
(388,649,o),
(341,671,o),
(276,671,cs),
(169,671,o),
(73,617,o),
(73,511,cs),
(73,394,o),
(182,345,o),
(297,312,cs),
(424,275,o),
(510,249,o),
(510,159,cs),
(510,79,o),
(454,28,o),
(363,28,cs),
(231,28,o),
(143,115,o),
(64,236,cs),
(59,243,o),
(55,247,o),
(49,247,cs),
(45,247,o),
(42,245,o),
(38,243,cs),
(27,237,ls),
(21,234,o),
(18,228,o),
(18,222,cs),
(18,219,o),
(19,215,o),
(21,212,cs),
(131,2,ls),
(136,-7,o),
(142,-11,o),
(153,-11,cs),
(177,-11,ls),
(187,-11,o),
(192,-8,o),
(192,-1,cs),
(192,3,o),
(191,5,o),
(189,10,cs),
(188,13,o),
(187,17,o),
(187,19,cs),
(187,26,o),
(190,28,o),
(195,28,cs),
(199,28,o),
(203,27,o),
(208,25,cs),
(251,4,o),
(297,-11,o),
(350,-11,cs),
(492,-11,o),
(586,64,o),
(586,174,cs),
(586,296,o),
(455,340,o),
(320,379,cs),
(253,398,o),
(149,432,o),
(149,520,cs),
(149,600,o),
(206,635,o),
(279,635,cs),
(374,635,o),
(457,566,o),
(512,472,cs),
(516,466,o),
(522,462,o),
(527,462,cs),
(531,462,o),
(534,463,o),
(538,465,cs)
);
}
);
width = 599;
},
{
anchors = (
{
name = bottom;
pos = (325,0);
},
{
name = top;
pos = (325,660);
}
);
background = {
shapes = (
{
closed = 1;
nodes = (
(575,467,ls),
(582,471,o),
(584,475,o),
(584,480,cs),
(584,484,o),
(583,488,o),
(581,493,cs),
(519,650,ls),
(515,661,o),
(509,665,o),
(497,665,cs),
(466,665,ls),
(455,665,o),
(450,661,o),
(450,652,cs),
(450,641,o),
(454,629,o),
(454,623,cs),
(454,620,o),
(452,618,o),
(449,618,cs),
(445,618,o),
(440,620,o),
(429,626,cs),
(405,638,o),
(358,660,o),
(293,660,cs),
(157,660,o),
(70,599,o),
(70,501,cs),
(70,374,o),
(193,319,o),
(308,286,cs),
(435,249,o),
(491,232,o),
(491,155,cs),
(491,102,o),
(449,63,o),
(372,63,cs),
(271,63,o),
(171,121,o),
(92,242,cs),
(87,249,o),
(83,253,o),
(77,253,cs),
(73,253,o),
(70,251,o),
(66,249,cs),
(27,227,ls),
(21,224,o),
(18,218,o),
(18,212,cs),
(18,209,o),
(19,205,o),
(21,202,cs),
(128,2,ls),
(132,-7,o),
(139,-11,o),
(150,-11,cs),
(194,-11,ls),
(204,-11,o),
(209,-8,o),
(209,-1,cs),
(209,3,o),
(208,5,o),
(206,10,cs),
(205,13,o),
(204,17,o),
(204,19,cs),
(204,26,o),
(207,28,o),
(212,28,cs),
(216,28,o),
(220,27,o),
(225,25,cs),
(268,4,o),
(314,-11,o),
(367,-11,cs),
(529,-11,o),
(623,74,o),
(623,194,cs),
(623,326,o),
(483,372,o),
(348,411,cs),
(281,430,o),
(210,459,o),
(210,514,cs),
(210,576,o),
(260,590,o),
(304,590,cs),
(364,590,o),
(444,552,o),
(519,458,cs),
(524,452,o),
(529,448,o),
(534,448,cs),
(538,448,o),
(541,450,o),
(545,451,cs)
);
}
);
};
layerId = m002;
shapes = (
{
closed = 1;
nodes = (
(575,476,ls),
(582,480,o),
(584,484,o),
(584,489,cs),
(584,493,o),
(583,497,o),
(581,502,cs),
(519,659,ls),
(515,670,o),
(509,674,o),
(497,674,cs),
(466,674,ls),
(455,674,o),
(450,670,o),
(450,661,cs),
(450,649,o),
(454,638,o),
(454,632,cs),
(454,628,o),
(453,627,o),
(450,627,cs),
(446,627,o),
(440,629,o),
(429,635,cs),
(405,649,o),
(358,671,o),
(293,671,cs),
(166,671,o),
(70,617,o),
(70,501,cs),
(70,374,o),
(193,319,o),
(308,286,cs),
(435,249,o),
(491,232,o),
(491,155,cs),
(491,102,o),
(449,63,o),
(372,63,cs),
(271,63,o),
(171,121,o),
(92,242,cs),
(87,249,o),
(83,253,o),
(77,253,cs),
(73,253,o),
(70,251,o),
(66,249,cs),
(27,227,ls),
(21,224,o),
(18,218,o),
(18,212,cs),
(18,209,o),
(19,205,o),
(21,202,cs),
(128,2,ls),
(132,-7,o),
(139,-11,o),
(150,-11,cs),
(194,-11,ls),
(204,-11,o),
(209,-8,o),
(209,-1,cs),
(209,3,o),
(208,5,o),
(206,10,cs),
(205,13,o),
(204,17,o),
(204,19,cs),
(204,26,o),
(207,28,o),
(212,28,cs),
(216,28,o),
(220,27,o),
(225,25,cs),
(268,4,o),
(314,-11,o),
(367,-11,cs),
(529,-11,o),
(623,74,o),
(623,184,cs),
(623,326,o),
(483,372,o),
(348,411,cs),
(281,430,o),
(210,458,o),
(210,523,cs),
(210,576,o),
(248,599,o),
(296,599,cs),
(373,599,o),
(444,561,o),
(519,467,cs),
(524,461,o),
(529,457,o),
(534,457,cs),
(538,457,o),
(541,458,o),
(545,460,cs)
);
}
);
width = 636;
},
{
anchors = (
{
name = bottom;
pos = (325,0);
},
{
name = top;
pos = (325,660);
}
);
associatedMasterId = m002;
background = {
shapes = (
{
closed = 1;
nodes = (
(575,467,ls),
(582,471,o),
(584,475,o),
(584,480,cs),
(584,484,o),
(583,488,o),
(581,493,cs),
(519,650,ls),
(515,661,o),
(509,665,o),
(497,665,cs),
(466,665,ls),
(455,665,o),
(450,661,o),
(450,652,cs),
(450,641,o),
(454,629,o),
(454,623,cs),
(454,620,o),
(452,618,o),
(449,618,cs),
(445,618,o),
(440,620,o),
(429,626,cs),
(405,638,o),
(358,660,o),
(293,660,cs),
(157,660,o),
(70,599,o),
(70,501,cs),
(70,374,o),
(193,319,o),
(308,286,cs),
(435,249,o),
(491,232,o),
(491,155,cs),
(491,102,o),
(449,63,o),
(372,63,cs),
(271,63,o),
(171,121,o),
(92,242,cs),
(87,249,o),
(83,253,o),
(77,253,cs),
(73,253,o),
(70,251,o),
(66,249,cs),
(27,227,ls),
(21,224,o),
(18,218,o),
(18,212,cs),
(18,209,o),
(19,205,o),
(21,202,cs),
(128,2,ls),
(132,-7,o),
(139,-11,o),
(150,-11,cs),
(194,-11,ls),
(204,-11,o),
(209,-8,o),
(209,-1,cs),
(209,3,o),
(208,5,o),
(206,10,cs),
(205,13,o),
(204,17,o),
(204,19,cs),
(204,26,o),
(207,28,o),
(212,28,cs),
(216,28,o),
(220,27,o),
(225,25,cs),
(268,4,o),
(314,-11,o),
(367,-11,cs),
(529,-11,o),
(623,74,o),
(623,194,cs),
(623,326,o),
(483,372,o),
(348,411,cs),
(281,430,o),
(210,459,o),
(210,514,cs),
(210,576,o),
(260,590,o),
(304,590,cs),
(364,590,o),
(444,552,o),
(519,458,cs),
(524,452,o),
(529,448,o),
(534,448,cs),
(538,448,o),
(541,450,o),
(545,451,cs)
);
}
);
};
layerId = "5ED775F4-56BA-4817-90B7-3FB83C50105C";
name = "25 févr. 25 à 10:57";
shapes = (
{
closed = 1;
nodes = (
(575,476,ls),
(582,480,o),
(584,484,o),
(584,489,cs),
(584,493,o),
(583,497,o),
(581,502,cs),
(519,659,ls),
(515,670,o),
(509,674,o),
(497,674,cs),
(466,674,ls),
(455,674,o),
(450,670,o),
(450,661,cs),
(450,649,o),
(454,638,o),
(454,632,cs),
(454,628,o),
(453,627,o),
(450,627,cs),
(446,627,o),
(440,629,o),
(429,635,cs),
(405,649,o),
(358,671,o),
(293,671,cs),
(166,671,o),
(70,617,o),
(70,501,cs),
(70,374,o),
(193,319,o),
(308,286,cs),
(435,249,o),
(491,232,o),
(491,155,cs),
(491,102,o),
(449,63,o),
(372,63,cs),
(271,63,o),
(171,121,o),
(92,242,cs),
(87,249,o),
(83,253,o),
(77,253,cs),
(73,253,o),
(70,251,o),
(66,249,cs),
(27,227,ls),
(21,224,o),
(18,218,o),
(18,212,cs),
(18,209,o),
(19,205,o),
(21,202,cs),
(128,2,ls),
(132,-7,o),
(139,-11,o),
(150,-11,cs),
(194,-11,ls),
(204,-11,o),
(209,-8,o),
(209,-1,cs),
(209,3,o),
(208,5,o),
(206,10,cs),
(205,13,o),
(204,17,o),
(204,19,cs),
(204,26,o),
(207,28,o),
(212,28,cs),
(216,28,o),
(220,27,o),
(225,25,cs),
(268,4,o),
(314,-11,o),
(367,-11,cs),
(529,-11,o),
(623,74,o),
(623,194,cs),
(623,326,o),
(483,372,o),
(348,411,cs),
(281,430,o),
(210,458,o),
(210,523,cs),
(210,576,o),
(248,599,o),
(296,599,cs),
(373,599,o),
(444,561,o),
(519,467,cs),
(524,461,o),
(529,457,o),
(534,457,cs),
(538,457,o),
(541,458,o),
(545,460,cs)
);
}
);
width = 636;
}
);
note = S;
unicode = 83;
},
{
glyphname = Germandbls;
kernLeft = m;
kernRight = B;
lastChange = "2025-02-26 16:39:08 +0000";
layers = (
{
layerId = "6AD408C6-91F3-4F0B-A103-73D10F5280D9";
shapes = (
{
closed = 1;
nodes = (
(498,494,ls),
(503,498,o),
(505,502,o),
(505,510,cs),
(505,613,o),
(418,671,o),
(289,671,cs),
(127,671,o),
(92,552.032,o),
(92,493,cs),
(92,440,l),
(42,440,ls),
(33,440,o),
(29,436,o),
(29,429,cs),
(29,419,ls),
(29,412,o),
(31,408,o),
(40,407,cs),
(88,402,o),
(92,354,o),
(92,306,cs),
(92,116,ls),
(92,69,o),
(77,33,o),
(29,33,cs),
(26,33,ls),
(18,33,o),
(13,28,o),
(13,20,cs),
(13,13,ls),
(13,4,o),
(18,0,o),
(26,0,cs),
(144,0,ls),
(152,0,o),
(158,4,o),
(158,13,cs),
(158,495,ls),
(158,576,o),
(181.493,641,o),
(291.65,641,cs),
(386.507,641,o),
(431,579,o),
(431,510,cs),
(431,503,o),
(430,498,o),
(425,494,cs),
(296,387,ls),
(290,383,o),
(285,379,o),
(280,379,cs),
(277,379,ls),
(272,379,o),
(269,377,o),
(269,372,cs),
(269,364,o),
(275,357,o),
(283,349,cs),
(289,343,o),
(294,339,o),
(300,339,cs),
(398,339,o),
(489,277,o),
(489,182,cs),
(489,99,o),
(433,30,o),
(349,30,cs),
(290,30,o),
(261.745,50.642,o),
(234.806,71.891,cs),
(230.187,75.534,o),
(227.755,74.995,o),
(225.394,70.825,c),
(217.742,58.034,l),
(214.009,51.531,o),
(218,48,o),
(221,45,cs),
(254,12,o),
(301,-11,o),
(362,-11,cs),
(458,-11,o),
(568,41,o),
(568,182,cs),
(568,308,o),
(468,378,o),
(356,378,c)
);
}
);
width = 603;
},
{
layerId = m002;
shapes = (
{
closed = 1;
nodes = (
(538,494,ls),
(543,498,o),
(545,502,o),
(545,510,cs),
(545,613,o),
(458,671,o),
(329,671,cs),
(127,671,o),
(92,524,o),
(92,453,cs),
(92,440,l),
(42,440,ls),
(33,440,o),
(29,436,o),
(29,429,cs),
(29,399,ls),
(29,392,o),
(31,388,o),
(40,387,cs),
(88,382,o),
(92,334,o),
(92,286,cs),
(92,136,ls),
(92,89,o),
(77,53,o),
(29,53,cs),
(26,53,ls),
(18,53,o),
(13,48,o),
(13,40,cs),
(13,13,ls),
(13,4,o),
(18,0,o),
(26,0,cs),
(210,0,ls),
(218,0,o),
(224,4,o),
(224,13,cs),
(224,495,ls),
(224,566,o),
(267,604,o),
(329,604,cs),
(391,604,o),
(441,579,o),
(441,510,cs),
(441,503,o),
(440,498,o),
(435,494,cs),
(306,387,ls),
(300,383,o),
(295,379,o),
(290,379,cs),
(287,379,ls),
(282,379,o),
(279,377,o),
(279,372,cs),
(279,364,o),
(306,335,o),
(314,327,cs),
(320,321,o),
(325,317,o),
(331,317,cs),
(429,317,o),
(489,277,o),
(489,182,cs),
(489,99,o),
(433,60,o),
(369,60,cs),
(341,60,o),
(312.501,69.762,o),
(285.922,86.58,cs),
(278.707,91.146,o),
(274.599,92.198,o),
(272.219,87.438,cs),
(257.945,58.89,ls),
(254.211,51.422,o),
(258,48,o),
(261,45,cs),
(294,12,o),
(341,-11,o),
(402,-11,cs),
(508,-11,o),
(618,41,o),
(618,182,cs),
(618,308,o),
(508,378,o),
(396,378,c)
);
}
);
width = 653;
}
);
unicode = 7838;
},
{
glyphname = T;
kernLeft = T;
kernRight = T;
lastChange = "2026-05-05 11:06:33 +0000";
layers = (
{
anchors = (
{
name = bottom;
pos = (340,0);
},
{
name = top;
pos = (341,660);
}
);
layerId = "6AD408C6-91F3-4F0B-A103-73D10F5280D9";
shapes = (
{
closed = 1;
nodes = (
(117,660,ls),
(111,660,o),
(103,661,o),
(95,669,cs),
(93,671,o),
(90,672,o),
(87,672,cs),
(83,672,o),
(79,670,o),
(77,664,cs),
(7,536,ls),
(5,532,o),
(4,531,o),
(4,528,cs),
(4,524,o),
(6,520,o),
(11,517,cs),
(28,507,ls),
(33,504,o),
(35,505,o),
(37,505,cs),
(42,505,o),
(45,508,o),
(47,512,cs),
(50,518,ls),
(88,593,o),
(185,619,o),
(256,619,cs),
(299,619,l),
(299,116,ls),
(299,70,o),
(284,33,o),
(239,33,cs),
(234,33,ls),
(225,33,o),
(221,28,o),
(221,20,cs),
(221,13,ls),
(221,4,o),
(225,0,o),
(234,0,cs),
(449,0,ls),
(457,0,o),
(462,4,o),
(462,13,cs),
(462,20,ls),
(462,28,o),
(457,33,o),
(449,33,cs),
(443,33,ls),
(398,33,o),
(383,70,o),
(383,116,cs),
(383,619,l),
(426,619,ls),
(497,619,o),
(594,593,o),
(632,518,cs),
(635,512,ls),
(637,508,o),
(640,505,o),
(645,505,cs),
(647,505,o),
(649,504,o),
(654,507,cs),
(671,517,ls),
(676,520,o),
(678,524,o),
(678,528,cs),
(678,531,o),
(677,532,o),
(675,536,cs),
(605,664,ls),
(603,670,o),
(599,672,o),
(595,672,cs),
(592,672,o),
(589,671,o),
(587,669,cs),
(579,661,o),
(571,660,o),
(565,660,cs)
);
}
);
width = 693;
},
{
anchors = (
{
name = bottom;
pos = (340,0);
},
{
name = top;
pos = (341,660);
}
);
layerId = m002;
shapes = (
{
closed = 1;
nodes = (
(117,660,ls),
(111,660,o),
(103,661,o),
(95,669,cs),
(93,671,o),
(90,672,o),
(87,672,cs),
(83,672,o),
(79,670,o),
(77,664,cs),
(7,536,ls),
(5,532,o),
(4,531,o),
(4,528,cs),
(4,524,o),
(6,520,o),
(11,517,cs),
(48,497,ls),
(52,495,o),
(55,495,o),
(57,495,cs),
(62,495,o),
(64,498,o),
(67,502,cs),
(70,508,ls),
(99,567,o),
(157,589,o),
(228,589,cs),
(271,589,l),
(271,136,ls),
(271,90,o),
(256,53,o),
(211,53,cs),
(206,53,ls),
(197,53,o),
(193,48,o),
(193,40,cs),
(193,13,ls),
(193,4,o),
(197,0,o),
(206,0,cs),
(477,0,ls),
(485,0,o),
(490,4,o),
(490,13,cs),
(490,40,ls),
(490,48,o),
(485,53,o),
(477,53,cs),
(471,53,ls),
(426,53,o),
(411,90,o),
(411,136,cs),
(411,589,l),
(454,589,ls),
(525,589,o),
(583,567,o),
(612,508,cs),
(615,502,ls),
(618,498,o),
(620,495,o),
(625,495,cs),
(627,495,o),
(630,495,o),
(634,497,cs),
(671,517,ls),
(676,520,o),
(678,524,o),
(678,528,cs),
(678,531,o),
(677,532,o),
(675,536,cs),
(605,664,ls),
(603,670,o),
(599,672,o),
(595,672,cs),
(592,672,o),
(589,671,o),
(587,669,cs),
(579,661,o),
(571,660,o),
(565,660,cs)
);
}
);
width = 693;
}
);
note = T;
unicode = 84;
},
{
glyphname = Tbar;
kernLeft = T;
kernRight = T;
lastChange = "2025-02-27 09:03:43 +0000";
layers = (
{
layerId = "6AD408C6-91F3-4F0B-A103-73D10F5280D9";
shapes = (
{
closed = 1;
nodes = (
(511,340,ls),
(520,340,o),
(524,345,o),
(524,354,cs),
(524,366,ls),
(524,375,o),
(520,380,o),
(511,380,cs),
(171,380,ls),
(162,380,o),
(158,375,o),
(158,366,cs),
(158,354,ls),
(158,345,o),
(162,340,o),
(171,340,cs)
);
},
{
ref = T;
}
);
width = 693;
},
{
layerId = m002;
shapes = (
{
closed = 1;
nodes = (
(511,320,ls),
(520,320,o),
(524,325,o),
(524,334,cs),
(524,386,ls),
(524,395,o),
(520,400,o),
(511,400,cs),
(171,400,ls),
(162,400,o),
(158,395,o),
(158,386,cs),
(158,334,ls),
(158,325,o),
(162,320,o),
(171,320,cs)
);
},
{
ref = T;
}
);
width = 693;
}
);
note = Tbar;
unicode = 358;
},
{
glyphname = U;
kernLeft = U;
kernRight = U;
lastChange = "2025-02-26 16:27:39 +0000";
layers = (
{
anchors = (
{
name = bottom;
pos = (349,0);
},
{
name = ogonek;
pos = (407.891,0);
},
{
name = top;
pos = (346,660);
},
{
name = topright;
pos = (590,660);
}
);
layerId = "6AD408C6-91F3-4F0B-A103-73D10F5280D9";
shapes = (
{
closed = 1;
nodes = (
(453,660,ls),
(444,660,o),
(440,656,o),
(440,647,cs),
(440,640,ls),
(440,632,o),
(444,627,o),
(453,627,cs),
(458,627,ls),
(503,627,o),
(517,590,o),
(517,544,cs),
(517,251,ls),
(517,144,o),
(481,46,o),
(360,46,cs),
(202,46,o),
(183,152,o),
(183,251,cs),
(183,544,ls),
(183,590,o),
(198,627,o),
(242,627,cs),
(247,627,ls),
(256,627,o),
(261,632,o),
(261,640,cs),
(261,647,ls),
(261,656,o),
(256,660,o),
(247,660,cs),
(35,660,ls),
(26,660,o),
(22,656,o),
(22,647,cs),
(22,640,ls),
(22,632,o),
(26,627,o),
(35,627,cs),
(41,627,ls),
(86,627,o),
(100,590,o),
(100,544,cs),
(100,233,ls),
(100,80,o),
(180,-11,o),
(334,-11,cs),
(488,-11,o),
(566,80,o),
(566,242,cs),
(566,544,ls),
(566,590,o),
(581,627,o),
(625,627,cs),
(631,627,ls),
(640,627,o),
(644,632,o),
(644,640,cs),
(644,647,ls),
(644,656,o),
(640,660,o),
(631,660,cs)
);
}
);
width = 653;
},
{
anchors = (
{
name = bottom;
pos = (387,0);
},
{
name = ogonek;
pos = (458,0);
},
{
name = top;
pos = (384,660);
},
{
name = topright;
pos = (628,660);
}
);
layerId = m002;
shapes = (
{
closed = 1;
nodes = (
(471,660,ls),
(462,660,o),
(458,656,o),
(458,647,cs),
(458,620,ls),
(458,612,o),
(462,607,o),
(471,607,cs),
(476,607,ls),
(521,607,o),
(535,570,o),
(535,524,cs),
(535,251,ls),
(535,144,o),
(499,66,o),
(398,66,cs),
(260,66,o),
(241,152,o),
(241,251,cs),
(241,524,ls),
(241,570,o),
(256,607,o),
(300,607,cs),
(305,607,ls),
(314,607,o),
(319,612,o),
(319,620,cs),
(319,647,ls),
(319,656,o),
(314,660,o),
(305,660,cs),
(35,660,ls),
(26,660,o),
(22,656,o),
(22,647,cs),
(22,620,ls),
(22,612,o),
(26,607,o),
(35,607,cs),
(41,607,ls),
(86,607,o),
(100,570,o),
(100,524,cs),
(100,233,ls),
(100,80,o),
(198,-11,o),
(372,-11,cs),
(546,-11,o),
(624,80,o),
(624,242,cs),
(624,524,ls),
(624,570,o),
(639,607,o),
(683,607,cs),
(689,607,ls),
(698,607,o),
(702,612,o),
(702,620,cs),
(702,647,ls),
(702,656,o),
(698,660,o),
(689,660,cs)
);
}
);
width = 711;
}
);
note = U;
unicode = 85;
},
{
glyphname = Uhorn;
kernLeft = U;
kernRight = Uhorn;
lastChange = "2025-02-27 11:33:59 +0000";
layers = (
{
anchors = (
{
name = bottom;
pos = (349,0);
},
{
name = ogonek;
pos = (407.891,0);
},
{
name = top;
pos = (346,660);
},
{
name = topright;
pos = (590,660);
}
);
layerId = "6AD408C6-91F3-4F0B-A103-73D10F5280D9";
shapes = (
{
pos = (487.69,220);
ref = horncomb;
},
{
closed = 1;
nodes = (
(453,660,l),
(444,660,o),
(440,656,o),
(440,647,cs),
(440,640,ls),
(440,632,o),
(444,627,o),
(453,627,cs),
(458,627,ls),
(503,627,o),
(517,590,o),
(517,544,cs),
(517,251,ls),
(517,144,o),
(481,46,o),
(360,46,cs),
(202,46,o),
(183,152,o),
(183,251,cs),
(183,544,ls),
(183,590,o),
(198,627,o),
(242,627,cs),
(247,627,ls),
(256,627,o),
(261,632,o),
(261,640,cs),
(261,647,ls),
(261,656,o),
(256,660,o),
(247,660,cs),
(35,660,ls),
(26,660,o),
(22,656,o),
(22,647,cs),
(22,640,ls),
(22,632,o),
(26,627,o),
(35,627,cs),
(41,627,ls),
(86,627,o),
(100,590,o),
(100,544,cs),
(100,233,ls),
(100,80,o),
(180,-11,o),
(334,-11,cs),
(488,-11,o),
(566,80,o),
(566,242,cs),
(566,659.906,l)
);
}
);
width = 772.69;
},
{
anchors = (
{
name = bottom;
pos = (387,0);
},
{
name = ogonek;
pos = (458,0);
},
{
name = top;
pos = (384,660);
},
{
name = topright;
pos = (628,660);
}
);
layerId = m002;
shapes = (
{
pos = (546,220);
ref = horncomb;
},
{
closed = 1;
nodes = (
(471,660,l),
(462,660,o),
(458,656,o),
(458,647,cs),
(458,620,ls),
(458,612,o),
(462,607,o),
(471,607,cs),
(476,607,ls),
(521,607,o),
(535,570,o),
(535,524,cs),
(535,251,ls),
(535,144,o),
(499,66,o),
(398,66,cs),
(260,66,o),
(241,152,o),
(241,251,cs),
(241,524,ls),
(241,570,o),
(256,607,o),
(300,607,cs),
(305,607,ls),
(314,607,o),
(319,612,o),
(319,620,cs),
(319,647,ls),
(319,656,o),
(314,660,o),
(305,660,cs),
(35,660,ls),
(26,660,o),
(22,656,o),
(22,647,cs),
(22,620,ls),
(22,612,o),
(26,607,o),
(35,607,cs),
(41,607,ls),
(86,607,o),
(100,570,o),
(100,524,cs),
(100,233,ls),
(100,80,o),
(198,-11,o),
(372,-11,cs),
(546,-11,o),
(624,80,o),
(624,242,cs),
(624,660,l)
);
}
);
width = 831;
}
);
unicode = 431;
},
{
glyphname = V;
kernLeft = V;
kernRight = V;
lastChange = "2026-05-05 10:53:54 +0000";
layers = (
{
background = {
shapes = (
{
closed = 1;
nodes = (
(410,660,ls),
(402,660,o),
(397,655,o),
(397,647,cs),
(397,620,ls),
(397,612,o),
(402,607,o),
(410,607,cs),
(465,607,o),
(494,578,o),
(475,525,cs),
(313,65,l),
(356,65,l),
(184,517,ls),
(159,582,o),
(187,607,o),
(245,607,cs),
(253,607,o),
(258,612,o),
(258,620,cs),
(258,647,ls),
(258,655,o),
(253,660,o),
(245,660,cs),
(-25,660,ls),
(-34,660,o),
(-39,655,o),
(-39,647,cs),
(-39,620,ls),
(-39,612,o),
(-34,607,o),
(-25,607,cs),
(7,607,o),
(22,571,o),
(40,525,cs),
(238,11,ls),
(240,4,o),
(246,0,o),
(253,0,cs),
(359,0,ls),
(366,0,o),
(371,4,o),
(374,11,cs),
(563,525,ls),
(579,569,o),
(596,607,o),
(629,607,cs),
(638,607,o),
(643,612,o),
(643,620,cs),
(643,647,ls),
(643,655,o),
(638,660,o),
(629,660,cs)
);
}
);
};
layerId = "6AD408C6-91F3-4F0B-A103-73D10F5280D9";
shapes = (
{
closed = 1;
nodes = (
(417,660,ls),
(409,660,o),
(404,655,o),
(404,647,cs),
(404,640,ls),
(404,632,o),
(409,627,o),
(417,627,cs),
(472,627,o),
(501,598,o),
(482,545,cs),
(313,65,l),
(356,65,l),
(176,537,ls),
(151,602,o),
(179,627,o),
(237,627,cs),
(245,627,o),
(250,632,o),
(250,640,cs),
(250,647,ls),
(250,655,o),
(245,660,o),
(237,660,cs),
(18,660,ls),
(9,660,o),
(4,655,o),
(4,647,cs),
(4,640,ls),
(4,632,o),
(9,627,o),
(18,627,cs),
(50,627,o),
(65,591,o),
(83,545,cs),
(289,11,ls),
(292,4,o),
(297,0,o),
(304,0,cs),
(325,0,ls),
(332,0,o),
(337,4,o),
(340,11,cs),
(536,545,ls),
(552,589,o),
(569,627,o),
(602,627,cs),
(611,627,o),
(616,632,o),
(616,640,cs),
(616,647,ls),
(616,655,o),
(611,660,o),
(602,660,cs)
);
}
);
width = 620;
},
{
layerId = m002;
shapes = (
{
closed = 1;
nodes = (
(453,660,ls),
(445,660,o),
(440,655,o),
(440,647,cs),
(440,620,ls),
(440,612,o),
(445,607,o),
(453,607,cs),
(508,607,o),
(537,578,o),
(518,525,cs),
(356,65,l),
(399,65,l),
(227,517,ls),
(202,582,o),
(230,607,o),
(288,607,cs),
(296,607,o),
(301,612,o),
(301,620,cs),
(301,647,ls),
(301,655,o),
(296,660,o),
(288,660,cs),
(18,660,ls),
(9,660,o),
(4,655,o),
(4,647,cs),
(4,620,ls),
(4,612,o),
(9,607,o),
(18,607,cs),
(50,607,o),
(65,571,o),
(83,525,cs),
(281,11,ls),
(283,4,o),
(289,0,o),
(296,0,cs),
(402,0,ls),
(409,0,o),
(414,4,o),
(417,11,cs),
(606,525,ls),
(622,569,o),
(639,607,o),
(672,607,cs),
(681,607,o),
(686,612,o),
(686,620,cs),
(686,647,ls),
(686,655,o),
(681,660,o),
(672,660,cs)
);
}
);
width = 690;
}
);
note = V;
unicode = 86;
},
{
glyphname = W;
kernLeft = V;
kernRight = V;
lastChange = "2026-05-05 11:06:22 +0000";
layers = (
{
anchors = (
{
name = bottom;
pos = (480.713,0);
},
{
name = top;
pos = (507,660);
}
);
background = {
shapes = (
{
closed = 1;
nodes = (
(783,660,ls),
(775,660,o),
(770,655,o),
(770,647,cs),
(770,620,ls),
(770,612,o),
(775,607,o),
(783,607,cs),
(819,607,o),
(851,581,o),
(851,545,cs),
(851,538,o),
(850,531,o),
(848,523,cs),
(715,124,l),
(569,528,ls),
(566,539,o),
(564,547,o),
(564,555,cs),
(564,590,o),
(591,607,o),
(612,607,cs),
(635,607,ls),
(643,607,o),
(648,612,o),
(648,620,cs),
(648,647,ls),
(648,655,o),
(643,660,o),
(635,660,cs),
(365,660,ls),
(357,660,o),
(352,655,o),
(352,647,cs),
(352,620,ls),
(352,612,o),
(357,607,o),
(365,607,cs),
(397,607,o),
(412,568,o),
(430,523,cs),
(445,483,l),
(325,124,l),
(181,523,ls),
(178,531,o),
(176,539,o),
(176,546,cs),
(176,582,o),
(209,607,o),
(245,607,cs),
(253,607,o),
(258,612,o),
(258,620,cs),
(258,647,ls),
(258,655,o),
(253,660,o),
(245,660,cs),
(-25,660,ls),
(-34,660,o),
(-39,655,o),
(-39,647,cs),
(-39,620,ls),
(-39,612,o),
(-34,607,o),
(-25,607,cs),
(8,607,o),
(23,568,o),
(40,523,cs),
(229,11,ls),
(232,4,o),
(237,0,o),
(244,0,cs),
(350,0,ls),
(357,0,o),
(363,4,o),
(365,11,cs),
(489,362,l),
(620,11,ls),
(622,4,o),
(627,0,o),
(635,0,cs),
(740,0,ls),
(748,0,o),
(753,4,o),
(755,11,cs),
(936,523,ls),
(953,569,o),
(968,607,o),
(1002,607,cs),
(1010,607,o),
(1015,612,o),
(1015,620,cs),
(1015,647,ls),
(1015,655,o),
(1010,660,o),
(1002,660,cs)
);
}
);
};
layerId = "6AD408C6-91F3-4F0B-A103-73D10F5280D9";
shapes = (
{
closed = 1;
nodes = (
(315,0,ls),
(322,0,o),
(327,4,o),
(330,11,cs),
(476,424,l),
(628,11,ls),
(631,4,o),
(636,0,o),
(643,0,cs),
(664,0,ls),
(671,0,o),
(676,4,o),
(679,11,cs),
(868,545,ls),
(884,589,o),
(901,627,o),
(934,627,cs),
(943,627,o),
(948,632,o),
(948,640,cs),
(948,647,ls),
(948,655,o),
(943,660,o),
(934,660,cs),
(749,660,ls),
(741,660,o),
(736,655,o),
(736,647,cs),
(736,640,ls),
(736,632,o),
(741,627,o),
(749,627,cs),
(804,627,o),
(832,598,o),
(814,545,cs),
(673,127,l),
(525,537,ls),
(502,602,o),
(520.498,626.939,o),
(578.498,627,cs),
(586.565,627,ls),
(594.238,627.016,o),
(599,632.19,o),
(599,640,cs),
(599,647,ls),
(599,655,o),
(594,660,o),
(586,660,cs),
(367,660,ls),
(358,660,o),
(353,655,o),
(353,647,cs),
(353,640,ls),
(353,632,o),
(358,627,o),
(367,627,cs),
(399,627,o),
(415,591,o),
(432,545,cs),
(449,499,l),
(324,127,l),
(176,537,ls),
(153,602,o),
(179,627,o),
(237,627,cs),
(245,627,o),
(250,632,o),
(250,640,cs),
(250,647,ls),
(250,655,o),
(245,660,o),
(237,660,cs),
(18,660,ls),
(9,660,o),
(4,655,o),
(4,647,cs),
(4,640,ls),
(4,632,o),
(9,627,o),
(18,627,cs),
(50,627,o),
(66,591,o),
(83,545,cs),
(279,11,ls),
(282,4,o),
(287,0,o),
(294,0,cs)
);
}
);
width = 952;
},
{
anchors = (
{
name = bottom;
pos = (542.012,0);
},
{
name = top;
pos = (550,660);
}
);
layerId = m002;
shapes = (
{
closed = 1;
nodes = (
(393,0,ls),
(400,0,o),
(406,4,o),
(408,11,cs),
(532,362,l),
(663,11,ls),
(665,4,o),
(670,0,o),
(678,0,cs),
(783,0,ls),
(791,0,o),
(796,4,o),
(798,11,cs),
(979,523,ls),
(996,569,o),
(1011,607,o),
(1045,607,cs),
(1053,607,o),
(1058,612,o),
(1058,620,cs),
(1058,647,ls),
(1058,655,o),
(1053,660,o),
(1045,660,cs),
(826,660,ls),
(818,660,o),
(813,655,o),
(813,647,cs),
(813,620,ls),
(813,612,o),
(818,607,o),
(826,607,cs),
(866.748,607,o),
(904.23,575.919,o),
(891,523,cs),
(758,124,l),
(612,528,ls),
(600.044,571.84,o),
(615.359,607,o),
(655,607,cs),
(678,607,ls),
(686,607,o),
(691,612,o),
(691,620,cs),
(691,647,ls),
(691,655,o),
(686,660,o),
(678,660,cs),
(408,660,ls),
(400,660,o),
(395,655,o),
(395,647,cs),
(395,620,ls),
(395,612,o),
(400,607,o),
(408,607,cs),
(440,607,o),
(455,568,o),
(473,523,cs),
(488,483,l),
(368,124,l),
(224,523,ls),
(209.7,561.133,o),
(231.274,607,o),
(288,607,cs),
(296,607,o),
(301,612,o),
(301,620,cs),
(301,647,ls),
(301,655,o),
(296,660,o),
(288,660,cs),
(18,660,ls),
(9,660,o),
(4,655,o),
(4,647,cs),
(4,620,ls),
(4,612,o),
(9,607,o),
(18,607,cs),
(51,607,o),
(66,568,o),
(83,523,cs),
(272,11,ls),
(275,4,o),
(280,0,o),
(287,0,cs)
);
}
);
width = 1062;
}
);
note = W;
unicode = 87;
},
{
glyphname = X;
kernLeft = X;
kernRight = X;
lastChange = "2025-02-26 16:27:39 +0000";
layers = (
{
background = {
shapes = (
{
closed = 1;
nodes = (
(303,361,l),
(115,121,ls),
(81,77,o),
(65,59,o),
(28,59,cs),
(24,59,ls),
(14,59,o),
(9,54,o),
(9,44,cs),
(9,15,ls),
(9,5,o),
(14,0,o),
(24,0,cs),
(231,0,ls),
(240,0,o),
(246,5,o),
(246,15,cs),
(246,44,ls),
(246,54,o),
(240,59,o),
(231,59,cs),
(211,59,ls),
(194,59,o),
(187,62,o),
(187,71,cs),
(187,81,o),
(198,98,o),
(216,121,cs),
(354,299,l)
);
},
{
closed = 1;
nodes = (
(441,338,l),
(599,539,ls),
(634,582,o),
(649,600,o),
(686,600,cs),
(700,600,ls),
(710,600,o),
(715,605,o),
(715,615,cs),
(715,645,ls),
(715,655,o),
(710,660,o),
(700,660,cs),
(494,660,ls),
(484,660,o),
(479,655,o),
(479,645,cs),
(479,615,ls),
(479,605,o),
(484,600,o),
(494,600,cs),
(503,600,ls),
(520,600,o),
(527,597,o),
(527,588,cs),
(527,578,o),
(516,561,o),
(498,539,cs),
(390,401,l)
);
},
{
closed = 1;
nodes = (
(283,555,ls),
(272,568,o),
(267,579,o),
(267,586,cs),
(267,597,o),
(278,601,o),
(303,601,cs),
(304,601,ls),
(313,601,o),
(319,606,o),
(319,616,cs),
(319,645,ls),
(319,655,o),
(313,660,o),
(304,660,cs),
(48,660,ls),
(39,660,o),
(33,655,o),
(33,645,cs),
(33,616,ls),
(33,606,o),
(39,601,o),
(48,601,cs),
(50,601,ls),
(75,601,o),
(103,580,o),
(137,539,cs),
(490,108,ls),
(501,96,o),
(504,87,o),
(504,80,cs),
(504,62,o),
(481,59,o),
(468,59,cs),
(466,59,ls),
(457,59,o),
(451,54,o),
(451,44,cs),
(451,15,ls),
(451,5,o),
(457,0,o),
(466,0,cs),
(728,0,ls),
(737,0,o),
(742,5,o),
(742,15,cs),
(742,44,ls),
(742,54,o),
(737,59,o),
(728,59,cs),
(725,59,ls),
(700,59,o),
(673,79,o),
(639,121,cs)
);
}
);
};
layerId = "6AD408C6-91F3-4F0B-A103-73D10F5280D9";
shapes = (
{
closed = 1;
nodes = (
(231,575,ls),
(220,589,o),
(215,599,o),
(215,606,cs),
(215,617,o),
(226,621,o),
(251,621,cs),
(252,621,ls),
(261,621,o),
(267,626,o),
(267,636,cs),
(267,645,ls),
(267,655,o),
(261,660,o),
(252,660,cs),
(48,660,ls),
(39,660,o),
(33,655,o),
(33,645,cs),
(33,636,ls),
(33,626,o),
(39,621,o),
(48,621,cs),
(50,621,ls),
(75,621,o),
(104,600,o),
(137,559,cs),
(520,88,ls),
(530,75,o),
(534,67,o),
(534,60,cs),
(534,42,o),
(511,39,o),
(498,39,cs),
(496,39,ls),
(487,39,o),
(481,34,o),
(481,24,cs),
(481,15,ls),
(481,5,o),
(487,0,o),
(496,0,cs),
(706,0,ls),
(715,0,o),
(720,5,o),
(720,15,cs),
(720,24,ls),
(720,34,o),
(715,39,o),
(706,39,cs),
(703,39,ls),
(678,39,o),
(651,59,o),
(617,101,cs)
);
},
{
closed = 1;
nodes = (
(333,379,l),
(115,101,ls),
(82,58,o),
(65,39,o),
(28,39,cs),
(24,39,ls),
(14,39,o),
(9,34,o),
(9,24,cs),
(9,15,ls),
(9,5,o),
(14,0,o),
(24,0,cs),
(191,0,ls),
(200,0,o),
(206,5,o),
(206,15,cs),
(206,24,ls),
(206,34,o),
(200,39,o),
(191,39,cs),
(171,39,ls),
(154,39,o),
(147,42,o),
(147,51,cs),
(147,61,o),
(158,78,o),
(176,101,cs),
(363,341,l)
);
},
{
closed = 1;
nodes = (
(390,332,l),
(568,559,ls),
(602,602,o),
(618,620,o),
(655,620,cs),
(669,620,ls),
(679,620,o),
(684,625,o),
(684,635,cs),
(684,645,ls),
(684,655,o),
(679,660,o),
(669,660,cs),
(504,660,ls),
(494,660,o),
(489,655,o),
(489,645,cs),
(489,635,ls),
(489,625,o),
(494,620,o),
(504,620,cs),
(513,620,ls),
(530,620,o),
(537,617,o),
(537,608,cs),
(537,598,o),
(527,583,o),
(508,559,cs),
(360,369,l)
);
}
);
width = 729;
},
{
layerId = m002;
shapes = (
{
closed = 1;
nodes = (
(283,555,ls),
(272,568,o),
(267,579,o),
(267,586,cs),
(267,597,o),
(278,601,o),
(303,601,cs),
(304,601,ls),
(313,601,o),
(319,606,o),
(319,616,cs),
(319,645,ls),
(319,655,o),
(313,660,o),
(304,660,cs),
(48,660,ls),
(39,660,o),
(33,655,o),
(33,645,cs),
(33,616,ls),
(33,606,o),
(39,601,o),
(48,601,cs),
(50,601,ls),
(75,601,o),
(103,580,o),
(137,539,cs),
(490,108,ls),
(501,96,o),
(504,87,o),
(504,80,cs),
(504,62,o),
(481,59,o),
(468,59,cs),
(466,59,ls),
(457,59,o),
(451,54,o),
(451,44,cs),
(451,15,ls),
(451,5,o),
(457,0,o),
(466,0,cs),
(728,0,ls),
(737,0,o),
(742,5,o),
(742,15,cs),
(742,44,ls),
(742,54,o),
(737,59,o),
(728,59,cs),
(725,59,ls),
(700,59,o),
(673,79,o),
(639,121,cs)
);
},
{
closed = 1;
nodes = (
(328,394,l),
(115,121,ls),
(81,77,o),
(65,59,o),
(28,59,cs),
(24,59,ls),
(14,59,o),
(9,54,o),
(9,44,cs),
(9,15,ls),
(9,5,o),
(14,0,o),
(24,0,cs),
(231,0,ls),
(240,0,o),
(246,5,o),
(246,15,cs),
(246,44,ls),
(246,54,o),
(240,59,o),
(231,59,cs),
(211,59,ls),
(194,59,o),
(187,62,o),
(187,71,cs),
(187,81,o),
(198,98,o),
(216,121,cs),
(379,332,l)
);
},
{
closed = 1;
nodes = (
(417,308,l),
(599,539,ls),
(633,583,o),
(649,600,o),
(686,600,cs),
(700,600,ls),
(710,600,o),
(715,605,o),
(715,615,cs),
(715,645,ls),
(715,655,o),
(710,660,o),
(700,660,cs),
(494,660,ls),
(484,660,o),
(479,655,o),
(479,645,cs),
(479,615,ls),
(479,605,o),
(484,600,o),
(494,600,cs),
(503,600,ls),
(520,600,o),
(527,597,o),
(527,588,cs),
(527,578,o),
(515,561,o),
(498,539,cs),
(366,371,l)
);
}
);
width = 751;
}
);
note = X;
unicode = 88;
},
{
glyphname = Y;
kernLeft = Y;
kernRight = Y;
lastChange = "2026-05-05 11:07:57 +0000";
layers = (
{
anchors = (
{
name = bottom;
pos = (326,0);
},
{
name = top;
pos = (367,660);
},
{
name = topleft;
pos = (-4,660);
}
);
background = {
anchors = (
{
name = bottom;
pos = (326,0);
},
{
name = top;
pos = (367,660);
},
{
name = topleft;
pos = (-4,660);
}
);
shapes = (
{
closed = 1;
nodes = (
(434,660,ls),
(426,660,o),
(420,655,o),
(420,647,cs),
(420,620,ls),
(420,612,o),
(426,607,o),
(434,607,cs),
(460,607,o),
(474,598,o),
(474,578,cs),
(474,565,o),
(468,546,o),
(455,523,cs),
(360,358,l),
(257,523,ls),
(246,540,o),
(242,554,o),
(242,566,cs),
(242,596,o),
(272,607,o),
(303,607,cs),
(311,607,o),
(317,612,o),
(317,620,cs),
(317,647,ls),
(317,655,o),
(311,660,o),
(303,660,cs),
(-2,660,ls),
(-11,660,o),
(-15,655,o),
(-15,647,cs),
(-15,620,ls),
(-15,612,o),
(-11,607,o),
(-2,607,cs),
(35,607,o),
(59,582,o),
(98,523,cs),
(257,288,ls),
(260,282,o),
(262,278,o),
(262,272,cs),
(262,136,ls),
(262,90,o),
(247,53,o),
(202,53,cs),
(197,53,ls),
(189,53,o),
(184,48,o),
(184,40,cs),
(184,13,ls),
(184,4,o),
(189,0,o),
(197,0,cs),
(468,0,ls),
(476,0,o),
(481,4,o),
(481,13,cs),
(481,40,ls),
(481,48,o),
(476,53,o),
(468,53,cs),
(462,53,ls),
(417,53,o),
(403,90,o),
(403,136,cs),
(403,276,ls),
(403,282,o),
(404,288,o),
(407,293,cs),
(543,523,ls),
(577,581,o),
(614,607,o),
(653,607,cs),
(662,607,o),
(666,612,o),
(666,620,cs),
(666,647,ls),
(666,655,o),
(662,660,o),
(653,660,cs)
);
}
);
};
layerId = "6AD408C6-91F3-4F0B-A103-73D10F5280D9";
shapes = (
{
closed = 1;
nodes = (
(466,660,ls),
(458,660,o),
(452,655,o),
(452,647,cs),
(452,640,ls),
(452,632,o),
(458,627,o),
(466,627,cs),
(492,627,o),
(506,618,o),
(506,598,cs),
(506,585,o),
(499,564,o),
(487,543,cs),
(344,301,l),
(369,318,l),
(222,543,ls),
(212,559,o),
(207,574,o),
(207,586,cs),
(207,616,o),
(237,627,o),
(268,627,cs),
(276,627,o),
(282,632,o),
(282,640,cs),
(282,647,ls),
(282,655,o),
(276,660,o),
(268,660,cs),
(22,660,ls),
(13,660,o),
(9,655,o),
(9,647,cs),
(9,640,ls),
(9,632,o),
(13,627,o),
(22,627,cs),
(59,627,o),
(82,601,o),
(122,543,cs),
(295,288,ls),
(299,282,o),
(300,278,o),
(300,272,cs),
(300,116,ls),
(300,70,o),
(285,33,o),
(240,33,cs),
(235,33,ls),
(227,33,o),
(222,28,o),
(222,20,cs),
(222,13,ls),
(222,4,o),
(227,0,o),
(235,0,cs),
(448,0,ls),
(456,0,o),
(461,4,o),
(461,13,cs),
(461,20,ls),
(461,28,o),
(456,33,o),
(448,33,cs),
(442,33,ls),
(397,33,o),
(383,70,o),
(383,116,cs),
(383,276,ls),
(383,282,o),
(384,288,o),
(387,293,cs),
(535,543,ls),
(569,600,o),
(606,627,o),
(645,627,cs),
(654,627,o),
(658,632,o),
(658,640,cs),
(658,647,ls),
(658,655,o),
(654,660,o),
(645,660,cs)
);
}
);
width = 667;
},
{
anchors = (
{
name = bottom;
pos = (350,0);
},
{
name = top;
pos = (391,660);
},
{
name = topleft;
pos = (20,660);
}
);
layerId = m002;
shapes = (
{
closed = 1;
nodes = (
(458,660,ls),
(450,660,o),
(444,655,o),
(444,647,cs),
(444,620,ls),
(444,612,o),
(450,607,o),
(458,607,cs),
(484,607,o),
(498,598,o),
(498,578,cs),
(498,565,o),
(492,546,o),
(479,523,cs),
(353,303,l),
(417,305,l),
(281,523,ls),
(270,540,o),
(266,554,o),
(266,566,cs),
(266,596,o),
(296,607,o),
(327,607,cs),
(335,607,o),
(341,612,o),
(341,620,cs),
(341,647,ls),
(341,655,o),
(335,660,o),
(327,660,cs),
(22,660,ls),
(13,660,o),
(9,655,o),
(9,647,cs),
(9,620,ls),
(9,612,o),
(13,607,o),
(22,607,cs),
(59,607,o),
(83,582,o),
(122,523,cs),
(281,288,ls),
(284,282,o),
(286,278,o),
(286,272,cs),
(286,136,ls),
(286,90,o),
(271,53,o),
(226,53,cs),
(221,53,ls),
(213,53,o),
(208,48,o),
(208,40,cs),
(208,13,ls),
(208,4,o),
(213,0,o),
(221,0,cs),
(492,0,ls),
(500,0,o),
(505,4,o),
(505,13,cs),
(505,40,ls),
(505,48,o),
(500,53,o),
(492,53,cs),
(486,53,ls),
(441,53,o),
(427,90,o),
(427,136,cs),
(427,276,ls),
(427,282,o),
(428,288,o),
(431,293,cs),
(567,523,ls),
(601,581,o),
(638,607,o),
(677,607,cs),
(686,607,o),
(690,612,o),
(690,620,cs),
(690,647,ls),
(690,655,o),
(686,660,o),
(677,660,cs)
);
}
);
width = 699;
}
);
note = Y;
unicode = 89;
},
{
glyphname = Z;
kernLeft = Z;
kernRight = Z;
lastChange = "2025-02-26 16:27:39 +0000";
layers = (
{
anchors = (
{
name = bottom;
pos = (300,0);
},
{
name = top;
pos = (368,660);
}
);
background = {
shapes = (
{
closed = 1;
nodes = (
(595,172,ls),
(592,173,o),
(590,174,o),
(587,174,cs),
(583,174,o),
(579,171,o),
(576,166,cs),
(573,161,ls),
(537,106,o),
(476,80,o),
(312,80,cs),
(194,80,l),
(626,641,ls),
(628,644,o),
(631,648,o),
(631,651,cs),
(631,656,ls),
(631,658,o),
(630,660,o),
(626,660,cs),
(155,660,ls),
(149,660,o),
(143,660,o),
(138,664,cs),
(131,671,o),
(129,671,o),
(126,671,cs),
(121,671,o),
(117,670,o),
(114,664,cs),
(45,527,ls),
(43,524,o),
(42,522,o),
(42,519,cs),
(42,515,o),
(45,511,o),
(49,509,cs),
(86,488,ls),
(89,487,o),
(92,486,o),
(94,486,cs),
(98,486,o),
(101,489,o),
(105,494,cs),
(108,498,ls),
(150,549,o),
(186,589,o),
(266,589,cs),
(415,589,l),
(19,79,ls),
(16,74,o),
(13,68,o),
(13,62,cs),
(13,13,ls),
(13,4,o),
(18,0,o),
(26,0,cs),
(526,0,ls),
(532,0,o),
(539,0,o),
(543,-4,cs),
(547,-9,ls),
(550,-11,o),
(553,-11,o),
(555,-11,cs),
(560,-11,o),
(563,-9,o),
(566,-4,cs),
(636,133,ls),
(638,136,o),
(639,138,o),
(639,141,cs),
(639,144,o),
(638,148,o),
(632,151,cs)
);
}
);
};
layerId = "6AD408C6-91F3-4F0B-A103-73D10F5280D9";
shapes = (
{
closed = 1;
nodes = (
(618,159,ls),
(615,161,o),
(613,161,o),
(610,161,cs),
(606,161,o),
(602,158,o),
(599,153,cs),
(596,148,ls),
(549,69,o),
(476,50,o),
(312,50,cs),
(124,50,l),
(606,641,ls),
(608,644,o),
(611,648,o),
(611,651,cs),
(611,656,ls),
(611,658,o),
(610,660,o),
(606,660,cs),
(155,660,ls),
(149,660,o),
(143,660,o),
(138,664,cs),
(131,671,o),
(129,671,o),
(126,671,cs),
(121,671,o),
(117,670,o),
(114,664,cs),
(45,547,ls),
(43,544,o),
(42,542,o),
(42,539,cs),
(42,535,o),
(44,532,o),
(49,529,cs),
(56,525,ls),
(59,523,o),
(62,523,o),
(64,523,cs),
(68,523,o),
(71,526,o),
(75,531,cs),
(78,535,ls),
(120,586,o),
(156,619,o),
(236,619,cs),
(482,619,l),
(19,49,ls),
(15,44,o),
(13,38,o),
(13,32,cs),
(13,13,ls),
(13,4,o),
(18,0,o),
(26,0,cs),
(526,0,ls),
(532,0,o),
(539,0,o),
(543,-4,cs),
(547,-9,ls),
(550,-11,o),
(553,-11,o),
(555,-11,cs),
(560,-11,o),
(563,-9,o),
(566,-4,cs),
(636,133,ls),
(638,136,o),
(639,138,o),
(639,141,cs),
(639,144,o),
(638,147,o),
(632,151,cs)
);
}
);
width = 656;
},
{
anchors = (
{
name = bottom;
pos = (300,0);
},
{
name = top;
pos = (368,660);
}
);
hints = (
{
horizontal = 1;
place = (-12,21);
target = up;
type = BottomGhost;
}
);
layerId = m002;
shapes = (
{
closed = 1;
nodes = (
(595,172,ls),
(592,173,o),
(590,174,o),
(587,174,cs),
(583,174,o),
(579,171,o),
(576,166,cs),
(573,161,ls),
(537,106,o),
(476,80,o),
(312,80,cs),
(194,80,l),
(626,641,ls),
(628,644,o),
(631,648,o),
(631,651,cs),
(631,656,ls),
(631,658,o),
(630,660,o),
(626,660,cs),
(155,660,ls),
(149,660,o),
(143,660,o),
(138,664,cs),
(131,671,o),
(129,671,o),
(126,671,cs),
(121,671,o),
(117,670,o),
(114,664,cs),
(45,527,ls),
(43,524,o),
(42,522,o),
(42,519,cs),
(42,515,o),
(45,511,o),
(49,509,cs),
(86,488,ls),
(89,487,o),
(92,486,o),
(94,486,cs),
(98,486,o),
(101,489,o),
(105,494,cs),
(108,498,ls),
(150,549,o),
(186,589,o),
(266,589,cs),
(415,589,l),
(19,79,ls),
(16,74,o),
(13,68,o),
(13,62,cs),
(13,13,ls),
(13,4,o),
(18,0,o),
(26,0,cs),
(526,0,ls),
(532,0,o),
(539,0,o),
(543,-4,cs),
(547,-9,ls),
(550,-11,o),
(553,-11,o),
(555,-11,cs),
(560,-11,o),
(563,-9,o),
(566,-4,cs),
(636,133,ls),
(638,136,o),
(639,138,o),
(639,141,cs),
(639,144,o),
(638,148,o),
(632,151,cs)
);
}
);
width = 656;
}
);
note = Z;
unicode = 90;
},
{
glyphname = Saltillo;
lastChange = "2025-02-27 09:03:58 +0000";
layers = (
{
layerId = "6AD408C6-91F3-4F0B-A103-73D10F5280D9";
shapes = (
{
closed = 1;
nodes = (
(70,438,ls),
(70.331,428.951,o),
(74,425,o),
(83,425,cs),
(88,425,ls),
(96,425,o),
(100.669,428.951,o),
(101,438,cs),
(111,711,ls),
(111.331,720.049,o),
(106,724,o),
(98,724,cs),
(73,724,ls),
(64,724,o),
(59.669,720.049,o),
(60,711,cs)
);
}
);
width = 186;
},
{
layerId = m002;
shapes = (
{
closed = 1;
nodes = (
(70,438,ls),
(71,429,o),
(74,425,o),
(83,425,cs),
(103,425,ls),
(111,425,o),
(115,429,o),
(116,438,cs),
(136,711,ls),
(137,720,o),
(131,724,o),
(123,724,cs),
(63,724,ls),
(54,724,o),
(49,720,o),
(50,711,cs)
);
}
);
width = 186;
}
);
unicode = 42891;
},
{
glyphname = a;
kernLeft = a;
kernRight = a;
lastChange = "2025-06-18 09:58:12 +0000";
layers = (
{
anchors = (
{
name = bottom;
pos = (259,0);
},
{
name = ogonek;
pos = (479,24);
},
{
name = top;
pos = (252,440);
}
);
background = {
shapes = (
{
closed = 1;
nodes = (
(469,449,ls),
(469,451,o),
(469,451,o),
(467,451,c),
(466,451,l),
(466,451,o),
(465,451,o),
(462,450,cs),
(454,444,o),
(448,440,o),
(442,436,cs),
(426,424,o),
(406,413,o),
(375,400,c),
(338,433,o),
(290,451,o),
(232,451,cs),
(126,451,o),
(26,384,o),
(26,221,cs),
(26,50,o),
(142,-11,o),
(222,-11,cs),
(312,-11,o),
(346,46,o),
(356,70,c),
(352,45,o),
(346,-2,o),
(346,-8,cs),
(346,-11,o),
(347,-11,o),
(348,-11,cs),
(350,-11,ls),
(353,-11,o),
(355,-11,o),
(356,-10,cs),
(396,8,o),
(432,24,o),
(518,24,cs),
(527,24,o),
(532,28,o),
(532,36,cs),
(532,65,ls),
(532,71,o),
(530,76,o),
(521,77,cs),
(478,82,o),
(469,121,o),
(469,163,c)
);
},
{
closed = 1;
nodes = (
(346,124,l),
(344,119,o),
(324,66,o),
(261,66,cs),
(189,66,o),
(140,136,o),
(140,249,cs),
(140,322,o),
(163,392,o),
(248,392,cs),
(317,392,o),
(340,336,o),
(346,301,c)
);
}
);
};
layerId = "6AD408C6-91F3-4F0B-A103-73D10F5280D9";
shapes = (
{
closed = 1;
nodes = (
(364,105,l),
(362,100,o),
(328,37,o),
(244,37,cs),
(159,37,o),
(102,120,o),
(102,253,cs),
(102,338,o),
(129,421,o),
(229,421,cs),
(320,421,o),
(364,373.992,o),
(364,291.036,cs)
);
},
{
closed = 1;
nodes = (
(430,449,ls),
(430,451,o),
(429,451,o),
(427,451,cs),
(423,451,o),
(401,416,o),
(375,400,c),
(338,433,o),
(290,451,o),
(232,451,cs),
(126,451,o),
(26,384,o),
(26,221,cs),
(26,50,o),
(142,-11,o),
(222,-11,cs),
(326,-11,o),
(367,66,o),
(373,90,c),
(368,90,l),
(361,50,o),
(356,0,o),
(356,-8,cs),
(356,-11,o),
(357,-11,o),
(358,-11,cs),
(360,-11,ls),
(363,-11,o),
(364.71,-10.58,o),
(366,-10,cs),
(406,8,o),
(453,24,o),
(479,24,cs),
(488,24,o),
(493,28,o),
(493,36,cs),
(493,45,ls),
(493,51,o),
(491,56,o),
(482,57,cs),
(439,62,o),
(430,81,o),
(430,123,cs)
);
}
);
width = 506;
},
{
anchors = (
{
name = bottom;
pos = (281,0);
},
{
name = ogonek;
pos = (483,23);
},
{
name = top;
pos = (252,440);
}
);
background = {
shapes = (
{
closed = 1;
nodes = (
(469,449,ls),
(469,451,o),
(469,451,o),
(467,451,c),
(466,451,l),
(466,451,o),
(465,451,o),
(462,450,cs),
(454,444,o),
(448,440,o),
(442,436,cs),
(426,424,o),
(406,413,o),
(375,400,c),
(338,433,o),
(290,451,o),
(232,451,cs),
(126,451,o),
(26,384,o),
(26,221,cs),
(26,50,o),
(142,-11,o),
(222,-11,cs),
(312,-11,o),
(346,46,o),
(356,70,c),
(352,45,o),
(346,-2,o),
(346,-8,cs),
(346,-11,o),
(347,-11,o),
(348,-11,cs),
(350,-11,ls),
(353,-11,o),
(355,-11,o),
(356,-10,cs),
(396,8,o),
(432,24,o),
(518,24,cs),
(527,24,o),
(532,28,o),
(532,36,cs),
(532,65,ls),
(532,71,o),
(530,76,o),
(521,77,cs),
(478,82,o),
(469,121,o),
(469,163,c)
);
},
{
closed = 1;
nodes = (
(346,124,l),
(344,119,o),
(324,66,o),
(261,66,cs),
(189,66,o),
(140,136,o),
(140,249,cs),
(140,322,o),
(163,392,o),
(248,392,cs),
(317,392,o),
(340,336,o),
(346,301,c)
);
}
);
};
layerId = m002;
shapes = (
{
closed = 1;
nodes = (
(346,124,l),
(344,119,o),
(324,66,o),
(261,66,cs),
(189,66,o),
(140,136,o),
(140,249,cs),
(140,322,o),
(163,392,o),
(248,392,cs),
(317,392,o),
(346,352.871,o),
(346,286.748,cs)
);
},
{
closed = 1;
nodes = (
(469,449,ls),
(469,451,o),
(468,451,o),
(466,451,cs),
(458,451,o),
(430,421,o),
(375,400,c),
(338,433,o),
(290,451,o),
(232,451,cs),
(126,451,o),
(26,384,o),
(26,221,cs),
(26,50,o),
(142,-11,o),
(222,-11,cs),
(326,-11,o),
(357,66,o),
(363,90,c),
(358,90,l),
(351,50,o),
(346,0,o),
(346,-8,cs),
(346,-11,o),
(347,-11,o),
(348,-11,cs),
(350,-11,ls),
(353,-11,o),
(354.71,-10.58,o),
(356,-10,cs),
(396,8,o),
(432,24,o),
(518,24,cs),
(527,24,o),
(532,28,o),
(532,36,cs),
(532,65,ls),
(532,71,o),
(530,76,o),
(521,77,cs),
(478,82,o),
(469,121,o),
(469,163,cs)
);
}
);
width = 545;
}
);
note = a;
unicode = 97;
},
{
glyphname = ae;
kernLeft = a;
kernRight = e;
lastChange = "2025-02-27 10:58:26 +0000";
layers = (
{
anchors = (
{
name = top;
pos = (558.104,440);
}
);
background = {
shapes = (
{
closed = 1;
nodes = (
(326,-11,o),
(356,65,o),
(358,78,c),
(361,109,l),
(346,-9,ls),
(346,-11,o),
(347,-11,o),
(348,-11,cs),
(350,-11,ls),
(353,-11,o),
(355,-11,o),
(356,-10,cs),
(386,4,o),
(414,16,o),
(465,21,c),
(500,1,o),
(541,-11,o),
(590,-11,cs),
(679,-11,o),
(733,32,o),
(766,92,cs),
(769,97,o),
(772,103,o),
(772,107,cs),
(772,110,o),
(771,113,o),
(768,114,cs),
(740,131,o),
(738,132,o),
(733,132,cs),
(730,132,o),
(728,130,o),
(726,128,cs),
(695,83,o),
(651,62,o),
(613,62,cs),
(546,62,o),
(502,108,o),
(481,158,c),
(737,269,ls),
(743,272,o),
(744,275,o),
(744,280,cs),
(744,347,o),
(679,450,o),
(563,450,cs),
(531,450,o),
(498,444,o),
(469,430,c),
(469,450,ls),
(469,451,o),
(468,451,o),
(467,451,c),
(466,451,l),
(466,451,o),
(465,451,o),
(462,450,cs),
(457,445,o),
(451,441,o),
(443,436,cs),
(428,425,o),
(407,414,o),
(375,400,c),
(338,433,o),
(290,451,o),
(232,451,cs),
(126,451,o),
(26,384,o),
(26,221,cs),
(26,50,o),
(142,-11,o),
(222,-11,cs)
);
},
{
closed = 1;
nodes = (
(189,66,o),
(140,136,o),
(140,249,cs),
(140,322,o),
(163,392,o),
(248,392,cs),
(317,392,o),
(340,336,o),
(346,301,c),
(346,124,l),
(344,119,o),
(324,66,o),
(261,66,cs)
);
},
{
closed = 1;
nodes = (
(464,233,o),
(463,262,o),
(463,280,cs),
(463,337,o),
(493,380,o),
(541,380,cs),
(582,380,o),
(612,340,o),
(612,283,c),
(471,212,l)
);
}
);
};
layerId = "6AD408C6-91F3-4F0B-A103-73D10F5280D9";
shapes = (
{
ref = a;
},
{
alignment = -1;
pos = (340.474,0);
ref = e;
}
);
width = 764.61;
},
{
anchors = (
{
name = top;
pos = (563.962,440);
}
);
background = {
shapes = (
{
closed = 1;
nodes = (
(326,-11,o),
(356,65,o),
(358,78,c),
(361,109,l),
(346,-9,ls),
(346,-11,o),
(347,-11,o),
(348,-11,cs),
(350,-11,ls),
(353,-11,o),
(355,-11,o),
(356,-10,cs),
(386,4,o),
(414,16,o),
(465,21,c),
(500,1,o),
(541,-11,o),
(590,-11,cs),
(679,-11,o),
(733,32,o),
(766,92,cs),
(769,97,o),
(772,103,o),
(772,107,cs),
(772,110,o),
(771,113,o),
(768,114,cs),
(740,131,o),
(738,132,o),
(733,132,cs),
(730,132,o),
(728,130,o),
(726,128,cs),
(695,83,o),
(651,62,o),
(613,62,cs),
(546,62,o),
(502,108,o),
(481,158,c),
(737,269,ls),
(743,272,o),
(744,275,o),
(744,280,cs),
(744,347,o),
(679,450,o),
(563,450,cs),
(531,450,o),
(498,444,o),
(469,430,c),
(469,450,ls),
(469,451,o),
(468,451,o),
(467,451,c),
(466,451,l),
(466,451,o),
(465,451,o),
(462,450,cs),
(457,445,o),
(451,441,o),
(443,436,cs),
(428,425,o),
(407,414,o),
(375,400,c),
(338,433,o),
(290,451,o),
(232,451,cs),
(126,451,o),
(26,384,o),
(26,221,cs),
(26,50,o),
(142,-11,o),
(222,-11,cs)
);
},
{
closed = 1;
nodes = (
(189,66,o),
(140,136,o),
(140,249,cs),
(140,322,o),
(163,392,o),
(248,392,cs),
(317,392,o),
(340,336,o),
(346,301,c),
(346,124,l),
(344,119,o),
(324,66,o),
(261,66,cs)
);
},
{
closed = 1;
nodes = (
(464,233,o),
(463,262,o),
(463,280,cs),
(463,337,o),
(493,380,o),
(541,380,cs),
(582,380,o),
(612,340,o),
(612,283,c),
(471,212,l)
);
}
);
};
layerId = m002;
shapes = (
{
ref = a;
},
{
alignment = -1;
pos = (337.388,0);
ref = e;
}
);
width = 790.39;
}
);
metricLeft = a;
metricRight = e;
note = ae;
unicode = 230;
},
{
glyphname = b;
kernLeft = b;
kernRight = b;
lastChange = "2026-05-05 09:50:36 +0000";
layers = (
{
anchors = (
{
name = bottom;
pos = (241,0);
},
{
name = center;
pos = (121,744);
},
{
name = top;
pos = (241,440);
}
);
hints = (
{
horizontal = 1;
place = (704,-20);
target = down;
type = TopGhost;
}
);
layerId = "6AD408C6-91F3-4F0B-A103-73D10F5280D9";
shapes = (
{
closed = 1;
nodes = (
(371,-11,o),
(456,84,o),
(456,219,cs),
(456,390,o),
(347,451,o),
(252,451,cs),
(202,451,o),
(161,432,o),
(133,408,c),
(133,703,ls),
(133,704,o),
(132,704,o),
(131,704,cs),
(130,704,ls),
(128,704,o),
(126,703,o),
(123,699,cs),
(93,658,o),
(56,638,o),
(17,621,cs),
(10,618,o),
(4,617,o),
(4,610,cs),
(4,600,ls),
(4,594,o),
(6,589,o),
(15,588,cs),
(63,583,o),
(67,555,o),
(67,506,cs),
(67,169,ls),
(67,54,o),
(131,-11,o),
(245,-11,cs)
);
},
{
closed = 1;
nodes = (
(184,20,o),
(133,56,o),
(133,169,cs),
(133,386,l),
(158,405,o),
(186,414,o),
(215,414,cs),
(324,414,o),
(382,329,o),
(382,194,cs),
(382,106,o),
(348,20,o),
(245,20,cs)
);
}
);
width = 482;
},
{
anchors = (
{
name = bottom;
pos = (268,0);
},
{
name = center;
pos = (134,744);
},
{
name = top;
pos = (268,440);
}
);
hints = (
{
horizontal = 1;
place = (704,-20);
target = down;
type = TopGhost;
}
);
layerId = m002;
shapes = (
{
closed = 1;
nodes = (
(422,-11,o),
(510,84,o),
(510,219,cs),
(510,390,o),
(391,451,o),
(296,451,cs),
(246,451,o),
(205,432,o),
(189,408,c),
(189,702,ls),
(189,703,o),
(188,704,o),
(187,704,cs),
(186,704,ls),
(184,704,o),
(184,704,o),
(181,702,cs),
(131,662,o),
(92,638,o),
(19,621,cs),
(10,619,o),
(6,617,o),
(6,610,cs),
(6,580,ls),
(6,574,o),
(8,569,o),
(17,568,cs),
(65,563,o),
(69,516,o),
(69,467,cs),
(69,189,ls),
(69,44,o),
(162,-11,o),
(279,-11,cs)
);
},
{
closed = 1;
nodes = (
(238,47,o),
(189,84,o),
(189,171,cs),
(189,351,l),
(210,367,o),
(233,374,o),
(257,374,cs),
(347,374,o),
(396,304,o),
(396,191,cs),
(396,118,o),
(373,47,o),
(288,47,cs)
);
}
);
width = 536;
}
);
note = b;
unicode = 98;
},
{
glyphname = c;
kernLeft = a;
kernRight = c;
lastChange = "2026-05-05 10:55:35 +0000";
layers = (
{
anchors = (
{
name = bottom;
pos = (249,0);
},
{
name = top;
pos = (236,440);
}
);
background = {
shapes = (
{
closed = 1;
nodes = (
(392,135,ls),
(390,136,o),
(387,137,o),
(385,137,cs),
(381,137,o),
(377,136,o),
(374,131,cs),
(348,91,o),
(306,67,o),
(260,67,cs),
(171,67,o),
(140,149,o),
(140,236,cs),
(140,308,o),
(162,380,o),
(229,380,cs),
(281,380,o),
(304,341,o),
(301,301,cs),
(300,291,ls),
(300,288,o),
(301,285,o),
(306,285,cs),
(308,285,o),
(312,286,o),
(314,287,cs),
(415,313,ls),
(422,315,o),
(426,318,o),
(426,323,cs),
(426,325,o),
(426,326,o),
(425,329,cs),
(410,391,o),
(365,451,o),
(249,451,cs),
(150,451,o),
(40,387,o),
(27,241,cs),
(17,115,o),
(105,-8,o),
(237,-8,cs),
(315,-8,o),
(386,25,o),
(421,100,cs),
(422,103,o),
(422,106,o),
(422,107,cs),
(422,112,o),
(420,115,o),
(415,119,cs)
);
},
{
closed = 1;
nodes = (
(392,135,ls),
(390,136,o),
(387,137,o),
(385,137,cs),
(381,137,o),
(377,136,o),
(374,131,cs),
(348,91,o),
(306,67,o),
(260,67,cs),
(171,67,o),
(140,149,o),
(140,236,cs),
(140,308,o),
(162,380,o),
(229,380,cs),
(278,380,o),
(301,345,o),
(301,308,cs),
(301,300,o),
(300,296,o),
(300,291,cs),
(300,288,o),
(301,285,o),
(306,285,cs),
(308,285,o),
(312,286,o),
(314,287,cs),
(415,313,ls),
(422,315,o),
(426,318,o),
(426,323,cs),
(426,325,o),
(426,326,o),
(425,329,cs),
(410,391,o),
(365,451,o),
(249,451,cs),
(150,451,o),
(40,387,o),
(27,241,cs),
(17,115,o),
(105,-11,o),
(237,-11,cs),
(315,-11,o),
(386,25,o),
(421,100,cs),
(422,103,o),
(422,106,o),
(422,107,cs),
(422,112,o),
(420,115,o),
(415,119,cs)
);
}
);
};
layerId = "6AD408C6-91F3-4F0B-A103-73D10F5280D9";
shapes = (
{
closed = 1;
nodes = (
(316,-11,o),
(377,24,o),
(413,104,cs),
(415.753,110.117,o),
(416,112,o),
(412,114,cs),
(405,118,ls),
(401.87,119.789,o),
(400.099,118.949,o),
(398,115,cs),
(356,36,o),
(305,22,o),
(254,22,cs),
(153,22,o),
(103,133,o),
(103,238,cs),
(103,325,o),
(132,427,o),
(241,427,cs),
(305,427,o),
(328,372,o),
(328,318,cs),
(328,310,o),
(326,298,o),
(326,296,cs),
(326,294,o),
(328,293,o),
(331,294,cs),
(396,311,ls),
(409,314,o),
(414,323,o),
(411,334,cs),
(397,396,o),
(346,452,o),
(241,452,cs),
(151,452,o),
(42,388,o),
(30,241,cs),
(19,115,o),
(108,-11,o),
(238,-11,cs)
);
}
);
width = 452;
},
{
anchors = (
{
name = bottom;
pos = (249,0);
},
{
name = top;
pos = (236,440);
}
);
background = {
shapes = (
{
closed = 1;
nodes = (
(392,135,ls),
(390,136,o),
(387,137,o),
(385,137,cs),
(381,137,o),
(377,136,o),
(374,131,cs),
(348,91,o),
(306,67,o),
(260,67,cs),
(171,67,o),
(140,149,o),
(140,236,cs),
(140,308,o),
(162,380,o),
(229,380,cs),
(281,380,o),
(304,341,o),
(301,301,cs),
(300,291,ls),
(300,288,o),
(301,285,o),
(306,285,cs),
(308,285,o),
(312,286,o),
(314,287,cs),
(415,313,ls),
(422,315,o),
(426,318,o),
(426,323,cs),
(426,325,o),
(426,326,o),
(425,329,cs),
(410,391,o),
(365,451,o),
(249,451,cs),
(150,451,o),
(40,387,o),
(27,241,cs),
(17,115,o),
(105,-8,o),
(237,-8,cs),
(315,-8,o),
(386,25,o),
(421,100,cs),
(422,103,o),
(422,106,o),
(422,107,cs),
(422,112,o),
(420,115,o),
(415,119,cs)
);
}
);
};
layerId = m002;
shapes = (
{
closed = 1;
nodes = (
(315,-11,o),
(387,24,o),
(421,100,cs),
(425,109,o),
(424,112,o),
(419,116,cs),
(392,135,ls),
(386,139,o),
(378,138,o),
(374,131,cs),
(348,91,o),
(306,67,o),
(260,67,cs),
(171,67,o),
(140,149,o),
(140,236,cs),
(140,308,o),
(162,380,o),
(229,380,cs),
(278,380,o),
(301,345,o),
(301,308,cs),
(301,300,o),
(300,296,o),
(300,291,cs),
(300,283,o),
(308,285,o),
(314,287,cs),
(415,313,ls),
(425,316,o),
(427,321,o),
(425,329,cs),
(410,391,o),
(365,451,o),
(249,451,cs),
(150,451,o),
(40,387,o),
(27,241,cs),
(17,115,o),
(105,-11,o),
(237,-11,cs)
);
}
);
width = 452;
}
);
note = c;
unicode = 99;
},
{
glyphname = d;
kernLeft = a;
kernRight = a;
lastChange = "2025-02-27 13:08:36 +0000";
layers = (
{
anchors = (
{
name = bottom;
pos = (297,0);
}
);
background = {
shapes = (
{
closed = 1;
nodes = (
(469,702,ls),
(469,704,o),
(469,704,o),
(467,704,cs),
(466,704,ls),
(465,704,o),
(465,704,o),
(462,702,cs),
(438,685,o),
(389,651,o),
(297,620,cs),
(289,618,o),
(283,616,o),
(283,609,cs),
(283,579,ls),
(283,573,o),
(285,568,o),
(294,568,cs),
(342,562,o),
(346,514,o),
(346,466,cs),
(346,410,l),
(315,437,o),
(276,451,o),
(232,451,cs),
(126,451,o),
(26,384,o),
(26,221,cs),
(26,50,o),
(142,-11,o),
(222,-11,cs),
(312,-11,o),
(346,46,o),
(356,70,c),
(351,43,o),
(348,18,o),
(346,-9,cs),
(346,-11,o),
(347,-11,o),
(348,-11,cs),
(351,-11,ls),
(353,-11,o),
(355,-11,o),
(356,-10,cs),
(396,8,o),
(432,24,o),
(518,24,cs),
(527,24,o),
(532,28,o),
(532,36,cs),
(532,65,ls),
(532,71,o),
(530,76,o),
(521,77,cs),
(478,82,o),
(469,121,o),
(469,163,cs)
);
},
{
closed = 1;
nodes = (
(346,141,l),
(338,108,o),
(309,66,o),
(261,66,cs),
(189,66,o),
(140,136,o),
(140,249,cs),
(140,322,o),
(163,385,o),
(248,385,cs),
(306,385,o),
(346,340,o),
(346,285,cs)
);
}
);
};
hints = (
{
horizontal = 1;
place = (704,-20);
target = down;
type = TopGhost;
}
);
layerId = "6AD408C6-91F3-4F0B-A103-73D10F5280D9";
shapes = (
{
closed = 1;
nodes = (
(326,-11,o),
(367,66,o),
(373,90,c),
(368,90,l),
(361,50,o),
(356,0,o),
(356,-8,cs),
(356,-11,o),
(357,-11,o),
(358,-11,cs),
(360,-11,ls),
(363,-11,o),
(365,-11,o),
(366,-10,cs),
(406,8,o),
(453,24,o),
(479,24,cs),
(488,24,o),
(493,28,o),
(493,36,cs),
(493,45,ls),
(493,51,o),
(491,56,o),
(482,57,cs),
(439,62,o),
(430,81,o),
(430,123,cs),
(430,703,ls),
(430,704,o),
(429,704,o),
(428,704,cs),
(427,704,ls),
(425,704,o),
(423,703,o),
(420,699,cs),
(390,658,o),
(353,638,o),
(314,621,cs),
(307,618,o),
(301,617,o),
(301,610,cs),
(301,600,ls),
(301,594,o),
(303,589,o),
(312,588,cs),
(360,583,o),
(364,555,o),
(364,506,c),
(364,396,l),
(375,400,l),
(338,433,o),
(290,451,o),
(232,451,cs),
(126,451,o),
(26,384,o),
(26,221,cs),
(26,50,o),
(142,-11,o),
(222,-11,cs)
);
},
{
closed = 1;
nodes = (
(159,37,o),
(102,120,o),
(102,253,cs),
(102,338,o),
(129,421,o),
(229,421,cs),
(320,421,o),
(357,355,o),
(364,314,c),
(364,105,l),
(362,100,o),
(328,37,o),
(244,37,cs)
);
}
);
width = 506;
},
{
anchors = (
{
name = bottom;
pos = (297,0);
}
);
background = {
shapes = (
{
closed = 1;
nodes = (
(346,124,l),
(344,119,o),
(324,66,o),
(261,66,cs),
(189,66,o),
(140,136,o),
(140,249,cs),
(140,322,o),
(163,392,o),
(248,392,cs),
(317,392,o),
(340,336,o),
(346,301,c)
);
},
{
closed = 1;
nodes = (
(469,449,ls),
(469,451,o),
(468,451,o),
(466,451,cs),
(458,451,o),
(430,421,o),
(375,400,c),
(338,433,o),
(290,451,o),
(232,451,cs),
(126,451,o),
(26,384,o),
(26,221,cs),
(26,50,o),
(142,-11,o),
(222,-11,cs),
(326,-11,o),
(357,66,o),
(363,90,c),
(358,90,l),
(351,50,o),
(346,0,o),
(346,-8,cs),
(346,-11,o),
(347,-11,o),
(348,-11,cs),
(350,-11,ls),
(353,-11,o),
(355,-11,o),
(356,-10,cs),
(396,8,o),
(432,24,o),
(518,24,cs),
(527,24,o),
(532,28,o),
(532,36,cs),
(532,65,ls),
(532,71,o),
(530,76,o),
(521,77,cs),
(478,82,o),
(469,121,o),
(469,163,cs)
);
}
);
};
hints = (
{
horizontal = 1;
place = (704,-20);
target = down;
type = TopGhost;
}
);
layerId = m002;
shapes = (
{
closed = 1;
nodes = (
(326,-11,o),
(357,66,o),
(363,90,c),
(358,90,l),
(351,50,o),
(349,26,o),
(346,-9,cs),
(346,-11,o),
(347,-11,o),
(348,-11,cs),
(351,-11,ls),
(353,-11,o),
(355,-11,o),
(356,-10,cs),
(396,8,o),
(432,24,o),
(518,24,cs),
(527,24,o),
(532,28,o),
(532,36,cs),
(532,65,ls),
(532,71,o),
(530,76,o),
(521,77,cs),
(478,82,o),
(469,121,o),
(469,163,cs),
(469,702,ls),
(469,703,o),
(468,704,o),
(467,704,cs),
(466,704,ls),
(464,704,o),
(464,704,o),
(461,702,cs),
(411,662,o),
(372,638,o),
(299,621,cs),
(290,619,o),
(286,617,o),
(286,610,cs),
(286,580,ls),
(286,574,o),
(288,569,o),
(297,568,cs),
(345,563,o),
(349,516,o),
(349,467,cs),
(349,398,l),
(363,405,l),
(353,420,o),
(310,451,o),
(232,451,cs),
(126,451,o),
(26,384,o),
(26,221,cs),
(26,50,o),
(142,-11,o),
(222,-11,cs)
);
},
{
closed = 1;
nodes = (
(189,66,o),
(140,136,o),
(140,249,cs),
(140,322,o),
(163,392,o),
(248,392,cs),
(317,392,o),
(340,336,o),
(346,301,c),
(346,124,l),
(344,119,o),
(324,66,o),
(261,66,cs)
);
}
);
width = 545;
}
);
note = d;
unicode = 100;
},
{
glyphname = dcroat;
kernLeft = a;
kernRight = dcroat;
lastChange = "2026-05-05 10:45:18 +0000";
layers = (
{
hints = (
{
horizontal = 1;
place = (704,-20);
target = down;
type = TopGhost;
}
);
layerId = "6AD408C6-91F3-4F0B-A103-73D10F5280D9";
shapes = (
{
ref = d;
},
{
closed = 1;
nodes = (
(510,490,ls),
(518,490,o),
(523,495,o),
(523,503,cs),
(523,510,ls),
(523,519,o),
(518,524,o),
(510,524,cs),
(290,524,ls),
(281,524,o),
(276,519,o),
(276,510,cs),
(276,503,ls),
(276,495,o),
(281,490,o),
(290,490,cs)
);
}
);
width = 506;
},
{
hints = (
{
horizontal = 1;
place = (704,-20);
target = down;
type = TopGhost;
}
);
layerId = m002;
shapes = (
{
ref = d;
},
{
closed = 1;
nodes = (
(510,462,ls),
(518,462,o),
(523,467,o),
(523,475,cs),
(523,510,ls),
(523,519,o),
(518,524,o),
(510,524,cs),
(290,524,ls),
(281,524,o),
(276,519,o),
(276,510,cs),
(276,475,ls),
(276,467,o),
(281,462,o),
(290,462,cs)
);
}
);
width = 545;
}
);
note = dcroat;
unicode = 273;
},
{
glyphname = eth;
kernLeft = eth;
kernRight = eth;
lastChange = "2025-02-26 16:39:55 +0000";
layers = (
{
layerId = "6AD408C6-91F3-4F0B-A103-73D10F5280D9";
shapes = (
{
closed = 1;
nodes = (
(368.576,-10.943,o),
(439.944,91.645,o),
(439.944,215.608,cs),
(439.944,457.203,o),
(286.593,693.01,o),
(50,694,cs),
(42,694,o),
(38,689,o),
(38,681,cs),
(38,674,ls),
(38,666,o),
(42,661,o),
(51,660,cs),
(180.168,648.167,o),
(317.644,528.185,o),
(351.666,372.404,c),
(367.518,392.865,l),
(330.739,429.068,o),
(282.61,450.943,o),
(230.048,450.943,cs),
(96.292,450.943,o),
(25.996,348.226,o),
(25.996,224.39,cs),
(25.996,93.901,o),
(119.82,-10.943,o),
(234.892,-10.943,cs)
);
},
{
closed = 1;
nodes = (
(159.968,25.461,o),
(87.835,188.209,o),
(87.835,283.818,cs),
(87.835,362.632,o),
(136.549,414.539,o),
(197.563,414.539,cs),
(304.972,414.539,o),
(377.105,251.79,o),
(377.105,156.181,cs),
(377.105,77.367,o),
(328.39,25.461,o),
(267.377,25.461,cs)
);
},
{
closed = 1;
nodes = (
(161.39,520.076,o),
(164.184,521.239,o),
(167.39,525.076,cs),
(289.39,671.076,ls),
(292.111,674.332,o),
(293.39,677.076,o),
(293.39,680.076,cs),
(293.39,683.076,o),
(290.984,685.484,o),
(286.39,689.076,cs),
(282.181,692.368,ls),
(278.243,695.448,o),
(276.181,696.368,o),
(273.181,696.368,cs),
(269.181,696.368,o),
(266.387,694.204,o),
(263.181,690.368,cs),
(141.181,544.368,ls),
(138.869,541.601,o),
(137.181,538.368,o),
(137.181,536.368,cs),
(137.181,532.368,o),
(138.954,529.038,o),
(143.181,526.368,cs),
(148.39,523.076,ls),
(152.171,520.687,o),
(154.39,520.076,o),
(157.39,520.076,cs)
);
}
);
width = 504;
},
{
layerId = m002;
shapes = (
{
closed = 1;
nodes = (
(381,-11,o),
(477,97,o),
(477,228,cs),
(477,452,o),
(289,693,o),
(50,694,cs),
(42,694,o),
(38,689,o),
(38,681,cs),
(38,649,ls),
(38,641,o),
(42,636,o),
(51,635,cs),
(198.69,621.471,o),
(289.184,502.445,o),
(308.15,412.623,c),
(344.825,434.979,l),
(308.015,442.267,o),
(280.19,449,o),
(249,449,cs),
(127,449,o),
(27,369,o),
(27,220,cs),
(27,92,o),
(128,-11,o),
(255,-11,cs)
);
},
{
closed = 1;
nodes = (
(182,53,o),
(141,187,o),
(141,263,cs),
(141,327,o),
(170,382,o),
(234,382,cs),
(322,382,o),
(363,248,o),
(363,172,cs),
(363,103,o),
(331,53,o),
(270,53,cs)
);
},
{
closed = 1;
nodes = (
(157,509,o),
(159.794,510.163,o),
(163,514,cs),
(285,660,ls),
(287.72,663.256,o),
(289,666,o),
(289,669,cs),
(289,672,o),
(286.611,674.43,o),
(282,678,cs),
(251,702,ls),
(247.046,705.061,o),
(245,706,o),
(242,706,cs),
(238,706,o),
(235.206,703.837,o),
(232,700,cs),
(110,554,ls),
(107.688,551.233,o),
(106,548,o),
(106,546,cs),
(106,542,o),
(108,539,o),
(112,536,cs),
(144,512,ls),
(147.578,509.317,o),
(150,509,o),
(153,509,cs)
);
}
);
width = 504;
}
);
note = eth;
unicode = 240;
},
{
glyphname = e;
kernLeft = a;
kernRight = e;
lastChange = "2026-05-05 10:54:10 +0000";
layers = (
{
anchors = (
{
name = bottom;
pos = (240,0);
},
{
name = ogonek;
pos = (283.68,-5.924);
},
{
name = top;
pos = (205,440);
}
);
background = {
shapes = (
{
closed = 1;
nodes = (
(427.911,106.668,o),
(426.45,110.639,o),
(421,114,cs),
(393.27,131.098,ls),
(387.132,134.882,o),
(381.676,132.655,o),
(377.151,125.983,cs),
(348,83,o),
(304,62,o),
(266,62,cs),
(192.608,62,o),
(147.173,115.585,o),
(129.695,169.949,c),
(128.118,200.474,l),
(106.058,237.684,o),
(102.343,380,o),
(194,380,cs),
(246.59,380,o),
(283.623,310.858,o),
(255.101,224.843,c),
(321.349,311.174,l),
(72.852,186.926,l),
(81.55,135.169,l),
(389,269,ls),
(395.151,271.677,o),
(397,275,o),
(397,280,cs),
(397,347,o),
(332,451,o),
(207.584,451,cs),
(112,451,o),
(6,387,o),
(6,224,cs),
(6,97,o),
(96,-11,o),
(242,-11,cs),
(333,-11,o),
(386,32,o),
(423.09,98.08,cs)
);
}
);
};
layerId = "6AD408C6-91F3-4F0B-A103-73D10F5280D9";
shapes = (
{
closed = 1;
nodes = (
(418,110,o),
(417.883,111.781,o),
(414,114,cs),
(407,118,ls),
(403.87,119.789,o),
(402.25,118.865,o),
(400,115,cs),
(362.353,50.351,o),
(314.614,22.906,o),
(258.466,22.906,cs),
(179.336,22.906,o),
(124.159,92.981,o),
(105.931,172.368,c),
(108.388,177.485,l),
(74.319,264.312,o),
(98.372,414.094,o),
(211.399,414.094,cs),
(306.453,414.094,o),
(328.252,326.468,o),
(315.23,263.08,c),
(341.349,301.174,l),
(56.359,167.006,l),
(67.05,143.668,l),
(389,279,ls),
(395.184,281.599,o),
(397,285,o),
(397,290,cs),
(397,357,o),
(342.207,451,o),
(220.933,451,cs),
(132.207,451,o),
(26,387,o),
(26,224,cs),
(26,97,o),
(116,-11,o),
(242,-11,cs),
(330.083,-11,o),
(382.406,38.811,o),
(415,104,cs)
);
}
);
width = 424.14;
},
{
anchors = (
{
name = bottom;
pos = (260,0);
},
{
name = ogonek;
pos = (305.172,-5.924);
},
{
name = top;
pos = (225,440);
}
);
background = {
shapes = (
{
closed = 1;
nodes = (
(101.55,135.169,l),
(409,269,ls),
(415.151,271.677,o),
(417,275,o),
(417,280,cs),
(417,347,o),
(352,451,o),
(227.584,451,cs),
(132,451,o),
(26,387,o),
(26,224,cs),
(26,97,o),
(116,-11,o),
(262,-11,cs),
(352,-11,o),
(406,32,o),
(439,92,cs),
(441.81,97.109,o),
(445.181,103,o),
(445.181,107,cs),
(445.181,110,o),
(443.703,112.359,o),
(441,114,cs),
(413,131,o),
(411,132,o),
(406,132,cs),
(403,132,o),
(400.703,130.472,o),
(399,128,cs),
(368,83,o),
(324,62,o),
(286,62,cs),
(212.608,62,o),
(167.173,115.585,o),
(149.695,169.949,c),
(148.118,200.474,l),
(126.058,237.684,o),
(122.343,380,o),
(214,380,cs),
(266.59,380,o),
(303.623,310.858,o),
(275.101,224.843,c),
(341.349,311.174,l),
(92.852,186.926,l)
);
}
);
};
layerId = m002;
shapes = (
{
closed = 1;
nodes = (
(447.911,106.668,o),
(446.45,110.639,o),
(441,114,cs),
(413.27,131.098,ls),
(407.132,134.882,o),
(401.676,132.655,o),
(397.151,125.983,cs),
(368,83,o),
(324,62,o),
(286,62,cs),
(212.608,62,o),
(167.173,115.585,o),
(149.695,169.949,c),
(148.118,200.474,l),
(126.058,237.684,o),
(122.343,380,o),
(214,380,cs),
(266.59,380,o),
(303.623,310.858,o),
(275.101,224.843,c),
(341.349,311.174,l),
(92.852,186.926,l),
(101.55,135.169,l),
(409,269,ls),
(415.151,271.677,o),
(417,275,o),
(417,280,cs),
(417,347,o),
(352,451,o),
(227.584,451,cs),
(132,451,o),
(26,387,o),
(26,224,cs),
(26,97,o),
(116,-11,o),
(262,-11,cs),
(353,-11,o),
(406,32,o),
(443.09,98.08,cs)
);
}
);
width = 453;
},
{
anchors = (
{
name = bottom;
pos = (260,0);
},
{
name = ogonek;
pos = (362,24);
},
{
name = top;
pos = (225,440);
}
);
associatedMasterId = m002;
layerId = "DC1EBCA1-2F1F-423D-96C4-F23F45EC4FF8";
name = "25 févr. 25 à 11:59";
shapes = (
{
closed = 1;
nodes = (
(101.55,135.169,l),
(409,269,ls),
(415.151,271.677,o),
(417,275,o),
(417,280,cs),
(417,347,o),
(352,451,o),
(227.584,451,cs),
(132,451,o),
(26,387,o),
(26,224,cs),
(26,97,o),
(116,-11,o),
(262,-11,cs),
(352,-11,o),
(406,32,o),
(439,92,cs),
(441.81,97.109,o),
(445.181,103,o),
(445.181,107,cs),
(445.181,110,o),
(443.703,112.359,o),
(441,114,cs),
(413,131,o),
(411,132,o),
(406,132,cs),
(403,132,o),
(400.703,130.472,o),
(399,128,cs),
(368,83,o),
(324,62,o),
(286,62,cs),
(212.608,62,o),
(167.173,115.585,o),
(149.695,169.949,c),
(148.118,200.474,l),
(126.058,237.684,o),
(122.343,380,o),
(214,380,cs),
(266.59,380,o),
(303.623,310.858,o),
(275.101,224.843,c),
(341.349,311.174,l),
(92.852,186.926,l)
);
}
);
width = 453;
}
);
note = e;
unicode = 101;
},
{
glyphname = f;
lastChange = "2025-02-26 16:27:39 +0000";
layers = (
{
background = {
shapes = (
{
closed = 1;
nodes = (
(43,440,l),
(-22,440,ls),
(-31,440,o),
(-35,436,o),
(-35,427,cs),
(-35,400,ls),
(-35,392,o),
(-31,387,o),
(-22,387,cs),
(41,387,o),
(42,334,o),
(42,287,cs),
(42,136,ls),
(42,89,o),
(21,53,o),
(-22,53,cs),
(-31,53,o),
(-35,48,o),
(-35,40,cs),
(-35,13,ls),
(-35,4,o),
(-31,0,o),
(-22,0,cs),
(226,0,ls),
(234,0,o),
(239,4,o),
(239,13,cs),
(239,40,ls),
(239,48,o),
(234,53,o),
(226,53,cs),
(183,53,o),
(161,89,o),
(161,136,cs),
(161,376,l),
(279,376,ls),
(287,376,o),
(292,380,o),
(292,389,cs),
(292,427,ls),
(292,436,o),
(287,440,o),
(279,440,cs),
(161,440,l),
(161,498,ls),
(161,565,o),
(167,610,o),
(189,636,cs),
(200,649,o),
(213,656,o),
(226,656,cs),
(247,656,o),
(267,638,o),
(267,605,cs),
(267,589,o),
(262,570,o),
(251,547,cs),
(249,544,o),
(248,540,o),
(248,538,cs),
(248,533,o),
(250,530,o),
(253,530,cs),
(258,530,o),
(317,543,o),
(349,550,cs),
(362,553,o),
(368,558,o),
(371,567,cs),
(377,582,o),
(380,597,o),
(380,611,cs),
(380,664,o),
(335,704,o),
(242,704,cs),
(88,704,o),
(43,552,o),
(43,447,cs)
);
}
);
};
layerId = "6AD408C6-91F3-4F0B-A103-73D10F5280D9";
shapes = (
{
closed = 1;
nodes = (
(96,440,l),
(31,440,ls),
(22,440,o),
(18,436,o),
(18,427,cs),
(18,420,ls),
(18,412,o),
(22,407,o),
(31,407,cs),
(94,407,o),
(95,354,o),
(95,307,cs),
(95,96,ls),
(95,49,o),
(74,33,o),
(31,33,cs),
(22,33,o),
(18,28,o),
(18,20,cs),
(18,13,ls),
(18,4,o),
(22,0,o),
(31,0,cs),
(226,0,ls),
(234,0,o),
(239,4,o),
(239,13,cs),
(239,20,ls),
(239,28,o),
(234,33,o),
(226,33,cs),
(183,33,o),
(161,49,o),
(161,96,cs),
(161,396,l),
(279,396,ls),
(287,396,o),
(292,400,o),
(292,409,cs),
(292,427,ls),
(292,436,o),
(287,440,o),
(279,440,cs),
(161,440,l),
(161,518,ls),
(161,584,o),
(170.6,676,o),
(226,676,cs),
(299.097,676,o),
(276.488,579.384,o),
(261,547,cs),
(257.909,540.538,o),
(255.182,530,o),
(265.546,530,cs),
(270.546,530,o),
(274,531,o),
(306,539,cs),
(318.943,542.236,o),
(325,547,o),
(328,556,cs),
(349.13,608.824,o),
(341.693,704,o),
(232,704,cs),
(121,704,o),
(96,573,o),
(96,468,cs)
);
}
);
width = 301;
},
{
layerId = m002;
shapes = (
{
closed = 1;
nodes = (
(96,440,l),
(31,440,ls),
(22,440,o),
(18,436,o),
(18,427,cs),
(18,400,ls),
(18,392,o),
(22,387,o),
(31,387,cs),
(94,387,o),
(95,334,o),
(95,287,cs),
(95,136,ls),
(95,89,o),
(74,53,o),
(31,53,cs),
(22,53,o),
(18,48,o),
(18,40,cs),
(18,13,ls),
(18,4,o),
(22,0,o),
(31,0,cs),
(279,0,ls),
(287,0,o),
(292,4,o),
(292,13,cs),
(292,40,ls),
(292,48,o),
(287,53,o),
(279,53,cs),
(236,53,o),
(214,89,o),
(214,136,cs),
(214,376,l),
(332,376,ls),
(340,376,o),
(345,380,o),
(345,389,cs),
(345,427,ls),
(345,436,o),
(340,440,o),
(332,440,cs),
(214,440,l),
(214,498,ls),
(214,564,o),
(223.6,656,o),
(279,656,cs),
(328.897,656,o),
(325.528,592.014,o),
(304,547,cs),
(299.048,536.646,o),
(300.038,530,o),
(310.538,530,cs),
(315.538,530,o),
(370,542,o),
(402,550,cs),
(414.943,553.236,o),
(421,558,o),
(424,567,cs),
(453.672,641.179,o),
(410.493,704,o),
(295,704,cs),
(141,704,o),
(96,552,o),
(96,447,cs)
);
}
);
width = 354;
}
);
note = f;
unicode = 102;
},
{
glyphname = g;
kernLeft = g;
kernRight = g;
lastChange = "2026-05-05 11:01:55 +0000";
layers = (
{
anchors = (
{
name = top;
pos = (229,440);
}
);
background = {
shapes = (
{
closed = 1;
nodes = (
(330.065,114,o),
(401.645,189,o),
(401.645,282,cs),
(401.645,312,o),
(397.184,338.057,o),
(374.815,372.556,c),
(420.276,361.203,o),
(442.828,397,o),
(442.828,454,cs),
(442.828,462,o),
(442.828,467,o),
(437.925,467,cs),
(436.945,467,o),
(435,466.92,o),
(431.036,466.112,cs),
(408.206,461.457,ls),
(397.113,459.195,o),
(394.318,451.903,o),
(394.318,441.846,cs),
(394.318,418.901,ls),
(394.318,398.923,o),
(388.381,389.426,o),
(374.815,389.426,cs),
(362.012,389.426,o),
(353.742,396.687,o),
(343.044,406.372,cs),
(312.88,433.681,o),
(268.086,451,o),
(222.399,451,cs),
(113.752,451,o),
(42.172,375,o),
(42.172,282,cs),
(42.172,181.705,o),
(122.849,114,o),
(222.399,114,cs)
);
},
{
closed = 1;
nodes = (
(313,-189,o),
(413.748,-155,o),
(413.748,-72.086,cs),
(413.748,24.719,o),
(320.952,38.637,o),
(218,44.552,cs),
(119.98,50.183,o),
(83.503,61.867,o),
(83.503,99.072,cs),
(83.503,125.666,o),
(132.01,148.078,o),
(145.197,143.533,c),
(126,161.854,l),
(88.651,151.17,o),
(46,125.061,o),
(46,81,cs),
(46,8.719,o),
(134.058,-7.942,o),
(212,-11.849,cs),
(291.052,-15.812,o),
(347.981,-23.973,o),
(347.981,-78.281,cs),
(347.981,-125.281,o),
(295,-156,o),
(218,-156,cs),
(107.983,-156,o),
(82.38,-116.686,o),
(82.38,-63.267,cs),
(82.38,-31.318,o),
(97.895,-3.789,o),
(137.428,9.006,c),
(105.193,17.988,l),
(59.427,-3.231,o),
(26,-33.223,o),
(26,-78.281,cs),
(26,-152.281,o),
(110,-189,o),
(217,-189,cs)
);
},
{
closed = 1;
nodes = (
(141.867,144.035,o),
(116,221.29,o),
(116,281.906,cs),
(116,343.71,o),
(141.867,420.965,o),
(223.084,420.965,cs),
(304.301,420.965,o),
(322,343.71,o),
(322,281.906,cs),
(322,221.29,o),
(304.301,144.035,o),
(223.084,144.035,cs)
);
}
);
};
layerId = "6AD408C6-91F3-4F0B-A103-73D10F5280D9";
shapes = (
{
closed = 1;
nodes = (
(330.065,114,o),
(401.645,189,o),
(401.645,282,cs),
(401.645,312,o),
(397.184,338.057,o),
(374.815,372.556,c),
(420.276,361.203,o),
(442.828,397,o),
(442.828,454,cs),
(442.828,462,o),
(442.828,467,o),
(437.925,467,cs),
(436.945,467,o),
(435,466.92,o),
(431.036,466.112,cs),
(408.206,461.457,ls),
(397.113,459.195,o),
(394.318,451.903,o),
(394.318,441.846,cs),
(394.318,418.901,ls),
(394.318,398.923,o),
(388.381,389.426,o),
(374.815,389.426,cs),
(362.012,389.426,o),
(353.742,396.687,o),
(343.044,406.372,cs),
(312.88,433.681,o),
(268.086,451,o),
(222.399,451,cs),
(113.752,451,o),
(42.172,375,o),
(42.172,282,cs),
(42.172,181.705,o),
(122.849,114,o),
(222.399,114,cs)
);
},
{
closed = 1;
nodes = (
(313,-189,o),
(413.748,-155,o),
(413.748,-72.086,cs),
(413.748,10.715,o),
(346.056,35.181,o),
(261.792,41.256,cs),
(197.126,45.918,ls),
(114.737,51.858,o),
(83.503,64.636,o),
(83.503,99.072,cs),
(83.503,125.666,o),
(132.01,148.078,o),
(145.197,143.533,c),
(126,161.854,l),
(88.651,151.17,o),
(46,125.061,o),
(46,81,cs),
(46,14.727,o),
(119.97,-5.571,o),
(192.412,-10.586,cs),
(255.267,-14.937,ls),
(311.167,-18.807,o),
(347.981,-34.511,o),
(347.981,-78.281,cs),
(347.981,-125.281,o),
(295,-156,o),
(218,-156,cs),
(107.983,-156,o),
(82.38,-116.686,o),
(82.38,-63.267,cs),
(82.38,-31.318,o),
(97.895,-3.789,o),
(137.428,9.006,c),
(105.193,17.988,l),
(59.427,-3.231,o),
(26,-33.223,o),
(26,-78.281,cs),
(26,-152.281,o),
(110,-189,o),
(217,-189,cs)
);
},
{
closed = 1;
nodes = (
(141.867,144.035,o),
(116,221.29,o),
(116,281.906,cs),
(116,343.71,o),
(141.867,420.965,o),
(223.084,420.965,cs),
(304.301,420.965,o),
(322,343.71,o),
(322,281.906,cs),
(322,221.29,o),
(304.301,144.035,o),
(223.084,144.035,cs)
);
}
);
width = 459;
},
{
anchors = (
{
name = top;
pos = (229,440);
}
);
background = {
anchors = (
{
name = top;
pos = (229,440);
}
);
shapes = (
{
closed = 1;
nodes = (
(342,114,o),
(415,189,o),
(415,282,cs),
(415,312,o),
(408,340,o),
(394,363,c),
(434,363,o),
(457,397,o),
(457,454,cs),
(457,462,o),
(457,467,o),
(452,467,cs),
(451,467,o),
(449,467,o),
(445,466,cs),
(381,452,ls),
(373,451,o),
(371,446,o),
(371,439,cs),
(371,436,ls),
(371,419,o),
(364.139,413.311,o),
(356.139,413.311,cs),
(351.108,413.311,o),
(348,414,o),
(343,417,cs),
(312,438,o),
(271,451,o),
(222,451,cs),
(101,451,o),
(28,375,o),
(28,282,cs),
(28,181.705,o),
(110.277,114,o),
(222,114,cs)
);
},
{
closed = 1;
nodes = (
(323,-189,o),
(436,-155,o),
(436,-59,cs),
(436,47,o),
(335,66,o),
(232,71,cs),
(124,77,o),
(104,90,o),
(104,117,cs),
(104,129.736,o),
(112.01,140.469,o),
(125.197,143.533,c),
(90.043,166.459,l),
(52.694,155.775,o),
(26,125.061,o),
(26,81,cs),
(26,-7.589,o),
(121.255,-30.164,o),
(212,-33,cs),
(301,-38,o),
(353,-46,o),
(353,-77.951,cs),
(353,-111,o),
(305,-128,o),
(218,-128,cs),
(130,-128,o),
(106,-97,o),
(106,-70,cs),
(106,-44.188,o),
(119.325,-25.039,o),
(145.975,-14.702,c),
(84.505,8.205,l),
(47.365,-7.902,o),
(18,-36.942,o),
(18,-82,cs),
(18,-156,o),
(110,-189,o),
(217,-189,cs)
);
},
{
closed = 1;
nodes = (
(155,166,o),
(136,231,o),
(136,282,cs),
(136,334,o),
(155,399,o),
(222,399,cs),
(289,399,o),
(302,334,o),
(302,282,cs),
(302,231,o),
(289,166,o),
(222,166,cs)
);
}
);
};
layerId = m002;
shapes = (
{
closed = 1;
nodes = (
(342,114,o),
(415,189,o),
(415,282,cs),
(415,312,o),
(408,340,o),
(394,363,c),
(434,363,o),
(457,397,o),
(457,454,cs),
(457,462,o),
(457,467,o),
(452,467,cs),
(451,467,o),
(449,467,o),
(445,466,cs),
(381,452,ls),
(373,451,o),
(371,446,o),
(371,439,cs),
(371,436,ls),
(371,419,o),
(364.139,413.311,o),
(356.139,413.311,cs),
(351.108,413.311,o),
(348,414,o),
(343,417,cs),
(312,438,o),
(271,451,o),
(222,451,cs),
(101,451,o),
(28,375,o),
(28,282,cs),
(28,181.705,o),
(110.277,114,o),
(222,114,cs)
);
},
{
closed = 1;
nodes = (
(323,-189,o),
(436,-155,o),
(436,-59,cs),
(436,31.689,o),
(362.326,61.579,o),
(276.21,67.737,cs),
(200.89,73.123,ls),
(119.956,78.91,o),
(104,92.827,o),
(104,117,cs),
(104,129.736,o),
(112.01,140.469,o),
(125.197,143.533,c),
(90.043,166.459,l),
(52.694,155.775,o),
(26,125.061,o),
(26,81,cs),
(26,-1.348,o),
(108.309,-26.637,o),
(192.791,-32.091,cs),
(259.393,-36.391,ls),
(319.311,-40.259,o),
(353,-52.181,o),
(353,-77.951,cs),
(353,-111,o),
(305,-128,o),
(218,-128,cs),
(130,-128,o),
(106,-97,o),
(106,-70,cs),
(106,-44.188,o),
(119.325,-25.039,o),
(145.975,-14.702,c),
(84.505,8.205,l),
(47.365,-7.902,o),
(18,-36.942,o),
(18,-82,cs),
(18,-156,o),
(110,-189,o),
(217,-189,cs)
);
},
{
closed = 1;
nodes = (
(155,166,o),
(136,231,o),
(136,282,cs),
(136,334,o),
(155,399,o),
(222,399,cs),
(289,399,o),
(302,334,o),
(302,282,cs),
(302,231,o),
(289,166,o),
(222,166,cs)
);
}
);
width = 472;
},
{
anchors = (
{
name = top;
pos = (229,440);
}
);
associatedMasterId = "6AD408C6-91F3-4F0B-A103-73D10F5280D9";
background = {
shapes = (
{
closed = 1;
nodes = (
(304.301,420.965,o),
(322,343.71,o),
(322,281.906,cs),
(322,221.29,o),
(304.301,144.035,o),
(223.084,144.035,cs),
(141.867,144.035,o),
(116,221.29,o),
(116,281.906,cs),
(116,343.71,o),
(141.867,420.965,o),
(223.084,420.965,cs)
);
},
{
closed = 1;
nodes = (
(90.043,166.459,l),
(52.694,155.775,o),
(26,125.061,o),
(26,81,cs),
(26,48,o),
(40,20,o),
(70,1,c),
(40,-16,o),
(18,-43,o),
(18,-82,cs),
(18,-156,o),
(110,-189,o),
(217,-189,cs),
(323,-189,o),
(436,-155,o),
(436,-59,cs),
(436,47,o),
(335,66,o),
(232,71,cs),
(124,77,o),
(104,90,o),
(104,117,cs),
(104,129.736,o),
(112.01,140.469,o),
(125.197,143.533,c)
);
},
{
closed = 1;
nodes = (
(130,-128,o),
(106,-97,o),
(106,-70,cs),
(106,-50,o),
(114,-34,o),
(130,-23,c),
(153,-28,o),
(180,-32,o),
(212,-33,cs),
(301,-38,o),
(353,-46,o),
(353,-84,cs),
(353,-111,o),
(305,-128,o),
(218,-128,cs)
);
},
{
closed = 1;
nodes = (
(122.849,114,o),
(222.399,114,cs),
(330.065,114,o),
(401.645,189,o),
(401.645,282,cs),
(401.645,312,o),
(394.781,340,o),
(381.054,363,c),
(420.276,363,o),
(442.828,397,o),
(442.828,454,cs),
(442.828,462,o),
(442.828,467,o),
(437.925,467,cs),
(436.945,467,o),
(434.984,467,o),
(431.036,466.112,cs),
(368.167,452.65,ls),
(360.462,451,o),
(358.501,446,o),
(358.501,439,cs),
(358.501,436,ls),
(358.501,419,o),
(351.637,414,o),
(343.793,414,cs),
(340.851,414,o),
(335.948,414,o),
(331.2,417.228,cs),
(300.648,438,o),
(260.446,451,o),
(222.399,451,cs),
(113.752,451,o),
(42.172,375,o),
(42.172,282,cs),
(42.172,181.705,o)
);
}
);
};
layerId = "C8DC18BB-848E-45E0-B652-03995C1384CA";
name = "5 mai 26 à 08:54";
shapes = (
{
closed = 1;
nodes = (
(330.065,114,o),
(401.645,189,o),
(401.645,282,cs),
(401.645,312,o),
(397.184,338.057,o),
(374.815,372.556,c),
(420.276,361.203,o),
(442.828,397,o),
(442.828,454,cs),
(442.828,462,o),
(442.828,467,o),
(437.925,467,cs),
(436.945,467,o),
(435,466.92,o),
(431.036,466.112,cs),
(408.206,461.457,ls),
(397.113,459.195,o),
(394.318,451.903,o),
(394.318,441.846,cs),
(394.318,418.901,ls),
(394.318,398.923,o),
(388.381,389.426,o),
(374.815,389.426,cs),
(362.012,389.426,o),
(353.742,396.687,o),
(343.044,406.372,cs),
(312.88,433.681,o),
(268.086,451,o),
(222.399,451,cs),
(113.752,451,o),
(42.172,375,o),
(42.172,282,cs),
(42.172,181.705,o),
(122.849,114,o),
(222.399,114,cs)
);
},
{
closed = 1;
nodes = (
(313,-189,o),
(413.748,-155,o),
(413.748,-72.086,cs),
(413.748,24.719,o),
(320.952,38.637,o),
(218,44.552,cs),
(119.98,50.183,o),
(83.503,61.867,o),
(83.503,99.072,cs),
(83.503,125.666,o),
(132.01,148.078,o),
(145.197,143.533,c),
(126,161.854,l),
(88.651,151.17,o),
(46,125.061,o),
(46,81,cs),
(46,8.719,o),
(134.058,-7.942,o),
(212,-11.849,cs),
(291.052,-15.812,o),
(347.981,-23.973,o),
(347.981,-78.281,cs),
(347.981,-125.281,o),
(295,-156,o),
(218,-156,cs),
(107.983,-156,o),
(82.38,-116.686,o),
(82.38,-63.267,cs),
(82.38,-31.318,o),
(97.895,-3.789,o),
(137.428,9.006,c),
(105.193,17.988,l),
(59.427,-3.231,o),
(26,-33.223,o),
(26,-78.281,cs),
(26,-152.281,o),
(110,-189,o),
(217,-189,cs)
);
},
{
closed = 1;
nodes = (
(141.867,144.035,o),
(116,221.29,o),
(116,281.906,cs),
(116,343.71,o),
(141.867,420.965,o),
(223.084,420.965,cs),
(304.301,420.965,o),
(322,343.71,o),
(322,281.906,cs),
(322,221.29,o),
(304.301,144.035,o),
(223.084,144.035,cs)
);
}
);
width = 459;
},
{
anchors = (
{
name = top;
pos = (229,440);
}
);
associatedMasterId = m002;
background = {
anchors = (
{
name = top;
pos = (229,440);
}
);
shapes = (
{
closed = 1;
nodes = (
(342,114,o),
(415,189,o),
(415,282,cs),
(415,312,o),
(408,340,o),
(394,363,c),
(434,363,o),
(457,397,o),
(457,454,cs),
(457,462,o),
(457,467,o),
(452,467,cs),
(451,467,o),
(449,467,o),
(445,466,cs),
(381,452,ls),
(373,451,o),
(371,446,o),
(371,439,cs),
(371,436,ls),
(371,419,o),
(364.139,413.311,o),
(356.139,413.311,cs),
(351.108,413.311,o),
(348,414,o),
(343,417,cs),
(312,438,o),
(271,451,o),
(222,451,cs),
(101,451,o),
(28,375,o),
(28,282,cs),
(28,181.705,o),
(110.277,114,o),
(222,114,cs)
);
},
{
closed = 1;
nodes = (
(323,-189,o),
(436,-155,o),
(436,-59,cs),
(436,47,o),
(335,66,o),
(232,71,cs),
(124,77,o),
(104,90,o),
(104,117,cs),
(104,129.736,o),
(112.01,140.469,o),
(125.197,143.533,c),
(90.043,166.459,l),
(52.694,155.775,o),
(26,125.061,o),
(26,81,cs),
(26,-7.589,o),
(121.255,-30.164,o),
(212,-33,cs),
(301,-38,o),
(353,-46,o),
(353,-77.951,cs),
(353,-111,o),
(305,-128,o),
(218,-128,cs),
(130,-128,o),
(106,-97,o),
(106,-70,cs),
(106,-44.188,o),
(119.325,-25.039,o),
(145.975,-14.702,c),
(84.505,8.205,l),
(47.365,-7.902,o),
(18,-36.942,o),
(18,-82,cs),
(18,-156,o),
(110,-189,o),
(217,-189,cs)
);
},
{
closed = 1;
nodes = (
(155,166,o),
(136,231,o),
(136,282,cs),
(136,334,o),
(155,399,o),
(222,399,cs),
(289,399,o),
(302,334,o),
(302,282,cs),
(302,231,o),
(289,166,o),
(222,166,cs)
);
}
);
};
layerId = "61A1F29B-70CD-43B2-B541-B1879B88A663";
name = "5 mai 26 à 08:54";
shapes = (
{
closed = 1;
nodes = (
(342,114,o),
(415,189,o),
(415,282,cs),
(415,312,o),
(408,340,o),
(394,363,c),
(434,363,o),
(457,397,o),
(457,454,cs),
(457,462,o),
(457,467,o),
(452,467,cs),
(451,467,o),
(449,467,o),
(445,466,cs),
(381,452,ls),
(373,451,o),
(371,446,o),
(371,439,cs),
(371,436,ls),
(371,419,o),
(364.139,413.311,o),
(356.139,413.311,cs),
(351.108,413.311,o),
(348,414,o),
(343,417,cs),
(312,438,o),
(271,451,o),
(222,451,cs),
(101,451,o),
(28,375,o),
(28,282,cs),
(28,181.705,o),
(110.277,114,o),
(222,114,cs)
);
},
{
closed = 1;
nodes = (
(323,-189,o),
(436,-155,o),
(436,-59,cs),
(436,47,o),
(335,66,o),
(232,71,cs),
(124,77,o),
(104,90,o),
(104,117,cs),
(104,129.736,o),
(112.01,140.469,o),
(125.197,143.533,c),
(90.043,166.459,l),
(52.694,155.775,o),
(26,125.061,o),
(26,81,cs),
(26,-7.589,o),
(121.255,-30.164,o),
(212,-33,cs),
(301,-38,o),
(353,-46,o),
(353,-77.951,cs),
(353,-111,o),
(305,-128,o),
(218,-128,cs),
(130,-128,o),
(106,-97,o),
(106,-70,cs),
(106,-44.188,o),
(119.325,-25.039,o),
(145.975,-14.702,c),
(84.505,8.205,l),
(47.365,-7.902,o),
(18,-36.942,o),
(18,-82,cs),
(18,-156,o),
(110,-189,o),
(217,-189,cs)
);
},
{
closed = 1;
nodes = (
(155,166,o),
(136,231,o),
(136,282,cs),
(136,334,o),
(155,399,o),
(222,399,cs),
(289,399,o),
(302,334,o),
(302,282,cs),
(302,231,o),
(289,166,o),
(222,166,cs)
);
}
);
width = 459;
}
);
note = g;
unicode = 103;
},
{
glyphname = h;
kernLeft = h;
kernRight = h;
lastChange = "2026-05-04 13:51:36 +0000";
layers = (
{
anchors = (
{
name = bottom;
pos = (251,0);
}
);
layerId = "6AD408C6-91F3-4F0B-A103-73D10F5280D9";
shapes = (
{
closed = 1;
nodes = (
(222,33,ls),
(179,33,o),
(158,50,o),
(158,97,cs),
(158,311.865,l),
(179.038,372.48,o),
(218.81,411.488,o),
(278.362,411.488,cs),
(342.052,411.488,o),
(366,378.439,o),
(366,318.741,cs),
(366,96,ls),
(366,49,o),
(343,33,o),
(311,33,cs),
(308,33,ls),
(300,33,o),
(295,28,o),
(295,20,cs),
(295,13,ls),
(295,4,o),
(300,0,o),
(308,0,cs),
(499,0,ls),
(507,0,o),
(512,4,o),
(512,13,cs),
(512,20,ls),
(512,28,o),
(507,33,o),
(499,33,cs),
(497,33,ls),
(454,33,o),
(432,49,o),
(432,96,cs),
(432,319,ls),
(432,419,o),
(365,451,o),
(300,451,cs),
(223.347,451,o),
(174.953,397.224,o),
(158,360.184,c),
(158,703,ls),
(158,704,o),
(157,704,o),
(156,704,cs),
(155,704,ls),
(153,704,o),
(151,703,o),
(148,699,cs),
(118,658,o),
(81,638,o),
(42,621,cs),
(35,618,o),
(29,617,o),
(29,610,cs),
(29,600,ls),
(29,594,o),
(31,589,o),
(40,588,cs),
(88,583,o),
(92,555,o),
(92,506,cs),
(92,96,ls),
(92,49,o),
(71,33,o),
(28,33,cs),
(26,33,ls),
(18,33,o),
(13,28,o),
(13,20,cs),
(13,13,ls),
(13,4,o),
(19,0,o),
(28,0,cs),
(223,0,ls),
(232,0,o),
(238,4,o),
(238,13,cs),
(238,20,ls),
(238,28,o),
(234,33,o),
(225,33,cs)
);
}
);
width = 531;
},
{
anchors = (
{
name = bottom;
pos = (309,0);
}
);
layerId = m002;
shapes = (
{
closed = 1;
nodes = (
(276,53,ls),
(233,53,o),
(212,90,o),
(212,137,cs),
(212,301.176,l),
(235.17,345.433,o),
(282.139,374,o),
(323,374,cs),
(377,374,o),
(390,346,o),
(390,287,cs),
(390,136,ls),
(390,89,o),
(378,53,o),
(346,53,cs),
(338,53,ls),
(330,53,o),
(325,48,o),
(325,40,cs),
(325,13,ls),
(325,4,o),
(330,0,o),
(338,0,cs),
(577,0,ls),
(585,0,o),
(590,4,o),
(590,13,cs),
(590,40,ls),
(590,48,o),
(585,53,o),
(577,53,cs),
(575,53,ls),
(532,53,o),
(510,89,o),
(510,136,cs),
(510,299,ls),
(510,419,o),
(443,451,o),
(361,451,cs),
(285.367,451,o),
(236.935,399.76,o),
(212,358.84,c),
(212,702,ls),
(212,703,o),
(211,704,o),
(210,704,cs),
(209,704,ls),
(207,704,o),
(207,704,o),
(204,702,cs),
(154,662,o),
(115,638,o),
(42,621,cs),
(33,619,o),
(29,617,o),
(29,610,cs),
(29,580,ls),
(29,574,o),
(31,569,o),
(40,568,cs),
(88,563,o),
(92,515,o),
(92,466,cs),
(92,136,ls),
(92,89,o),
(71,53,o),
(28,53,cs),
(26,53,ls),
(18,53,o),
(13,48,o),
(13,40,cs),
(13,13,ls),
(13,4,o),
(19,0,o),
(28,0,cs),
(277,0,ls),
(286,0,o),
(292,4,o),
(292,13,cs),
(292,40,ls),
(292,48,o),
(288,53,o),
(279,53,cs)
);
}
);
width = 599;
},
{
anchors = (
{
name = bottom;
pos = (251,0);
}
);
associatedMasterId = "6AD408C6-91F3-4F0B-A103-73D10F5280D9";
layerId = "DE24E9C2-043C-4B51-A99F-FD77437C6F40";
name = "27 févr. 25 à 16:15";
shapes = (
{
closed = 1;
nodes = (
(153.795,298.609,l),
(173.48,366.734,o),
(214.574,411.488,o),
(278.362,411.488,cs),
(342.052,411.488,o),
(366,378.439,o),
(366,318.741,cs),
(366,96,ls),
(366,49,o),
(343,33,o),
(311,33,cs),
(308,33,ls),
(300,33,o),
(295,28,o),
(295,20,cs),
(295,13,ls),
(295,4,o),
(300,0,o),
(308,0,cs),
(499,0,ls),
(507,0,o),
(512,4,o),
(512,13,cs),
(512,20,ls),
(512,28,o),
(507,33,o),
(499,33,cs),
(497,33,ls),
(454,33,o),
(432,49,o),
(432,96,cs),
(432,319,ls),
(432,419,o),
(365,451,o),
(300,451,cs),
(215.523,451,o),
(165.369,385.687,o),
(153.795,349.44,c)
);
},
{
closed = 1;
nodes = (
(222,33,ls),
(179,33,o),
(158,50,o),
(158,97,cs),
(158,703,ls),
(158,704,o),
(157,704,o),
(156,704,cs),
(155,704,ls),
(153,704,o),
(151,703,o),
(148,699,cs),
(118,658,o),
(81,638,o),
(42,621,cs),
(35,618,o),
(29,617,o),
(29,610,cs),
(29,600,ls),
(29,594,o),
(31,589,o),
(40,588,cs),
(88,583,o),
(92,555,o),
(92,506,cs),
(92,96,ls),
(92,49,o),
(71,33,o),
(28,33,cs),
(26,33,ls),
(18,33,o),
(13,28,o),
(13,20,cs),
(13,13,ls),
(13,4,o),
(19,0,o),
(28,0,cs),
(223,0,ls),
(232,0,o),
(238,4,o),
(238,13,cs),
(238,20,ls),
(238,28,o),
(234,33,o),
(225,33,cs)
);
}
);
width = 531;
},
{
anchors = (
{
name = bottom;
pos = (309,0);
}
);
associatedMasterId = m002;
layerId = "FD365B2A-689C-44EB-B920-25CF3FB0BCA3";
name = "27 févr. 25 à 16:15";
shapes = (
{
closed = 1;
nodes = (
(202.601,278.017,l),
(219.486,335.216,o),
(275.389,374,o),
(323,374,cs),
(377,374,o),
(390,346,o),
(390,287,cs),
(390,136,ls),
(390,89,o),
(378,53,o),
(346,53,cs),
(338,53,ls),
(330,53,o),
(325,48,o),
(325,40,cs),
(325,13,ls),
(325,4,o),
(330,0,o),
(338,0,cs),
(577,0,ls),
(585,0,o),
(590,4,o),
(590,13,cs),
(590,40,ls),
(590,48,o),
(585,53,o),
(577,53,cs),
(575,53,ls),
(532,53,o),
(510,89,o),
(510,136,cs),
(510,299,ls),
(510,419,o),
(443,451,o),
(361,451,cs),
(273.523,451,o),
(222.432,382.455,o),
(202,340.611,c)
);
},
{
closed = 1;
nodes = (
(276,53,ls),
(233,53,o),
(212,90,o),
(212,137,cs),
(212,702,ls),
(212,703,o),
(211,704,o),
(210,704,cs),
(209,704,ls),
(207,704,o),
(207,704,o),
(204,702,cs),
(154,662,o),
(115,638,o),
(42,621,cs),
(33,619,o),
(29,617,o),
(29,610,cs),
(29,580,ls),
(29,574,o),
(31,569,o),
(40,568,cs),
(88,563,o),
(92,515,o),
(92,466,cs),
(92,136,ls),
(92,89,o),
(71,53,o),
(28,53,cs),
(26,53,ls),
(18,53,o),
(13,48,o),
(13,40,cs),
(13,13,ls),
(13,4,o),
(19,0,o),
(28,0,cs),
(277,0,ls),
(286,0,o),
(292,4,o),
(292,13,cs),
(292,40,ls),
(292,48,o),
(288,53,o),
(279,53,cs)
);
}
);
width = 599;
}
);
note = h;
unicode = 104;
},
{
glyphname = hbar;
kernLeft = h;
kernRight = h;
lastChange = "2025-02-27 10:59:19 +0000";
layers = (
{
hints = (
{
horizontal = 1;
place = (704,-20);
target = down;
type = TopGhost;
}
);
layerId = "6AD408C6-91F3-4F0B-A103-73D10F5280D9";
shapes = (
{
ref = h;
},
{
closed = 1;
nodes = (
(48,534,ls),
(39,534,o),
(34,529,o),
(34,520,cs),
(34,505,ls),
(34,497,o),
(39,492,o),
(48,492,cs),
(273,492,ls),
(282,492,o),
(286,497,o),
(286,505,cs),
(286,520,ls),
(286,529,o),
(282,534,o),
(273,534,cs)
);
}
);
width = 599;
},
{
hints = (
{
horizontal = 1;
place = (704,-20);
target = down;
type = TopGhost;
}
);
layerId = m002;
shapes = (
{
ref = h;
},
{
closed = 1;
nodes = (
(48,524,ls),
(39,524,o),
(34,519,o),
(34,510,cs),
(34,475,ls),
(34,467,o),
(39,462,o),
(48,462,cs),
(303,462,ls),
(312,462,o),
(316,467,o),
(316,475,cs),
(316,510,ls),
(316,519,o),
(312,524,o),
(303,524,cs)
);
}
);
width = 599;
}
);
note = hbar;
unicode = 295;
},
{
glyphname = idotless;
kernLeft = i;
kernRight = a;
lastChange = "2025-02-26 16:29:18 +0000";
layers = (
{
anchors = (
{
name = bottom;
pos = (126,0);
},
{
name = ogonek;
pos = (223,0);
},
{
name = top;
pos = (126,440);
}
);
layerId = "6AD408C6-91F3-4F0B-A103-73D10F5280D9";
shapes = (
{
closed = 1;
nodes = (
(222,33,ls),
(179,33,o),
(158,50,o),
(158,97,cs),
(158,466,ls),
(158,467,o),
(157,467,o),
(156,467,cs),
(155,467,ls),
(153,467,o),
(151,466,o),
(148,462,cs),
(118,421,o),
(81,401,o),
(42,384,cs),
(35,381,o),
(29,380,o),
(29,373,cs),
(29,363,ls),
(29,357,o),
(31,352,o),
(40,351,cs),
(88,346,o),
(92,318,o),
(92,269,cs),
(92,96,ls),
(92,49,o),
(71,33,o),
(28,33,cs),
(26,33,ls),
(18,33,o),
(13,28,o),
(13,20,cs),
(13,13,ls),
(13,4,o),
(19,0,o),
(28,0,cs),
(223,0,ls),
(232,0,o),
(238,4,o),
(238,13,cs),
(238,20,ls),
(238,28,o),
(234,33,o),
(225,33,cs)
);
}
);
width = 251;
},
{
anchors = (
{
name = bottom;
pos = (153,0);
},
{
name = ogonek;
pos = (277,0);
},
{
name = top;
pos = (153,440);
}
);
layerId = m002;
shapes = (
{
closed = 1;
nodes = (
(276,53,ls),
(233,53,o),
(212,90,o),
(212,137,cs),
(212,465,ls),
(212,466,o),
(211,467,o),
(210,467,cs),
(209,467,ls),
(207,467,o),
(207,467,o),
(204,465,cs),
(154,425,o),
(115,401,o),
(42,384,cs),
(33,382,o),
(29,380,o),
(29,373,cs),
(29,343,ls),
(29,337,o),
(31,332,o),
(40,331,cs),
(88,326,o),
(92,278,o),
(92,229,cs),
(92,136,ls),
(92,89,o),
(71,53,o),
(28,53,cs),
(26,53,ls),
(18,53,o),
(13,48,o),
(13,40,cs),
(13,13,ls),
(13,4,o),
(19,0,o),
(28,0,cs),
(277,0,ls),
(286,0,o),
(292,4,o),
(292,13,cs),
(292,40,ls),
(292,48,o),
(288,53,o),
(279,53,cs)
);
}
);
width = 305;
}
);
note = dotlessi;
unicode = 305;
},
{
glyphname = jdotless;
kernLeft = j;
kernRight = j;
lastChange = "2026-05-05 11:13:25 +0000";
layers = (
{
anchors = (
{
name = top;
pos = (126,440);
}
);
layerId = "6AD408C6-91F3-4F0B-A103-73D10F5280D9";
shapes = (
{
closed = 1;
nodes = (
(158,466,ls),
(158,467,o),
(157,467,o),
(156,467,cs),
(155,467,ls),
(153,467,o),
(151,466,o),
(148,462,cs),
(118,421,o),
(81,401,o),
(42,384,cs),
(35,381,o),
(29,380,o),
(29,373,cs),
(29,363,ls),
(29,357,o),
(31,352,o),
(40,351,cs),
(88,346,o),
(92,318,o),
(92,269,cs),
(92,-48.04,ls),
(92,-107,o),
(81,-159,o),
(27,-159,cs),
(-32,-159,o),
(-46.291,-97.04,o),
(-46.291,-54.04,cs),
(-46.291,-45.04,o),
(-51.291,-42.04,o),
(-56.291,-42.04,cs),
(-59.291,-42.04,o),
(-62.254,-44.097,o),
(-68.291,-48.04,cs),
(-89.466,-61.866,ls),
(-96.668,-66.57,o),
(-96.668,-73.866,o),
(-96.668,-79.866,cs),
(-96.668,-96.866,o),
(-68,-188,o),
(21,-188,cs),
(139.839,-188,o),
(158,-54.076,o),
(158,15,cs)
);
}
);
width = 213;
},
{
anchors = (
{
name = top;
pos = (153,440);
}
);
layerId = m002;
shapes = (
{
closed = 1;
nodes = (
(212,465,ls),
(212,466,o),
(211,467,o),
(210,467,cs),
(209,467,ls),
(207,467,o),
(207,467,o),
(204,465,cs),
(154,425,o),
(115,401,o),
(42,384,cs),
(33,382,o),
(29,380,o),
(29,373,cs),
(29,343,ls),
(29,337,o),
(31,332,o),
(40,331,cs),
(88,326,o),
(92,278,o),
(92,229,cs),
(92,-4,ls),
(92,-77,o),
(89,-139,o),
(36,-139,cs),
(-13,-139,o),
(-25,-92,o),
(-25,-49,cs),
(-25,-40,o),
(-30,-37,o),
(-35,-37,cs),
(-38,-37,o),
(-41,-39,o),
(-47,-43,cs),
(-103,-84,ls),
(-110,-89,o),
(-113,-96,o),
(-113,-102,cs),
(-113,-119,o),
(-79,-188,o),
(30,-188,cs),
(184,-188,o),
(212,-55,o),
(212,55,cs)
);
}
);
width = 267;
}
);
unicode = 567;
},
{
glyphname = k;
kernLeft = h;
kernRight = k;
lastChange = "2025-02-26 16:27:39 +0000";
layers = (
{
anchors = (
{
name = bottom;
pos = (267.076,0);
}
);
hints = (
{
horizontal = 1;
place = (704,-20);
target = down;
type = TopGhost;
}
);
layerId = "6AD408C6-91F3-4F0B-A103-73D10F5280D9";
shapes = (
{
closed = 1;
nodes = (
(213,0,ls),
(222,0,o),
(228,4,o),
(228,13,cs),
(228,20,ls),
(228,28,o),
(224,33,o),
(212,33,cs),
(179,33,o),
(158,50,o),
(158,97,cs),
(158,703,ls),
(158,704,o),
(157,704,o),
(156,704,cs),
(155,704,ls),
(153,704,o),
(151,703,o),
(148,699,cs),
(118,658,o),
(81,638,o),
(42,621,cs),
(35,618,o),
(29,617,o),
(29,610,cs),
(29,600,ls),
(29,594,o),
(31,589,o),
(40,588,cs),
(88,583,o),
(92,555,o),
(92,506,cs),
(92,96,ls),
(92,49,o),
(71,33,o),
(28,33,cs),
(18,33,o),
(13,28,o),
(13,20,cs),
(13,13,ls),
(13,4,o),
(19,0,o),
(28,0,cs)
);
},
{
closed = 1;
nodes = (
(483.51,-0.005,ls),
(492.51,-0.005,o),
(496.51,3.995,o),
(496.51,12.995,cs),
(496.51,19.995,ls),
(496.51,27.995,o),
(492.51,32.995,o),
(485.51,32.995,cs),
(482.51,32.995,ls),
(470.51,32.995,o),
(461.353,39.839,o),
(441.51,59.995,cs),
(234.521,270.253,l),
(190.67,238.486,l),
(366.51,58.995,ls),
(371.976,53.416,o),
(374.51,49.995,o),
(374.51,45.995,cs),
(374.51,36.995,o),
(361.51,32.995,o),
(350.51,32.995,cs),
(327.51,32.995,ls),
(320.51,32.995,o),
(315.51,27.995,o),
(315.51,19.995,cs),
(315.51,12.995,ls),
(315.51,3.995,o),
(320.51,-0.005,o),
(328.51,-0.005,cs)
);
},
{
closed = 1;
nodes = (
(345,350,ls),
(390.847,391.171,o),
(410,407,o),
(445,407,cs),
(455,407,ls),
(462,407,o),
(467,412,o),
(467,420,cs),
(467,427,ls),
(467,436,o),
(462,440,o),
(453,440,cs),
(298,440,ls),
(289,440,o),
(285,436,o),
(285,427,cs),
(285,420,ls),
(285,412,o),
(289,407,o),
(296,407,cs),
(323,407,ls),
(335,407,o),
(340,402,o),
(340,396,cs),
(340,391,o),
(338.238,387.75,o),
(333,383,cs),
(152.018,218.876,l),
(152.368,177.014,l)
);
}
);
width = 512.51;
},
{
anchors = (
{
name = bottom;
pos = (293.833,0);
}
);
hints = (
{
horizontal = 1;
place = (704,-20);
target = down;
type = TopGhost;
}
);
layerId = m002;
shapes = (
{
closed = 1;
nodes = (
(261,0,ls),
(269,0,o),
(275,4,o),
(275,13,cs),
(275,40,ls),
(275,48,o),
(269,53,o),
(261,53,cs),
(218,53,o),
(211,68,o),
(211,136,cs),
(211,702,ls),
(211,703,o),
(210,704,o),
(209,704,cs),
(207.298,704,ls),
(205.298,704,o),
(204.408,703.149,o),
(203,702,cs),
(154,662,o),
(115,638,o),
(42,621,cs),
(34.91,619.349,o),
(28,618.037,o),
(28,611.037,cs),
(28,580,ls),
(28,574,o),
(31.064,569.008,o),
(39,568,cs),
(88.366,561.729,o),
(91,514,o),
(91,466,cs),
(91,136,ls),
(91,89,o),
(70,53,o),
(26,53,cs),
(18,53,o),
(13,48,o),
(13,40,cs),
(13,13,ls),
(13,4,o),
(18,0,o),
(26,0,cs)
);
},
{
closed = 1;
nodes = (
(536,0,ls),
(545,0,o),
(549,4,o),
(549,13,cs),
(549,40,ls),
(549,48,o),
(545,53,o),
(538,53,cs),
(535,53,ls),
(523,53,o),
(513.482,59.495,o),
(494,80,cs),
(294.438,290.048,l),
(221.163,216.771,l),
(348,79,ls),
(354,74,o),
(356,70,o),
(356,66,cs),
(356,57,o),
(343,53,o),
(332,53,cs),
(329,53,ls),
(322,53,o),
(317,48,o),
(317,40,cs),
(317,13,ls),
(317,4,o),
(322,0,o),
(330,0,cs)
);
},
{
closed = 1;
nodes = (
(373,330,ls),
(418.88,371.135,o),
(438,387,o),
(473,387,cs),
(483,387,ls),
(490,387,o),
(495,392,o),
(495,400,cs),
(495,427,ls),
(495,436,o),
(490,440,o),
(481,440,cs),
(286,440,ls),
(277,440,o),
(273,436,o),
(273,427,cs),
(273,400,ls),
(273,392,o),
(277,387,o),
(284,387,cs),
(311,387,ls),
(323,387,o),
(328,382,o),
(328,376,cs),
(328,371,o),
(326,368,o),
(321,363,cs),
(202.146,255.254,l),
(202.368,177.014,l)
);
}
);
width = 565;
}
);
note = k;
unicode = 107;
},
{
glyphname = kgreenlandic;
kernLeft = h;
kernRight = k;
lastChange = "2025-02-26 16:40:35 +0000";
layers = (
{
layerId = "6AD408C6-91F3-4F0B-A103-73D10F5280D9";
shapes = (
{
closed = 1;
nodes = (
(213,0,ls),
(222,0,o),
(228,4,o),
(228,13,cs),
(228,20,ls),
(228,28,o),
(224,33,o),
(212,33,cs),
(179,33,o),
(158,50,o),
(158,97,cs),
(158,343.806,ls),
(158,382.806,o),
(163.2,406.806,o),
(218.847,406.806,cs),
(231,406.806,o),
(235,411.806,o),
(235,419.806,cs),
(235,426.806,ls),
(235,435.806,o),
(231,439.806,o),
(222,439.806,cs),
(27,439.806,ls),
(18,439.806,o),
(14,435.806,o),
(14,426.806,cs),
(14,419.806,ls),
(14,411.806,o),
(18,406.806,o),
(27,406.806,cs),
(87,406.806,o),
(92,384.006,o),
(92,343.806,cs),
(92,96,ls),
(92,49,o),
(71,33,o),
(28,33,cs),
(18,33,o),
(13,28,o),
(13,20,cs),
(13,13,ls),
(13,4,o),
(19,0,o),
(28,0,cs)
);
},
{
closed = 1;
nodes = (
(483.51,-0.005,ls),
(492.51,-0.005,o),
(496.51,3.995,o),
(496.51,12.995,cs),
(496.51,19.995,ls),
(496.51,27.995,o),
(492.51,32.995,o),
(485.51,32.995,cs),
(482.51,32.995,ls),
(470.51,32.995,o),
(461.353,39.839,o),
(441.51,59.995,cs),
(234.521,270.253,l),
(190.67,238.486,l),
(366.51,58.995,ls),
(371.976,53.416,o),
(374.51,49.995,o),
(374.51,45.995,cs),
(374.51,36.995,o),
(361.51,32.995,o),
(350.51,32.995,cs),
(327.51,32.995,ls),
(320.51,32.995,o),
(315.51,27.995,o),
(315.51,19.995,cs),
(315.51,12.995,ls),
(315.51,3.995,o),
(320.51,-0.005,o),
(328.51,-0.005,cs)
);
},
{
closed = 1;
nodes = (
(345,350,ls),
(390.847,391.171,o),
(410,407,o),
(445,407,cs),
(455,407,ls),
(462,407,o),
(467,412,o),
(467,420,cs),
(467,427,ls),
(467,436,o),
(462,440,o),
(453,440,cs),
(298,440,ls),
(289,440,o),
(285,436,o),
(285,427,cs),
(285,420,ls),
(285,412,o),
(289,407,o),
(296,407,cs),
(323,407,ls),
(335,407,o),
(340,402,o),
(340,396,cs),
(340,391,o),
(338.238,387.75,o),
(333,383,cs),
(152.018,218.876,l),
(152.368,177.014,l)
);
}
);
width = 512.51;
},
{
layerId = m002;
shapes = (
{
closed = 1;
nodes = (
(261,0,ls),
(269,0,o),
(275,4,o),
(275,13,cs),
(275,40,ls),
(275,48,o),
(269,53,o),
(261,53,cs),
(218,53,o),
(214,68,o),
(214,136,cs),
(214,304,ls),
(214,372,o),
(218,387,o),
(261,387,cs),
(269,387,o),
(275,392,o),
(275,400,cs),
(275,427,ls),
(275,436,o),
(269,440,o),
(261,440,cs),
(26,440,ls),
(18,440,o),
(13,436,o),
(13,427,cs),
(13,400,ls),
(13,392,o),
(18,387,o),
(26,387,cs),
(70,387,o),
(91,351,o),
(91,304,cs),
(91,136,ls),
(91,89,o),
(70,53,o),
(26,53,cs),
(18,53,o),
(13,48,o),
(13,40,cs),
(13,13,ls),
(13,4,o),
(18,0,o),
(26,0,cs)
);
},
{
closed = 1;
nodes = (
(536,0,ls),
(545,0,o),
(549,4,o),
(549,13,cs),
(549,40,ls),
(549,48,o),
(545,53,o),
(538,53,cs),
(535,53,ls),
(523,53,o),
(514,60,o),
(494,80,cs),
(296,279,l),
(223,216,l),
(348,79,ls),
(354,74,o),
(356,70,o),
(356,66,cs),
(356,57,o),
(343,53,o),
(332,53,cs),
(319,53,ls),
(312,53,o),
(307,48,o),
(307,40,cs),
(307,13,ls),
(307,4,o),
(312,0,o),
(320,0,cs)
);
},
{
closed = 1;
nodes = (
(408,330,ls),
(454,371,o),
(473,387,o),
(508,387,cs),
(518,387,ls),
(525,387,o),
(530,392,o),
(530,400,cs),
(530,427,ls),
(530,436,o),
(525,440,o),
(517,440,cs),
(321,440,ls),
(312,440,o),
(308,436,o),
(308,427,cs),
(308,400,ls),
(308,392,o),
(312,387,o),
(319,387,cs),
(346,387,ls),
(358,387,o),
(363,382,o),
(363,376,cs),
(363,371,o),
(361,368,o),
(356,363,cs),
(203,223,l),
(203,145,l)
);
}
);
width = 565;
}
);
metricLeft = k;
metricRight = k;
unicode = 312;
},
{
glyphname = l;
kernLeft = h;
kernRight = a;
lastChange = "2025-02-26 16:27:39 +0000";
layers = (
{
anchors = (
{
name = bottom;
pos = (124,0);
},
{
name = middle;
pos = (345,279);
},
{
name = top;
pos = (126,688);
}
);
hints = (
{
horizontal = 1;
place = (704,-20);
target = down;
type = TopGhost;
}
);
layerId = "6AD408C6-91F3-4F0B-A103-73D10F5280D9";
shapes = (
{
closed = 1;
nodes = (
(222,33,ls),
(179,33,o),
(158,50,o),
(158,97,cs),
(158,703,ls),
(158,704,o),
(157,704,o),
(156,704,cs),
(155,704,ls),
(153,704,o),
(151,703,o),
(148,699,cs),
(118,658,o),
(81,638,o),
(42,621,cs),
(35,618,o),
(29,617,o),
(29,610,cs),
(29,600,ls),
(29,594,o),
(31,589,o),
(40,588,cs),
(88,583,o),
(92,555,o),
(92,506,cs),
(92,96,ls),
(92,49,o),
(71,33,o),
(28,33,cs),
(26,33,ls),
(18,33,o),
(13,28,o),
(13,20,cs),
(13,13,ls),
(13,4,o),
(19,0,o),
(28,0,cs),
(223,0,ls),
(232,0,o),
(238,4,o),
(238,13,cs),
(238,20,ls),
(238,28,o),
(234,33,o),
(225,33,cs)
);
}
);
width = 251;
},
{
anchors = (
{
name = bottom;
pos = (151,0);
},
{
name = middle;
pos = (372,279);
},
{
name = top;
pos = (153,688);
}
);
hints = (
{
horizontal = 1;
place = (704,-20);
target = down;
type = TopGhost;
}
);
layerId = m002;
shapes = (
{
closed = 1;
nodes = (
(276,53,ls),
(233,53,o),
(212,90,o),
(212,137,cs),
(212,702,ls),
(212,703,o),
(211,704,o),
(210,704,cs),
(209,704,ls),
(207,704,o),
(207,704,o),
(204,702,cs),
(154,662,o),
(115,638,o),
(42,621,cs),
(33,619,o),
(29,617,o),
(29,610,cs),
(29,580,ls),
(29,574,o),
(31,569,o),
(40,568,cs),
(88,563,o),
(92,515,o),
(92,466,cs),
(92,136,ls),
(92,89,o),
(71,53,o),
(28,53,cs),
(26,53,ls),
(18,53,o),
(13,48,o),
(13,40,cs),
(13,13,ls),
(13,4,o),
(19,0,o),
(28,0,cs),
(277,0,ls),
(286,0,o),
(292,4,o),
(292,13,cs),
(292,40,ls),
(292,48,o),
(288,53,o),
(279,53,cs)
);
}
);
width = 305;
}
);
note = l;
unicode = 108;
},
{
glyphname = lslash;
kernLeft = h;
kernRight = lslash;
lastChange = "2025-02-26 16:18:05 +0000";
layers = (
{
hints = (
{
horizontal = 1;
place = (704,-20);
target = down;
type = TopGhost;
}
);
layerId = "6AD408C6-91F3-4F0B-A103-73D10F5280D9";
shapes = (
{
closed = 1;
nodes = (
(42,293,o),
(42.913,294.197,o),
(45,295,cs),
(267.623,380.633,ls),
(274.731,383.367,o),
(276.623,387.633,o),
(276.623,395.633,cs),
(276.623,426.633,ls),
(276.623,434.633,o),
(273.623,437.633,o),
(267.623,437.633,cs),
(265.623,437.633,o),
(263.708,437.439,o),
(261.623,436.633,cs),
(40,351,ls),
(32.896,348.255,o),
(30,343,o),
(30,336,cs),
(30,306,ls),
(30,298,o),
(34,293,o),
(40,293,cs)
);
},
{
alignment = -1;
pos = (29.649,0);
ref = l;
}
);
width = 306.62;
},
{
hints = (
{
horizontal = 1;
place = (704,-20);
target = down;
type = TopGhost;
}
);
layerId = m002;
shapes = (
{
closed = 1;
nodes = (
(32,253,o),
(33,254,o),
(35,255,cs),
(363,378,ls),
(370,381,o),
(372,385,o),
(372,393,cs),
(372,464,ls),
(372,472,o),
(369,475,o),
(363,475,cs),
(361,475,o),
(359,475,o),
(357,474,cs),
(30,351,ls),
(23,348,o),
(20,343,o),
(20,336,cs),
(20,266,ls),
(20,258,o),
(24,253,o),
(30,253,cs)
);
},
{
pos = (42,0);
ref = l;
}
);
width = 392;
}
);
note = lslash;
unicode = 322;
},
{
glyphname = m;
kernLeft = m;
kernRight = h;
lastChange = "2025-02-27 13:05:43 +0000";
layers = (
{
anchors = (
{
name = bottom;
pos = (396.716,0);
},
{
name = top;
pos = (407.342,440);
}
);
layerId = "6AD408C6-91F3-4F0B-A103-73D10F5280D9";
shapes = (
{
closed = 1;
nodes = (
(223,0,ls),
(232,0,o),
(238,4,o),
(238,13,cs),
(238,20,ls),
(238,28,o),
(234,33,o),
(225,33,cs),
(222,33,ls),
(179,33,o),
(158,50,o),
(158,97,cs),
(158,311.865,l),
(179.038,372.48,o),
(218.81,411.488,o),
(278.362,411.488,cs),
(342.052,411.488,o),
(366,368.439,o),
(366,318.741,cs),
(366,96,ls),
(366,49,o),
(343,33,o),
(311,33,cs),
(308,33,ls),
(300,33,o),
(295,28,o),
(295,20,cs),
(295,13,ls),
(295,4,o),
(300,0,o),
(308,0,cs),
(499,0,ls),
(507,0,o),
(512,4,o),
(512,13,cs),
(512,20,ls),
(512,28,o),
(507,33,o),
(499,33,cs),
(497,33,ls),
(454,33,o),
(432,49,o),
(432,96,cs),
(432,299.557,l),
(460.847,379.729,o),
(501.889,411.488,o),
(557.595,411.488,cs),
(621.285,411.488,o),
(645.233,368.439,o),
(645.233,318.741,cs),
(645.233,96,ls),
(645.233,49,o),
(622.233,33,o),
(590.233,33,cs),
(587.233,33,ls),
(579.233,33,o),
(574.233,28,o),
(574.233,20,cs),
(574.233,13,ls),
(574.233,4,o),
(579.233,0,o),
(587.233,0,cs),
(778.233,0,ls),
(786.233,0,o),
(791.233,4,o),
(791.233,13,cs),
(791.233,20,ls),
(791.233,28,o),
(786.233,33,o),
(778.233,33,cs),
(776.233,33,ls),
(733.233,33,o),
(711.233,49,o),
(711.233,96,cs),
(711.233,319,ls),
(711.233,419,o),
(644.233,451,o),
(579.233,451,cs),
(508.451,451,o),
(450.271,401.981,o),
(430.351,344.914,c),
(419.682,424.62,o),
(359.017,451,o),
(300,451,cs),
(223.347,451,o),
(174.953,397.224,o),
(158,360.184,c),
(178.174,465.391,ls),
(178.363,466.374,o),
(177.174,466.391,o),
(176.174,466.391,cs),
(175.174,466.391,ls),
(173.174,466.391,o),
(171.174,465.391,o),
(168.174,461.391,cs),
(138.174,420.391,o),
(81,408.196,o),
(42,401.196,cs),
(34.504,399.851,o),
(29,397.196,o),
(29,390.196,cs),
(29,380.196,ls),
(29,374.196,o),
(31,369.196,o),
(40,368.196,cs),
(88,363.196,o),
(92,346.196,o),
(92,297.196,cs),
(92,96,ls),
(92,49,o),
(71,33,o),
(28,33,cs),
(26,33,ls),
(18,33,o),
(13,28,o),
(13,20,cs),
(13,13,ls),
(13,4,o),
(19,0,o),
(28,0,cs)
);
}
);
width = 804.23;
},
{
anchors = (
{
name = bottom;
pos = (448,0);
},
{
name = top;
pos = (456,440);
}
);
background = {
shapes = (
{
closed = 1;
nodes = (
(274,0,ls),
(282,0,o),
(287,4,o),
(287,13,cs),
(287,40,ls),
(287,48,o),
(282,53,o),
(274,53,cs),
(272,53,ls),
(238,53,o),
(216,89,o),
(216,136,cs),
(216,298,l),
(231,336,o),
(279,374,o),
(323,374,cs),
(372,374,o),
(386,343,o),
(386,287,cs),
(386,136,ls),
(386,71,o),
(370,53,o),
(345,53,cs),
(339,53,ls),
(331,53,o),
(326,48,o),
(326,40,cs),
(326,13,ls),
(326,4,o),
(331,0,o),
(339,0,cs),
(573,0,ls),
(582,0,o),
(586,4,o),
(586,13,cs),
(586,40,ls),
(586,48,o),
(582,53,o),
(573,53,cs),
(566,53,ls),
(532,53,o),
(510,71,o),
(510,136,cs),
(510,287,ls),
(510,368,o),
(488,451,o),
(360,451,cs),
(280,451,o),
(232,390,o),
(208,350,c),
(224.139,464.988,ls),
(224.364,466.595,o),
(224.116,467,o),
(222,467,cs),
(221,467,ls),
(219,467,o),
(217,466,o),
(214,464,cs),
(190,447,o),
(127,414,o),
(42,401,cs),
(33,400,o),
(30,397,o),
(30,390,cs),
(30,360,ls),
(30,354,o),
(32,349,o),
(40,348,cs),
(89,343,o),
(92,294,o),
(92,247,cs),
(92,136,ls),
(92,89,o),
(71,53,o),
(28,53,cs),
(26,53,ls),
(18,53,o),
(13,48,o),
(13,40,cs),
(13,13,ls),
(13,4,o),
(18,0,o),
(26,0,cs)
);
}
);
};
layerId = m002;
shapes = (
{
closed = 1;
nodes = (
(274,0,ls),
(282,0,o),
(287,4,o),
(287,13,cs),
(287,40,ls),
(287,48,o),
(282,53,o),
(274,53,cs),
(272,53,ls),
(238,53,o),
(216,89,o),
(216,136,cs),
(216,298,l),
(231,336,o),
(279,374,o),
(323,374,cs),
(378,374,o),
(386,343,o),
(386,287,cs),
(386,136,ls),
(386,71,o),
(364,53,o),
(340,53,cs),
(334,53,ls),
(326,53,o),
(320,48,o),
(320,40,cs),
(320,13,ls),
(320,4,o),
(326,0,o),
(334,0,cs),
(573,0,ls),
(582,0,o),
(586,4,o),
(586,13,cs),
(586,40,ls),
(586,48,o),
(582,53,o),
(573,53,cs),
(566,53,ls),
(532,53,o),
(510,71,o),
(510,136,cs),
(510,290,l),
(535,338,o),
(573,374,o),
(624,374,cs),
(680,374,o),
(687,334,o),
(687,287,cs),
(687,136,ls),
(687,80,o),
(678,53,o),
(642,53,cs),
(637,53,ls),
(628,53,o),
(624,48,o),
(624,40,cs),
(624,13,ls),
(624,4,o),
(628,0,o),
(637,0,cs),
(885,0,ls),
(893,0,o),
(898,4,o),
(898,13,cs),
(898,40,ls),
(898,48,o),
(893,53,o),
(885,53,cs),
(876,53,ls),
(833,53,o),
(811,89,o),
(811,136,cs),
(811,282,ls),
(811,366,o),
(788,451,o),
(662,451,cs),
(592,451,o),
(539,416,o),
(500,365,c),
(485,415,o),
(446,451,o),
(360,451,cs),
(280,451,o),
(232,390,o),
(208,350,c),
(224.139,464.988,ls),
(224.365,466.595,o),
(224.116,467,o),
(222,467,cs),
(221,467,ls),
(219,467,o),
(217,466,o),
(214,464,cs),
(190,447,o),
(127,414,o),
(42,401,cs),
(33,400,o),
(30,397,o),
(30,390,cs),
(30,360,ls),
(30,354,o),
(32,349,o),
(40,348,cs),
(89,343,o),
(92,294,o),
(92,247,cs),
(92,136,ls),
(92,89,o),
(71,53,o),
(28,53,cs),
(26,53,ls),
(18,53,o),
(13,48,o),
(13,40,cs),
(13,13,ls),
(13,4,o),
(18,0,o),
(26,0,cs)
);
}
);
width = 911;
}
);
note = m;
unicode = 109;
},
{
glyphname = n;
kernLeft = m;
kernRight = h;
lastChange = "2025-02-27 13:04:53 +0000";
layers = (
{
anchors = (
{
name = bottom;
pos = (264.329,0);
},
{
name = top;
pos = (259.329,440);
}
);
background = {
shapes = (
{
closed = 1;
nodes = (
(510,368,o),
(488,451,o),
(360,451,cs),
(280,451,o),
(232,390,o),
(208,350,c),
(223,458,ls),
(224,464,o),
(224,465,o),
(224,466,cs),
(224,466,o),
(224,467,o),
(222,467,cs),
(221,467,ls),
(219,467,o),
(217,466,o),
(214,464,cs),
(190,447,o),
(127,414,o),
(42,401,cs),
(33,400,o),
(30,397,o),
(30,390,cs),
(30,360,ls),
(30,354,o),
(32,349,o),
(40,348,cs),
(89,343,o),
(92,294,o),
(92,247,cs),
(92,136,ls),
(92,89,o),
(71,53,o),
(28,53,cs),
(26,53,ls),
(18,53,o),
(13,48,o),
(13,40,cs),
(13,13,ls),
(13,4,o),
(18,0,o),
(26,0,cs),
(274,0,ls),
(282,0,o),
(287,4,o),
(287,13,cs),
(287,40,ls),
(287,48,o),
(282,53,o),
(274,53,cs),
(272,53,ls),
(238,53,o),
(216,89,o),
(216,136,cs),
(216,298,l),
(231,336,o),
(279,374,o),
(323,374,cs),
(372,374,o),
(386,343,o),
(386,287,cs),
(386,136,ls),
(386,71,o),
(370,53,o),
(345,53,cs),
(339,53,ls),
(331,53,o),
(326,48,o),
(326,40,cs),
(326,13,ls),
(326,4,o),
(331,0,o),
(339,0,cs),
(573,0,ls),
(582,0,o),
(586,4,o),
(586,13,cs),
(586,40,ls),
(586,48,o),
(582,53,o),
(573,53,cs),
(566,53,ls),
(532,53,o),
(510,71,o),
(510,136,cs),
(510,287,ls)
);
}
);
};
layerId = "6AD408C6-91F3-4F0B-A103-73D10F5280D9";
shapes = (
{
closed = 1;
nodes = (
(223,0,ls),
(232,0,o),
(238,4,o),
(238,13,cs),
(238,20,ls),
(238,28,o),
(234,33,o),
(225,33,cs),
(222,33,ls),
(179,33,o),
(158,50,o),
(158,97,cs),
(158,311.865,l),
(179.038,372.48,o),
(218.81,411.488,o),
(278.362,411.488,cs),
(342.052,411.488,o),
(366,368.439,o),
(366,318.741,cs),
(366,96,ls),
(366,49,o),
(343,33,o),
(311,33,cs),
(308,33,ls),
(300,33,o),
(295,28,o),
(295,20,cs),
(295,13,ls),
(295,4,o),
(300,0,o),
(308,0,cs),
(499,0,ls),
(507,0,o),
(512,4,o),
(512,13,cs),
(512,20,ls),
(512,28,o),
(507,33,o),
(499,33,cs),
(497,33,ls),
(454,33,o),
(432,49,o),
(432,96,cs),
(432,319,ls),
(432,419,o),
(365,451,o),
(300,451,cs),
(223.347,451,o),
(174.953,397.224,o),
(158,360.184,c),
(178.174,465.391,ls),
(178.363,466.374,o),
(177.174,466.391,o),
(176.174,466.391,cs),
(175.174,466.391,ls),
(173.174,466.391,o),
(171.174,465.391,o),
(168.174,461.391,cs),
(138.174,420.391,o),
(81,408.196,o),
(42,401.196,cs),
(34.504,399.851,o),
(29,397.196,o),
(29,390.196,cs),
(29,380.196,ls),
(29,374.196,o),
(31,369.196,o),
(40,368.196,cs),
(88,363.196,o),
(92,346.196,o),
(92,297.196,cs),
(92,96,ls),
(92,49,o),
(71,33,o),
(28,33,cs),
(26,33,ls),
(18,33,o),
(13,28,o),
(13,20,cs),
(13,13,ls),
(13,4,o),
(19,0,o),
(28,0,cs)
);
}
);
width = 525;
},
{
anchors = (
{
name = bottom;
pos = (306,0);
},
{
name = top;
pos = (301,440);
}
);
layerId = m002;
shapes = (
{
closed = 1;
nodes = (
(274,0,ls),
(282,0,o),
(287,4,o),
(287,13,cs),
(287,40,ls),
(287,48,o),
(282,53,o),
(274,53,cs),
(272,53,ls),
(238,53,o),
(216,89,o),
(216,136,cs),
(216,298,l),
(231,336,o),
(279,374,o),
(323,374,cs),
(372,374,o),
(386,343,o),
(386,287,cs),
(386,136,ls),
(386,71,o),
(370,53,o),
(345,53,cs),
(339,53,ls),
(331,53,o),
(326,48,o),
(326,40,cs),
(326,13,ls),
(326,4,o),
(331,0,o),
(339,0,cs),
(573,0,ls),
(582,0,o),
(586,4,o),
(586,13,cs),
(586,40,ls),
(586,48,o),
(582,53,o),
(573,53,cs),
(566,53,ls),
(532,53,o),
(510,71,o),
(510,136,cs),
(510,287,ls),
(510,368,o),
(488,451,o),
(360,451,cs),
(280,451,o),
(232,390,o),
(208,350,c),
(224.139,464.988,ls),
(224.364,466.595,o),
(224.116,467,o),
(222,467,cs),
(221,467,ls),
(219,467,o),
(217,466,o),
(214,464,cs),
(190,447,o),
(127,414,o),
(42,401,cs),
(33,400,o),
(30,397,o),
(30,390,cs),
(30,360,ls),
(30,354,o),
(32,349,o),
(40,348,cs),
(89,343,o),
(92,294,o),
(92,247,cs),
(92,136,ls),
(92,89,o),
(71,53,o),
(28,53,cs),
(26,53,ls),
(18,53,o),
(13,48,o),
(13,40,cs),
(13,13,ls),
(13,4,o),
(18,0,o),
(26,0,cs)
);
}
);
width = 599;
}
);
note = n;
unicode = 110;
},
{
glyphname = nhookleft;
kernLeft = m;
kernRight = h;
lastChange = "2025-02-27 10:54:27 +0000";
layers = (
{
anchors = (
{
name = bottom;
pos = (306,0);
},
{
name = top;
pos = (301,440);
}
);
layerId = "6AD408C6-91F3-4F0B-A103-73D10F5280D9";
shapes = (
{
closed = 1;
nodes = (
(131,-188,o),
(158,-100,o),
(158,0,cs),
(158,311.865,l),
(179.038,372.48,o),
(218.81,411.488,o),
(278.362,411.488,cs),
(342.052,411.488,o),
(366,368.439,o),
(366,318.741,cs),
(366,96,ls),
(366,49,o),
(343,33,o),
(311,33,cs),
(308,33,ls),
(300,33,o),
(295,28,o),
(295,20,cs),
(295,13,ls),
(295,4,o),
(300,0,o),
(308,0,cs),
(499,0,ls),
(507,0,o),
(512,4,o),
(512,13,cs),
(512,20,ls),
(512,28,o),
(507,33,o),
(499,33,cs),
(497,33,ls),
(454,33,o),
(432,49,o),
(432,96,cs),
(432,319,ls),
(432,419,o),
(365,451,o),
(300,451,cs),
(223.347,451,o),
(174.953,397.224,o),
(158,360.184,c),
(178.174,465.391,ls),
(178.363,466.374,o),
(177.174,466.391,o),
(176.174,466.391,cs),
(175.174,466.391,ls),
(173.174,466.391,o),
(171.174,465.391,o),
(168.174,461.391,cs),
(138.174,420.391,o),
(81,408.196,o),
(42,401.196,cs),
(34.504,399.851,o),
(29,397.196,o),
(29,390.196,cs),
(29,380.196,ls),
(29,374.196,o),
(31,369.196,o),
(40,368.196,cs),
(88,363.196,o),
(92,346.196,o),
(92,297.196,cs),
(92,0,ls),
(92,-72,o),
(91.904,-161.76,o),
(34.953,-161.76,cs),
(6.819,-161.76,o),
(-4.665,-151.792,o),
(-8.189,-163.422,cs),
(-10.415,-170.768,ls),
(-12.976,-179.22,o),
(-11.238,-180.847,o),
(-5.001,-182.829,cs),
(4.107,-185.723,o),
(23.984,-188,o),
(37.35,-188,cs)
);
}
);
width = 525;
},
{
anchors = (
{
name = bottom;
pos = (306,0);
},
{
name = top;
pos = (301,440);
}
);
layerId = m002;
shapes = (
{
closed = 1;
nodes = (
(174,-188,o),
(216,-100,o),
(216,0,cs),
(216,298,l),
(231,336,o),
(279,374,o),
(323,374,cs),
(372,374,o),
(386,343,o),
(386,287,cs),
(386,136,ls),
(386,71,o),
(370,53,o),
(345,53,cs),
(339,53,ls),
(331,53,o),
(326,48,o),
(326,40,cs),
(326,13,ls),
(326,4,o),
(331,0,o),
(339,0,cs),
(573,0,ls),
(582,0,o),
(586,4,o),
(586,13,cs),
(586,40,ls),
(586,48,o),
(582,53,o),
(573,53,cs),
(566,53,ls),
(532,53,o),
(510,71,o),
(510,136,cs),
(510,287,ls),
(510,368,o),
(488,451,o),
(360,451,cs),
(280,451,o),
(232,390,o),
(208,350,c),
(224.139,464.988,ls),
(224.364,466.595,o),
(224.116,467,o),
(222,467,cs),
(221,467,ls),
(219,467,o),
(217,466,o),
(214,464,cs),
(190,447,o),
(127,414,o),
(42,401,cs),
(33,400,o),
(30,397,o),
(30,390,cs),
(30,360,ls),
(30,354,o),
(32,349,o),
(40,348,cs),
(89,343,o),
(92,294,o),
(92,247,cs),
(92,0,ls),
(92,-72,o),
(85,-136.364,o),
(28,-136.364,cs),
(10.726,-136.364,o),
(-1.491,-128.473,o),
(-4,-140.364,cs),
(-10.415,-170.768,ls),
(-12.238,-179.409,o),
(-11.238,-180.847,o),
(-5.001,-182.829,cs),
(4.107,-185.723,o),
(26.984,-188,o),
(40.35,-188,cs)
);
}
);
width = 599;
}
);
metricRight = n;
unicode = 626;
},
{
glyphname = eng;
kernLeft = m;
kernRight = ij;
lastChange = "2025-02-27 10:54:41 +0000";
layers = (
{
anchors = (
{
name = bottom;
pos = (264.329,0);
},
{
name = top;
pos = (259.329,440);
}
);
layerId = "6AD408C6-91F3-4F0B-A103-73D10F5280D9";
shapes = (
{
closed = 1;
nodes = (
(417,-188,o),
(432,-84,o),
(432,17,cs),
(432,319,ls),
(432,419,o),
(365,451,o),
(300,451,cs),
(223.347,451,o),
(174.953,397.224,o),
(158,360.184,c),
(178.174,465.391,ls),
(178.363,466.374,o),
(177.174,466.391,o),
(176.174,466.391,cs),
(175.174,466.391,ls),
(173.174,466.391,o),
(171.174,465.391,o),
(168.174,461.391,cs),
(138.174,420.391,o),
(81,408.196,o),
(42,401.196,cs),
(34.504,399.851,o),
(29,397.196,o),
(29,390.196,cs),
(29,380.196,ls),
(29,374.196,o),
(31,369.196,o),
(40,368.196,cs),
(88,363.196,o),
(92,346.196,o),
(92,297.196,cs),
(92,96,ls),
(92,49,o),
(71,33,o),
(28,33,cs),
(26,33,ls),
(18,33,o),
(13,28,o),
(13,20,cs),
(13,13,ls),
(13,4,o),
(19,0,o),
(28,0,cs),
(223,0,ls),
(232,0,o),
(238,4,o),
(238,13,cs),
(238,20,ls),
(238,28,o),
(234,33,o),
(225,33,cs),
(222,33,ls),
(179,33,o),
(158,50,o),
(158,97,cs),
(158,311.865,l),
(179.038,372.48,o),
(218.81,411.488,o),
(278.362,411.488,cs),
(342.052,411.488,o),
(366,368.439,o),
(366,318.741,cs),
(366,-4,ls),
(366,-77,o),
(365,-159,o),
(292,-159,cs),
(243,-159,o),
(221,-116.397,o),
(221,-73.397,cs),
(221,-64.397,o),
(217,-60.397,o),
(212,-60.397,cs),
(210,-60.397,o),
(208.663,-61.256,o),
(205,-63.397,cs),
(178.231,-79.051,ls),
(170.806,-83.394,o),
(169.231,-91.051,o),
(169.231,-97.051,cs),
(169.231,-114.051,o),
(214,-188,o),
(292,-188,cs)
);
}
);
width = 462;
},
{
anchors = (
{
name = bottom;
pos = (306,0);
},
{
name = top;
pos = (301,440);
}
);
layerId = m002;
shapes = (
{
closed = 1;
nodes = (
(479,-188,o),
(510,-55,o),
(510,55,cs),
(510,287,ls),
(510,368,o),
(488,451,o),
(360,451,cs),
(280,451,o),
(232,390,o),
(208,350,c),
(224.139,464.988,ls),
(224.364,466.595,o),
(224.116,467,o),
(222,467,cs),
(221,467,ls),
(219,467,o),
(217,466,o),
(214,464,cs),
(190,447,o),
(127,414,o),
(42,401,cs),
(33,400,o),
(30,397,o),
(30,390,cs),
(30,360,ls),
(30,354,o),
(32,349,o),
(40,348,cs),
(89,343,o),
(92,294,o),
(92,247,cs),
(92,136,ls),
(92,89,o),
(71,53,o),
(28,53,cs),
(26,53,ls),
(18,53,o),
(13,48,o),
(13,40,cs),
(13,13,ls),
(13,4,o),
(18,0,o),
(26,0,cs),
(274,0,ls),
(282,0,o),
(287,4,o),
(287,13,cs),
(287,40,ls),
(287,48,o),
(282,53,o),
(274,53,cs),
(272,53,ls),
(238,53,o),
(216,89,o),
(216,136,cs),
(216,298,l),
(231,336,o),
(279,374,o),
(323,374,cs),
(372,374,o),
(386,343,o),
(386,287,cs),
(386,-4,ls),
(386,-77,o),
(385,-139,o),
(331,-139,cs),
(282,-139,o),
(270,-92,o),
(270,-49,cs),
(270,-40,o),
(265,-37,o),
(260,-37,cs),
(258,-37,o),
(256,-38,o),
(254,-39,cs),
(192,-84,ls),
(185,-89,o),
(182,-96,o),
(182,-102,cs),
(182,-119,o),
(216,-188,o),
(325,-188,cs)
);
}
);
width = 540;
}
);
note = eng;
unicode = 331;
},
{
glyphname = o;
kernLeft = a;
kernRight = b;
lastChange = "2026-05-05 11:15:10 +0000";
layers = (
{
anchors = (
{
name = bottom;
pos = (251.311,0);
},
{
name = ogonek;
pos = (299.825,0);
},
{
name = top;
pos = (223.021,440);
},
{
name = topright;
pos = (222.47,440);
}
);
layerId = "6AD408C6-91F3-4F0B-A103-73D10F5280D9";
shapes = (
{
closed = 1;
nodes = (
(368.576,-10.943,o),
(438.944,91.645,o),
(438.944,215.608,cs),
(438.944,346.099,o),
(345.12,450.943,o),
(230.048,450.943,cs),
(96.292,450.943,o),
(25.996,348.226,o),
(25.996,224.39,cs),
(25.996,93.901,o),
(119.82,-10.943,o),
(234.892,-10.943,cs)
);
},
{
closed = 1;
nodes = (
(159.968,25.461,o),
(87.835,188.209,o),
(87.835,283.818,cs),
(87.835,362.632,o),
(136.549,414.539,o),
(197.563,414.539,cs),
(304.972,414.539,o),
(377.105,251.79,o),
(377.105,156.181,cs),
(377.105,77.367,o),
(328.39,25.461,o),
(267.377,25.461,cs)
);
}
);
width = 464.94;
},
{
anchors = (
{
name = bottom;
pos = (253,0);
},
{
name = ogonek;
pos = (318,0);
},
{
name = top;
pos = (253,440);
},
{
name = topright;
pos = (243,440);
}
);
layerId = m002;
shapes = (
{
closed = 1;
nodes = (
(375,-11,o),
(479,85,o),
(479,216,cs),
(479,334,o),
(382,451,o),
(247,451,cs),
(126,451,o),
(26,354,o),
(26,225,cs),
(26,100,o),
(125,-11,o),
(258,-11,cs)
);
},
{
closed = 1;
nodes = (
(198,60,o),
(131,200,o),
(131,280,cs),
(131,342,o),
(172,380,o),
(220,380,cs),
(306,380,o),
(373,241,o),
(373,160,cs),
(373,83,o),
(318,60,o),
(285,60,cs)
);
}
);
width = 505;
}
);
note = o;
unicode = 111;
},
{
glyphname = oslash;
kernLeft = a;
kernRight = b;
lastChange = "2025-02-27 12:05:32 +0000";
layers = (
{
hints = (
{
horizontal = 1;
place = (-176,21);
target = up;
type = BottomGhost;
},
{
horizontal = 1;
place = (-6,21);
target = up;
type = BottomGhost;
},
{
horizontal = 1;
place = (-11,21);
target = up;
type = BottomGhost;
}
);
layerId = "6AD408C6-91F3-4F0B-A103-73D10F5280D9";
shapes = (
{
ref = o;
},
{
closed = 1;
nodes = (
(428,436,ls),
(434.7,444.253,o),
(432,451,o),
(422,451,cs),
(409,451,ls),
(401,451,o),
(397.821,447.149,o),
(392,440,cs),
(37,4,ls),
(30.686,-3.755,o),
(35,-11,o),
(45,-11,cs),
(57,-11,ls),
(65,-11,o),
(69.077,-6.063,o),
(74,0,cs)
);
}
);
width = 464.94;
},
{
hints = (
{
horizontal = 1;
place = (-176,21);
target = up;
type = BottomGhost;
},
{
horizontal = 1;
place = (-6,21);
target = up;
type = BottomGhost;
},
{
horizontal = 1;
place = (-11,21);
target = up;
type = BottomGhost;
}
);
layerId = m002;
shapes = (
{
ref = o;
},
{
closed = 1;
nodes = (
(488,436,ls),
(495,444,o),
(492,451,o),
(482,451,cs),
(409,451,ls),
(401,451,o),
(398,447,o),
(392,440,cs),
(17,4,ls),
(11,-4,o),
(15,-11,o),
(25,-11,cs),
(97,-11,ls),
(105,-11,o),
(109,-6,o),
(114,0,cs)
);
}
);
width = 505;
}
);
note = oslash;
unicode = 248;
},
{
glyphname = oe;
kernLeft = a;
kernRight = e;
lastChange = "2025-02-27 11:30:17 +0000";
layers = (
{
layerId = "6AD408C6-91F3-4F0B-A103-73D10F5280D9";
shapes = (
{
closed = 1;
nodes = (
(310.995,-10.943,o),
(366.578,22.302,o),
(400.342,73.811,c),
(438.859,22.364,o),
(497.77,-11,o),
(567.803,-11,cs),
(655.886,-11,o),
(708.209,38.811,o),
(740.803,104,cs),
(743.803,110,o),
(743.686,111.781,o),
(739.803,114,cs),
(732.803,118,ls),
(729.673,119.789,o),
(728.054,118.865,o),
(725.803,115,cs),
(688.156,50.351,o),
(640.417,22.906,o),
(584.269,22.906,cs),
(508.873,22.906,o),
(455.222,86.524,o),
(434.559,161.199,c),
(714.803,279,ls),
(720.987,281.599,o),
(722.803,285,o),
(722.803,290,cs),
(722.803,357,o),
(668.01,451,o),
(546.736,451,cs),
(491.198,451,o),
(428.81,425.924,o),
(389.909,367.187,c),
(351.54,418.475,o),
(294.084,450.943,o),
(230.048,450.943,cs),
(96.292,450.943,o),
(25.996,348.226,o),
(25.996,224.39,cs),
(25.996,93.901,o),
(119.82,-10.943,o),
(234.892,-10.943,cs)
);
},
{
closed = 1;
nodes = (
(159.968,25.461,o),
(87.835,188.209,o),
(87.835,283.818,cs),
(87.835,362.632,o),
(136.549,414.539,o),
(197.563,414.539,cs),
(304.972,414.539,o),
(377.105,251.79,o),
(377.105,156.181,cs),
(377.105,77.367,o),
(328.39,25.461,o),
(267.377,25.461,cs)
);
},
{
closed = 1;
nodes = (
(402.455,277.428,o),
(429.237,414.094,o),
(537.202,414.094,cs),
(619.13,414.094,o),
(646.638,348.998,o),
(644.334,290.432,c),
(429.966,189.511,l)
);
}
);
width = 749.94;
},
{
background = {
shapes = (
{
closed = 1;
nodes = (
(126,451,o),
(26,354,o),
(26,225,cs),
(26,100,o),
(125,-11,o),
(258,-11,cs),
(314,-11,o),
(369,12,o),
(409,50,c),
(449,12,o),
(505,-11,o),
(573,-11,cs),
(663,-11,o),
(716,32,o),
(750,92,cs),
(752,97,o),
(755,103,o),
(755,107,cs),
(755,110,o),
(754,113,o),
(752,114,cs),
(723,131,o),
(722,132,o),
(716,132,cs),
(714,132,o),
(711,130,o),
(709,128,cs),
(678,83,o),
(634,62,o),
(597,62,cs),
(529,62,o),
(485,108,o),
(465,158,c),
(720,269,ls),
(726,272,o),
(728,275,o),
(728,280,cs),
(728,347,o),
(663,450,o),
(546,450,cs),
(493,450,o),
(437,432,o),
(398,393,c),
(358,428,o),
(306,451,o),
(247,451,cs)
);
},
{
closed = 1;
nodes = (
(131,342,o),
(172,380,o),
(220,380,cs),
(306,380,o),
(373,241,o),
(373,160,cs),
(373,83,o),
(318,60,o),
(285,60,cs),
(198,60,o),
(131,200,o),
(131,280,cs)
);
},
{
closed = 1;
nodes = (
(446,337,o),
(476,380,o),
(524,380,cs),
(565,380,o),
(596,340,o),
(596,283,c),
(454,212,l),
(447,233,o),
(446,262,o),
(446,280,cs)
);
}
);
};
layerId = m002;
shapes = (
{
closed = 1;
nodes = (
(315.065,-11,o),
(369.037,11.837,o),
(409.359,50.433,c),
(449.639,12.486,o),
(505.545,-11,o),
(573.629,-11,cs),
(664.629,-11,o),
(717.629,32,o),
(754.719,98.08,cs),
(759.54,106.668,o),
(758.08,110.639,o),
(752.629,114,cs),
(724.9,131.098,ls),
(718.762,134.882,o),
(713.305,132.655,o),
(708.78,125.983,cs),
(679.629,83,o),
(635.629,62,o),
(597.629,62,cs),
(529.629,62,o),
(485.629,108,o),
(465.629,158,c),
(720.629,269,ls),
(726.78,271.677,o),
(728.629,275,o),
(728.629,280,cs),
(728.629,347,o),
(663.629,451,o),
(539.214,451,cs),
(489.251,451,o),
(436.442,433.513,o),
(397.414,393.542,c),
(357.84,428.61,o),
(306.056,451,o),
(247,451,cs),
(126,451,o),
(26,354,o),
(26,225,cs),
(26,100,o),
(125,-11,o),
(258,-11,cs)
);
},
{
closed = 1;
nodes = (
(198,60,o),
(131,200,o),
(131,280,cs),
(131,342,o),
(172,380,o),
(220,380,cs),
(306,380,o),
(373,241,o),
(373,160,cs),
(373,83,o),
(318,60,o),
(285,60,cs)
);
},
{
closed = 1;
nodes = (
(437.739,260.682,o),
(441.704,380,o),
(525.629,380,cs),
(565.629,380,o),
(596.629,340,o),
(596.629,283,c),
(454.603,211.987,l)
);
}
);
width = 764.63;
}
);
metricLeft = o;
metricRight = e;
note = oe;
unicode = 339;
},
